<svg xmlns="http://www.w3.org/2000/svg" width="20.281" height="16.47" viewBox="0 0 20.281 16.47">
  <metadata><?xpacket begin="﻿" id="W5M0MpCehiHzreSzNTczkc9d"?>
<x:xmpmeta xmlns:x="adobe:ns:meta/" x:xmptk="Adobe XMP Core 5.6-c138 79.159824, 2016/09/14-01:09:01        ">
   <rdf:RDF xmlns:rdf="http://www.w3.org/1999/02/22-rdf-syntax-ns#">
      <rdf:Description rdf:about=""/>
   </rdf:RDF>
</x:xmpmeta>
                                                                                                    
                                                                                                    
                                                                                                    
                                                                                                    
                                                                                                    
                                                                                                    
                                                                                                    
                                                                                                    
                                                                                                    
                                                                                                    
                                                                                                    
                                                                                                    
                                                                                                    
                                                                                                    
                                                                                                    
                                                                                                    
                                                                                                    
                                                                                                    
                                                                                                    
                                                                                                    
                           
<?xpacket end="w"?></metadata>
<defs>
    <style>
      .cls-1 {
        fill: none;
        stroke: #fbfbfb;
        stroke-width: 2px;
        fill-rule: evenodd;
      }
    </style>
  </defs>
  <path class="cls-1" d="M766.8,3379.91a4.364,4.364,0,0,1,1.123,1.5,4.132,4.132,0,0,1,0,3.44,4.433,4.433,0,0,1-1.123,1.52l-7.656,6.82-7.657-6.82a4.42,4.42,0,0,1-1.123-1.52,4.132,4.132,0,0,1,0-3.44,4.351,4.351,0,0,1,1.123-1.5,4.181,4.181,0,0,1,1.509-.9,5.225,5.225,0,0,1,3.433,0,4.177,4.177,0,0,1,1.508.9l1.207,1.07,1.206-1.07a4.177,4.177,0,0,1,1.508-.9,5.225,5.225,0,0,1,3.433,0A4.181,4.181,0,0,1,766.8,3379.91Z" transform="translate(-749 -3377.72)"/>
</svg>
