<svg xmlns="http://www.w3.org/2000/svg" width="19.062" height="18" viewBox="0 0 19.062 18">
  <metadata><?xpacket begin="﻿" id="W5M0MpCehiHzreSzNTczkc9d"?>
<x:xmpmeta xmlns:x="adobe:ns:meta/" x:xmptk="Adobe XMP Core 5.6-c138 79.159824, 2016/09/14-01:09:01        ">
   <rdf:RDF xmlns:rdf="http://www.w3.org/1999/02/22-rdf-syntax-ns#">
      <rdf:Description rdf:about=""/>
   </rdf:RDF>
</x:xmpmeta>
                                                                                                    
                                                                                                    
                                                                                                    
                                                                                                    
                                                                                                    
                                                                                                    
                                                                                                    
                                                                                                    
                                                                                                    
                                                                                                    
                                                                                                    
                                                                                                    
                                                                                                    
                                                                                                    
                                                                                                    
                                                                                                    
                                                                                                    
                                                                                                    
                                                                                                    
                                                                                                    
                           
<?xpacket end="w"?></metadata>
<defs>
    <style>
      .cls-1 {
        fill: none;
        stroke: #fbfbfb;
        stroke-width: 2px;
        fill-rule: evenodd;
      }
    </style>
  </defs>
  <path id="Shape_7_копия" data-name="Shape 7 копия" class="cls-1" d="M837.136,3378.54a8.938,8.938,0,0,0-2.711,1.49,7.086,7.086,0,0,0-1.836,2.2,5.8,5.8,0,0,0,0,5.4,7.086,7.086,0,0,0,1.836,2.2,8.729,8.729,0,0,0,2.711,1.49,10.1,10.1,0,0,0,3.329.54c0.111,0,.223,0,0.333-0.01s0.223-.01.334-0.01l0.335-.03c0.111-.01.222-0.02,0.333-0.04a6.46,6.46,0,0,0,1.435,1.11,7.846,7.846,0,0,0,1.535.66,7.04,7.04,0,0,0,1.568.33c0.533,0.06,1.069.1,1.6,0.12v-0.45a4.535,4.535,0,0,1-.817-0.51,3.962,3.962,0,0,1-.684-0.64,3.02,3.02,0,0,1-.459-0.76,2.107,2.107,0,0,1-.174-0.84c0-.08,0-0.16.008-0.24s0.013-.16.025-0.24a7.253,7.253,0,0,0,1.318-1.07,7.1,7.1,0,0,0,1-1.28,6.406,6.406,0,0,0,.626-1.45,5.587,5.587,0,0,0,.225-1.58,5.74,5.74,0,0,0-.667-2.7,7.1,7.1,0,0,0-1.836-2.2,8.943,8.943,0,0,0-2.712-1.49A10.528,10.528,0,0,0,837.136,3378.54Z" transform="translate(-830.938 -3377)"/>
</svg>
