<svg xmlns="http://www.w3.org/2000/svg" width="149" height="75" viewBox="0 0 149 75">
  <metadata><?xpacket begin="﻿" id="W5M0MpCehiHzreSzNTczkc9d"?>
<x:xmpmeta xmlns:x="adobe:ns:meta/" x:xmptk="Adobe XMP Core 5.6-c138 79.159824, 2016/09/14-01:09:01        ">
   <rdf:RDF xmlns:rdf="http://www.w3.org/1999/02/22-rdf-syntax-ns#">
      <rdf:Description rdf:about=""/>
   </rdf:RDF>
</x:xmpmeta>                 
<?xpacket end="w"?></metadata>
<defs>
    <style>
      .cls-1 {
        fill: #d29e24;
        fill-rule: evenodd;
      }
    </style>
  </defs>
  <path id="кися" class="cls-1" d="M758.137,422.7a2.83,2.83,0,0,0,1.474-.006h0a3.126,3.126,0,0,0,1.971-1.929,2.655,2.655,0,0,0-.027-2.461,3.355,3.355,0,0,0-1.516-1.318c1.9-1.879,5.485-6.083,4.769-10.458-0.963-5.879-6.047-7.992-10.46-7.5-0.13-.61-0.268-1.161-0.41-1.645a20.85,20.85,0,0,0,11.955-3.562,3.837,3.837,0,0,0,.42.432,5.086,5.086,0,0,0,3.964,1.346,5.345,5.345,0,0,0,3.09-1.558c0.031,0.022.063,0.042,0.093,0.061l0.207,0.159a0.62,0.62,0,0,0,.189.11,4.179,4.179,0,0,0,3.084.755,4.426,4.426,0,0,0,3-2.827,7.547,7.547,0,0,0-.41-6.061,11.588,11.588,0,0,0-6.782-6.351c-5.81-1.89-12.01.926-14.991,2.278-1.853.843-3.883,1.855-5.351,2.605-1.052-2.753-3.351-8.86-4.574-12.75a41.788,41.788,0,0,0-4.645-9.634,0.883,0.883,0,0,0-.989-0.355,55.245,55.245,0,0,0-11.959,5.113,37.61,37.61,0,0,0-5.965-5.02,0.9,0.9,0,0,0-.78-0.072c-0.11.042-11.05,4.341-13.572,18.614-1.872,10.577-1.659,15.259-1.429,16.956-1.825.625-5.642,2.324-7.315,5.949-1.875-.942-8.913-3.943-20.454-2.756-13.848,1.432-14.378,6.149-14.693,8.969a5.013,5.013,0,0,0,1.247,4.046c1.556,1.717,4.38,2.589,8.412,2.589l2.643-.008c6.566-.02,17.362-0.056,24.545.877a2.988,2.988,0,0,0-1.422,1.827,2.279,2.279,0,0,0,.3,2.034c0.6,0.816,1.822,1.26,3.833,1.392a4.177,4.177,0,0,0,4.438.556,20.4,20.4,0,0,0,2.584.286,3.042,3.042,0,0,0-.928,1.929,2.419,2.419,0,0,0,.819,2.194c0.908,0.761,2.461.921,4.612,0.48a4.09,4.09,0,0,0,2.771,2.066,4.547,4.547,0,0,0,.944.1,4.122,4.122,0,0,0,3.092-1.4,4.232,4.232,0,0,0,3.33-.824,5.349,5.349,0,0,0,1.586-4.075c0.724,0.036,1.493.056,2.287,0.056,3.565,0,10.4-.395,16.442-3a6.429,6.429,0,0,0,3.644,2.971,7.806,7.806,0,0,0,1.8.224,5.043,5.043,0,0,0,1.753-.284,3.1,3.1,0,0,0,2.263-.105A2.367,2.367,0,0,0,758.137,422.7Zm-54.467-7.073c-6.045-.855-14.758-0.977-21.494-0.977-1.447,0-2.8.006-4.021,0.011l-2.484.006c-3.44,0-5.886-.691-7.073-2a3.331,3.331,0,0,1-.8-2.728c0.272-2.424.684-6.086,13.109-7.371,11.562-1.191,18.455,2.048,19.694,2.694a9.094,9.094,0,0,0-.226,1.978C700.353,411.086,701.407,413.787,703.67,415.631Zm52.159,3.154a0.881,0.881,0,0,0,.2,1.218,2.249,2.249,0,0,1,.621,1.572,0.568,0.568,0,0,1-.376.553,1.365,1.365,0,0,1-1.085-.018,7.028,7.028,0,0,0-.752-3.792,0.889,0.889,0,0,0-1.193-.383,0.875,0.875,0,0,0-.389,1.18c0.3,0.577.972,2.363,0.384,3.229a5.6,5.6,0,0,1-1.609-.168,4.564,4.564,0,0,1-2.445-2.028c0.68-.347,1.28-0.687,1.825-1.033a0.851,0.851,0,0,0,.212-0.185,10.386,10.386,0,0,0,2.369-7.323,0.887,0.887,0,0,0-1.762.2,8.845,8.845,0,0,1-1.9,5.9c-7.52,4.7-18.4,4.518-21.138,4.386-0.293-4.712-1.5-11.915-1.645-12.745a0.887,0.887,0,0,0-1.749.3c0.014,0.083,1.471,8.56,1.664,13.312,0.074,1.817-.25,3.042-0.962,3.637a2.485,2.485,0,0,1-1.99.4,3.176,3.176,0,0,1-.17-2.36,0.876,0.876,0,0,0-.506-1.132,0.89,0.89,0,0,0-.68.014,0.877,0.877,0,0,0-.471.486,4.938,4.938,0,0,0,.2,3.681,2.366,2.366,0,0,1-2.212.654,2.266,2.266,0,0,1-1.5-1.045,8.24,8.24,0,0,1,2.475-2.228,0.88,0.88,0,0,0-.939-1.488,11.021,11.021,0,0,0-2.868,2.531c-2.185.555-3.41,0.379-3.791,0.059a0.7,0.7,0,0,1-.2-0.7c0.13-1.475,2.97-1.977,3-1.981a0.88,0.88,0,0,0,.741-0.762,0.845,0.845,0,0,0,.2-0.7c-1.182-6.537-6.332-24.107-6.384-24.284a0.879,0.879,0,0,0-.426-0.526,0.846,0.846,0,0,0-.356-0.1c-0.183-1.694-.3-6.231,1.448-16.134,0.115-.653.261-1.311,0.448-2.027,1.254,2.7,4.433,4.514,8.08,4.514a9.444,9.444,0,0,0,6.879-2.774,1.212,1.212,0,0,0,.653,1.062c0.463,0.371,1.549,1.238,1.587,2.008,0.043,0.863-.99,2.145-1.648,2.749a0.88,0.88,0,0,0-.286.613c0,0.031-.121,3.148-0.309,4.564a4.683,4.683,0,0,0-.036.782l-0.011.078a1.989,1.989,0,0,0,.184.849,2.082,2.082,0,0,0,.369.659,2.612,2.612,0,0,0,1.99.811l0.3,0a16.618,16.618,0,0,0,2.593-.256l0.118-.016c0.267-.042.549-0.084,0.9-0.13a4.236,4.236,0,0,1,2.13.309,0.9,0.9,0,0,0,1.051-.2,0.873,0.873,0,0,0,.1-1.05c-0.05-.079-2.245-3.609-3.359-4.91a1.472,1.472,0,0,1-.371-1.2,1.893,1.893,0,0,0-.474-1.537,8.867,8.867,0,0,1-1.592-3.586,5.138,5.138,0,0,1,.042-1.592,0.88,0.88,0,0,0,.019-0.2,8.691,8.691,0,0,0,5.535,1.907c4.337,0,7.866-2.946,7.866-6.566s-3.529-6.568-7.866-6.568c-4.157,0-7.561,2.71-7.838,6.121-0.645-3.341-4.22-5.907-8.53-5.907a10.2,10.2,0,0,0-4.032.812,21.427,21.427,0,0,1,7.56-6.421,44.55,44.55,0,0,1,5.768,5.017,0.9,0.9,0,0,0,1.129.106c3.759-2.53,9.457-4.458,11.442-5.084a40.728,40.728,0,0,1,4.074,8.63c1.289,4.106,3.8,10.745,4.684,13.048-0.617.322-1,.525-1,0.529a0.873,0.873,0,0,0-.428.521,0.857,0.857,0,0,0,.07.667,0.878,0.878,0,0,0,.529.424,0.893,0.893,0,0,0,.7-0.082c0.73-.386,4.531-2.4,7.814-3.888,2.769-1.259,8.533-3.879,13.693-2.207a9.808,9.808,0,0,1,5.713,5.391,5.948,5.948,0,0,1,.419,4.628,2.848,2.848,0,0,1-1.733,1.835,2.533,2.533,0,0,1-1.8-.516c-2.078-1.747-2.523-5.756-2.526-5.8a0.888,0.888,0,0,0-1.768.175,14.73,14.73,0,0,0,.493,2.4,2.761,2.761,0,0,1-1.5,1.663,4.13,4.13,0,0,1-2.783-.182,7.466,7.466,0,0,1,.961-3.395,0.885,0.885,0,0,0-1.53-.889,8.835,8.835,0,0,0-1.188,4.686,0.86,0.86,0,0,0,.1.6c0.008,0.033.017,0.066,0.025,0.1-4.2,2.974-8.42,3.388-12.364,3.388a0.892,0.892,0,0,0-.735.386,0.873,0.873,0,0,0-.088.821,33.269,33.269,0,0,1,1.412,6.877,0.878,0.878,0,0,0,.881.791l0.089,0a0.883,0.883,0,0,0,.6-0.319,0.859,0.859,0,0,0,.2-0.641c0-.014-0.126-1.249-0.385-2.792,3.674-.363,7.611,1.349,8.38,6.043,0.772,4.728-5.055,9.675-5.3,9.881a0.875,0.875,0,0,0,.436,1.543,2.921,2.921,0,0,1,1.817.929,1.008,1.008,0,0,1-.052.911,1.487,1.487,0,0,1-.83.931,1.207,1.207,0,0,1-.783-0.079,3.565,3.565,0,0,0-1.3-2.366A0.887,0.887,0,0,0,755.829,418.785Zm-49.153-.587a3.761,3.761,0,0,0-1.552,2.547c-1.443-.16-1.832-0.484-1.935-0.622a0.578,0.578,0,0,1-.022-0.546C703.262,419.224,703.5,418.335,706.676,418.2Zm1.295,1.285a0.877,0.877,0,0,0,.524-1.123,0.868,0.868,0,0,0-.343-0.431,0.4,0.4,0,0,0,.039-0.042c0.354,0.116.712,0.223,1.069,0.325a0.913,0.913,0,0,0,1.1-.6,0.879,0.879,0,0,0-.607-1.087c-4.181-1.2-7.639-2.717-7.606-9.276,0.03-5.808,6.282-7.807,7.409-8.121,0.975,3.367,4.8,16.673,5.965,22.607a44.359,44.359,0,0,1-4.641-.268,3.074,3.074,0,0,1,.819-1.517,0.874,0.874,0,0,0,.091-1.233,0.9,0.9,0,0,0-1.252-.094,4.9,4.9,0,0,0-1.47,2.971,2.394,2.394,0,0,1-2.214-.305A1.985,1.985,0,0,1,707.971,419.483Zm20.839-42.571a5.947,5.947,0,0,0,1.254,2.625,4.76,4.76,0,0,0-2.344.362A5.989,5.989,0,0,0,728.81,376.912Zm-0.457,15.617c1.278-.716,2.822-1.376,3.211-1.214a5.018,5.018,0,0,1,1.464,1.832,23.147,23.147,0,0,1-3.44.2A1.113,1.113,0,0,1,728.353,392.529Zm2.118-16.685c0-2.653,2.732-4.812,6.09-4.812s6.091,2.159,6.091,4.812-2.733,4.812-6.091,4.812S730.471,378.5,730.471,375.844Zm-10.278-4.6c3.788,0,6.869,2.346,6.869,5.23s-3.081,5.233-6.869,5.233-6.869-2.348-6.869-5.233S716.405,371.246,720.193,371.246Zm49.934,21.738a4.032,4.032,0,0,0,1.654-1.219,9.261,9.261,0,0,0,.479.864,3.528,3.528,0,0,1-2.194,1.235,3.126,3.126,0,0,1-2.207-.625A4.893,4.893,0,0,0,770.127,392.984Zm-49.351-17.429a1.282,1.282,0,1,0-1.3-1.281A1.289,1.289,0,0,0,720.776,375.555Zm14.548-.617a1.281,1.281,0,1,0-1.295-1.28A1.29,1.29,0,0,0,735.324,374.938Zm79.568,51.678-5.77-12.364a0.879,0.879,0,0,0-.78-0.5c-3-2.3-13.8-2.917-19.767-2.917-2.033,0-19.822.115-20.6,4.106l-6.094,12.489a0.873,0.873,0,0,0,.222,1.049c0.211,0.179,5.43,4.4,27.72,4.4,21.692,0,24.7-4.64,25.08-5.569A0.87,0.87,0,0,0,814.892,426.616Zm-25.065,4.513c-17.48,0-24.107-2.635-26-3.643l5.2-10.653c3.276,2.173,13.723,2.761,19.548,2.761,6.018,0,16.683-.618,19.734-2.895l4.752,10.181C812.129,427.842,807.636,431.129,789.827,431.129Zm-1.252-18.54c12.46,0,18.618,1.911,18.855,2.611-0.237.727-6.395,2.638-18.855,2.638s-18.621-1.911-18.857-2.611C769.954,414.5,776.114,412.589,788.575,412.589Zm-18.852,21.065c-1.472,0-2.54.7-2.54,1.677s1.068,1.676,2.54,1.676,2.54-.706,2.54-1.676S771.2,433.654,769.723,433.654Zm-8.486-2c-0.192,0-.381.009-0.564,0.027a0.879,0.879,0,0,0-.6.315,0.867,0.867,0,0,0-.2.643,0.912,0.912,0,0,0,.971.79c0.127-.012.26-0.02,0.393-0.02a2.866,2.866,0,0,1,1.812.489,2.354,2.354,0,0,1-1.812.555,2.545,2.545,0,0,1-1.806-.522,0.888,0.888,0,0,0-1.775,0c0,1.3,1.54,2.276,3.581,2.276s3.583-.976,3.583-2.276S763.28,431.654,761.237,431.654Z" transform="translate(-666 -362)"/>
</svg>
