<svg xmlns="http://www.w3.org/2000/svg" width="82.969" height="68" viewBox="0 0 82.969 68">
  <metadata><?xpacket begin="﻿" id="W5M0MpCehiHzreSzNTczkc9d"?>
<x:xmpmeta xmlns:x="adobe:ns:meta/" x:xmptk="Adobe XMP Core 5.6-c138 79.159824, 2016/09/14-01:09:01        ">
   <rdf:RDF xmlns:rdf="http://www.w3.org/1999/02/22-rdf-syntax-ns#">
      <rdf:Description rdf:about=""/>
   </rdf:RDF>
</x:xmpmeta>
                                                                                                    
                                                                                                    
                                                                                                    
                                                                                                    
                                                                                                    
                                                                                                    
                                                                                                    
                                                                                                    
                                                                                                    
                                                                                                    
                                                                                                    
                                                                                                    
                                                                                                    
                                                                                                    
                                                                                                    
                                                                                                    
                                                                                                    
                                                                                                    
                                                                                                    
                                                                                                    
                           
<?xpacket end="w"?></metadata>
<defs>
    <style>
      .cls-1 {
        fill: #d29e24;
        fill-rule: evenodd;
      }
    </style>
  </defs>
  <path class="cls-1" d="M134.942,60.055a0.771,0.771,0,0,0-.856.452q-0.2.446-.374,0.837c-0.581-2.146-1.744-5.231-3.813-6.449-2.81-2.88-4.387-4.462-7.192-4.009a6.4,6.4,0,0,0-4.736,2.816,20.875,20.875,0,0,0-7.256-9.8,0.774,0.774,0,0,0-1.054.135c-1.163,1.407-3.788,5.576-4.879,7.332-2.148-1.872-8.736-7.423-13.394-9.3a0.768,0.768,0,0,0-.851.185c-3.948,4.166-11.95,15.984-12.817,17.268a0.773,0.773,0,0,0-.427-0.166c-6.225-.444-10.99.9-13.754,3.891-2.092,2.262-2.91,5.388-2.365,9.041C62.257,79.535,71.267,81.3,74.44,81.7c-3.689,8.877-6.985,26.59-7.128,27.368a0.775,0.775,0,0,0,.623.9,0.758,0.758,0,0,0,.141.013,0.775,0.775,0,0,0,.761-0.635c0.036-.195,3.633-19.546,7.4-27.9a12.65,12.65,0,0,1,3.879-2.579,0.775,0.775,0,0,0-.6-1.43,14.568,14.568,0,0,0-4.259,2.784c-2-.2-11.55-1.513-12.546-8.168-0.481-3.215.182-5.824,1.969-7.758,2.359-2.548,6.485-3.729,11.982-3.43,0.406,1.406.872,3.846,0.879,3.875a0.775,0.775,0,0,0,1.536-.145v-4.31c0.386-.571,1.588-2.339,3.138-4.553,0.615-.44,4.454-3.025,7.793-1.421,2.74,1.32,3.062,2.747,3.078,3.279-0.106.067-.217,0.125-0.321,0.2a10.2,10.2,0,0,0-8.441.93,0.776,0.776,0,0,0,.417,1.429,0.787,0.787,0,0,0,.415-0.121,9,9,0,0,1,6.164-1.063,10.73,10.73,0,0,0-2.247,12.5c-1.3,1.488-5.155,3.939-6.622,4.808a0.776,0.776,0,0,0,.4,1.443,0.79,0.79,0,0,0,.395-0.108,43.347,43.347,0,0,0,6.637-4.742,10.784,10.784,0,0,0,17.684.184,10.043,10.043,0,0,1-1.329,4.637c-0.288.383-.574,0.749-0.851,1.1-1.09,1.388-2.032,2.587-2.177,3.816a0.782,0.782,0,0,0,.191.606c0.37,0.416,1,.238,1.767.066a6.238,6.238,0,0,1,2.722-.2,29.613,29.613,0,0,1,3.377,1.1,0.742,0.742,0,0,0,.287.055,0.775,0.775,0,0,0,.776-0.775,10.213,10.213,0,0,0-1.334-4.887,12.213,12.213,0,0,1-1.732-4.48,12.914,12.914,0,0,0,4.508,2.339,0.738,0.738,0,0,0,.206.027c4.852,0,8.666-2.433,10.159-6.126a6.69,6.69,0,0,0,3.021,4.594,0.779,0.779,0,0,0,.451.145,0.776,0.776,0,0,0,.452-1.406c-3.5-2.511-2.457-5.666-1.536-8.452,0.142-.428.277-0.839,0.39-1.229a0.774,0.774,0,0,0-.744-0.99,7.249,7.249,0,0,1-2.411-.881,10.94,10.94,0,0,0-.522-0.962,8.091,8.091,0,0,1,5.347-.866,0.775,0.775,0,0,0,.324-1.516,9.476,9.476,0,0,0-6.564,1.111,10.892,10.892,0,0,0-1.576-1.545,7.566,7.566,0,0,1,1.644-1.2c0.426-.263.928-0.574,1.538-0.98,1.767-1.177,4.706-.112,5.127.051,2.188,1.232,3.339,5.9,3.6,7.6a0.774,0.774,0,0,0,1.45.248c0.022-.04.5-0.932,1.129-2.345,2.128,0.565,7.565,2.763,7.182,10.424-0.405,8.106-8.517,8.845-17.91,9.7l-1,.093a0.773,0.773,0,0,0-.7.822c0.3,4.523-.748,26.2-0.759,26.419a0.775,0.775,0,0,0,.738.812h0.038a0.775,0.775,0,0,0,.773-0.738c0.042-.853.966-20.047,0.791-25.84l0.265-.024c9.69-.884,18.844-1.718,19.317-11.17C144.481,62.168,135.92,60.24,134.942,60.055ZM90.677,52.922a8.1,8.1,0,0,0-6.482.013c2.429-3.4,5.192-7.107,7.1-9.217,5.27,2.355,13.062,9.346,13.142,9.419a0.771,0.771,0,0,0,.63.19,0.78,0.78,0,0,0,.55-0.36c0.035-.057,3.162-5.141,4.785-7.35a19.124,19.124,0,0,1,6.728,10.8A10.752,10.752,0,0,0,106.4,59.1a10.784,10.784,0,0,0-11.883-2.267C94.254,55.756,93.371,54.22,90.677,52.922Zm8.108,23.1a9.259,9.259,0,1,1,9.26-9.258A9.268,9.268,0,0,1,98.785,76.024Zm15.29-1.114c-1.35-.4-4.615-1.769-5.025-3.867a0.742,0.742,0,0,0-.2-0.363,10.7,10.7,0,0,0-1.438-10.4,9.287,9.287,0,0,1,6.595-2.774,9.186,9.186,0,0,1,4.856,1.391,18.076,18.076,0,0,1,3.084,3.13,9.191,9.191,0,0,1,1.319,4.74C123.267,71.529,119.493,74.865,114.075,74.91Zm11.084-10.53c-0.037.115-.076,0.23-0.114,0.347-0.1.287-.194,0.588-0.289,0.893a10.574,10.574,0,0,0-.271-1.467C124.706,64.236,124.933,64.315,125.159,64.379Zm-2.077-9.51c-0.59.395-1.078,0.7-1.491,0.95a8.123,8.123,0,0,0-2.121,1.633c-0.213-.124-0.429-0.242-0.65-0.351a0.759,0.759,0,0,0,0-.126c-0.085-.5-0.189-0.983-0.3-1.452a0.815,0.815,0,0,0,.183-0.178c1.371-2.023,2.2-2.6,4.252-2.928,1.425-.232,2.4.257,3.952,1.7A5.817,5.817,0,0,0,123.082,54.869ZM101.966,68.845a1.4,1.4,0,1,0,1.4,1.4A1.4,1.4,0,0,0,101.966,68.845Zm11.474,0.6a1.4,1.4,0,1,0,1.4,1.4A1.4,1.4,0,0,0,113.44,69.449Z" transform="translate(-61 -42)"/>
</svg>
