<svg xmlns="http://www.w3.org/2000/svg" width="143.031" height="97" viewBox="0 0 143.031 97">
  <metadata><?xpacket begin="﻿" id="W5M0MpCehiHzreSzNTczkc9d"?>
<x:xmpmeta xmlns:x="adobe:ns:meta/" x:xmptk="Adobe XMP Core 5.6-c138 79.159824, 2016/09/14-01:09:01        ">
   <rdf:RDF xmlns:rdf="http://www.w3.org/1999/02/22-rdf-syntax-ns#">
      <rdf:Description rdf:about=""/>
   </rdf:RDF>
</x:xmpmeta>                                                                                             
<?xpacket end="w"?></metadata>
<defs>
    <style>
      .cls-1 {
        fill: #d29e24;
        fill-rule: evenodd;
      }
    </style>
  </defs>
  <path class="cls-1" d="M118.662,186.9a3.431,3.431,0,0,0,1.816-.243c2.027-.934,2.115-4.168,1.4-6.148-0.68-1.877-2.807-1.749-3.839-1.416a0.854,0.854,0,0,0-.551,1.075,0.845,0.845,0,0,0,1.066.556c0.015-.006,1.437-0.435,1.728.371,0.515,1.425.379,3.594-.507,4-0.981.448-3.262-.375-4.211-2.239a1.055,1.055,0,0,1-.13-0.933,1.926,1.926,0,0,1,1.043-.875,0.858,0.858,0,0,0,.52-1.088,0.845,0.845,0,0,0-1.081-.53,3.624,3.624,0,0,0-2.058,1.852,2.786,2.786,0,0,0,.2,2.358A6.3,6.3,0,0,0,118.662,186.9Zm75.246-13.714a2.151,2.151,0,0,0-1.124-1.4,2.1,2.1,0,0,0-.31-0.126,6.106,6.106,0,0,0,1.354-3.224,3.339,3.339,0,0,0-.967-2.521,5.155,5.155,0,0,0-4.7-1.726,4.514,4.514,0,0,0-2.683,1.712c-1.279-2.18-3.521-4.969-6.855-3.31a4.252,4.252,0,0,0-1.842,1.8c-1.865-.742-12.486-5-16.878-7.565-4-2.339-13.436-16.044-16.157-20.074,2.436-.467,7.6-1.847,11.285-5.546,2.012-2.019,3.058-5.17,2.942-8.868-0.124-4.043-1.663-8.26-3.656-10.023a27.559,27.559,0,0,0-12.11-6.526l-0.93-.232c-1.142-.283-2.1-0.519-2.909-0.7a0.9,0.9,0,0,0-.079-0.291c-0.142-.283-2.858-6.2-4.649-10.1a0.855,0.855,0,0,0-.921-0.485,114.435,114.435,0,0,0-11.944,2.8,0.858,0.858,0,0,0-.572.945,35.73,35.73,0,0,0,1.61,5.724c-0.186-.046-0.374-0.084-0.562-0.116l0.006-.053a0.856,0.856,0,0,0-.652-0.931c-2.561-.6-14.8-0.316-19.745.647a0.855,0.855,0,0,0-.686.912,24.192,24.192,0,0,0,1.738,5.545c-3.022.825-12.242,3.406-15.112,4.894a0.859,0.859,0,0,0-.361,1.165c6.905,13.088,7.939,23.814,8.092,26.48a8.965,8.965,0,0,0-4.293,1.3c-0.9-.757-1.668-1.536-2.36-2.236-1.74-1.763-3.242-3.28-5.038-2.174-1.092.673-1.707,2.411-1.568,4.428a7.309,7.309,0,0,0,2.307,5.011,6.543,6.543,0,0,0-4.316,6.819,1.926,1.926,0,0,0,1.4,1.876c1.307,0.361,3.265-.554,4.913-1.92-0.7,3.888-.051,5.037,1.418,5.725a0.917,0.917,0,0,0,.261.073,0.689,0.689,0,0,0,.111,0,3.658,3.658,0,0,0,2.546-1.3,4.933,4.933,0,0,0,.943-1.667,6.228,6.228,0,0,0,2.388,3.167,2.017,2.017,0,0,0,1.705.094c1.375-.544,1.649-2.587,1.609-4.356a19.943,19.943,0,0,0,1.675,1.353,41.216,41.216,0,0,0-2.509,11.386c-8.4-.731-17.516-1.732-18.506-2.215-1.64-.85-3.359-1.526-3.432-1.555a0.845,0.845,0,0,0-.712.045l-2.33-2.346a0.844,0.844,0,0,0-.641-0.25,0.856,0.856,0,0,0-.615.31,11.114,11.114,0,0,0-1.1,1.628,18.751,18.751,0,0,0-1.692-1.751c1.721-2.436,7.07-10.773,2.76-14.877-2.844-2.708-5.739-3.842-8.364-3.287-3.048.649-5.651,3.511-7.737,8.507-4.08,9.778-1.85,15.589-.9,18.071,0.1,0.273.191,0.5,0.249,0.684,0.8,2.557,4.481,5.743,12.417,7.019,1.8,0.29,3.418.586,4.947,0.864,5.575,1.02,9.983,1.825,17.413,1.3a102.208,102.208,0,0,0,14.179-1.826,39.327,39.327,0,0,1,4.371,4.325A21.466,21.466,0,0,0,118.76,190.9a14.261,14.261,0,0,0,2.97.039c4.386-.417,6.446-2.383,6.3-6.011a20.37,20.37,0,0,0-.351-2.934c1.713-1.015,8.217-4.42,18.853-4.706,12.732-.339,29.95-0.57,30.123-0.573a0.7,0.7,0,0,0,.136-0.03c0.217,0.051.44,0.1,0.673,0.129l3.367,0.48a11.325,11.325,0,0,0,2.625.559,24.908,24.908,0,0,0,3.438.132c3.12-.079,4.318-0.749,4.746-1.383C192.807,176.115,194.407,174.958,193.908,173.19Zm-71.891-75c3.352-1.026,8.551-2.05,10.359-2.393,0.836,1.823,3.085,6.721,4,8.709a4.666,4.666,0,0,0-2.936.424,3.6,3.6,0,0,0-1.726,3.475,2.83,2.83,0,0,0,2.042,2.542c0.864,0.256,1.9.514,2.839,0.733a3.855,3.855,0,0,0-2.21,2.524,2.477,2.477,0,0,0,.861,2.226,3.8,3.8,0,0,0,3.37.593c-0.428,1.272-.551,2.639.318,3.547a2.8,2.8,0,0,0,2.3.894c0.068,0,.135-0.021.2-0.032l1.3,4.472-5.929,2.4-7.973-16.644a0.773,0.773,0,0,0-.134-0.176,9.646,9.646,0,0,0-.723-2.7,9.344,9.344,0,0,0-4.05-4.506A46.691,46.691,0,0,1,122.017,98.189Zm-3.752,36.961c-0.071-.254-0.119-0.486-0.177-0.728,0.433,0.043.854,0.167,0.815,0.484a0.978,0.978,0,0,0,.359.7,4.256,4.256,0,0,1-.58-0.071,0.8,0.8,0,0,0-.409.009A0.853,0.853,0,0,0,118.265,135.15Zm-1.3-16.835a8.483,8.483,0,0,0-3.434-5.386,6.883,6.883,0,0,1,3.817-7.483c3.4-1.492,7.475.31,9.079,4.024a7.66,7.66,0,0,1,.234,5.581,6.478,6.478,0,0,1-3.5,3.861A6.544,6.544,0,0,1,116.964,118.315Zm-2.113-1.148a7.215,7.215,0,0,1-.19,5.974,9.724,9.724,0,0,1-11.477,5.036,7.134,7.134,0,0,1-4.463-3.934c-1.678-3.891.574-8.644,5.022-10.595a9.633,9.633,0,0,1,4.963-.776A7.433,7.433,0,0,1,114.851,117.167Zm31.631,58.407c-10.318.277-16.818,3.323-19.207,4.667-0.134-.5-0.257-0.906-0.339-1.156,0.341-.987,1.2-4.034-0.312-6.266a3.115,3.115,0,0,0-2.778-1.389,7.224,7.224,0,0,0-4.926,2.934c-2.216-3.406-4.181-3.267-5.207-2.831-1.5.639-2.1,2.254-2.037,3.95a3.443,3.443,0,0,0-1.785-.289,3.483,3.483,0,0,0-2.441,1.552c-0.485.752-.176,2.041,0.346,2.985a4.115,4.115,0,0,0,3.748,2.276,0.856,0.856,0,0,0-.041-1.712,2.3,2.3,0,0,1-1.913-.935,3.365,3.365,0,0,1-.717-1.678,1.813,1.813,0,0,1,1.21-.786,3.008,3.008,0,0,1,2.229,1.093,0.84,0.84,0,0,0,1.053.1,0.861,0.861,0,0,0,.334-1.012c-0.555-1.533-.457-3.487.673-3.967,1.023-.434,2.417.782,3.75,3.244a0.826,0.826,0,0,0,.733.445,0.845,0.845,0,0,0,.745-0.422c1.041-1.8,2.892-3.187,4.307-3.236a1.411,1.411,0,0,1,1.313.641c1.268,1.871.04,4.929,0.028,4.958a0.869,0.869,0,0,0-.013.623,21.469,21.469,0,0,1,1.092,5.63c0.082,1.958-.438,3.824-4.756,4.237-5.285.5-11.288-2.789-14.265-6.14a34.362,34.362,0,0,0-4.943-4.8,0.841,0.841,0,0,0-.691-0.134,96,96,0,0,1-14.3,1.871c-7.215.507-11.528-.284-16.992-1.28-1.54-.281-3.169-0.579-4.981-0.87-9.454-1.52-10.928-5.406-11.065-5.843-0.065-.212-0.166-0.474-0.285-0.788-0.879-2.288-2.934-7.647.88-16.787,1.857-4.448,4.05-6.969,6.521-7.494,2.609-.558,5.16,1.247,6.848,2.854,3.2,3.048-1.387,10.6-3.425,13.248a0.86,0.86,0,0,0,.172,1.217,16.748,16.748,0,0,1,2.968,3.163,0.85,0.85,0,0,0,.937.3,0.859,0.859,0,0,0,.589-0.795,4,4,0,0,1,.708-1.518l3.316,3.341a0.848,0.848,0,0,0,1.08.1,0.861,0.861,0,0,0,.369-0.673c0.455,0.208.949,0.444,1.433,0.695,1.566,0.811,14.958,2.035,19.235,2.406,0,0.495.02,0.99,0.056,1.482a0.853,0.853,0,0,0,.75.788,0.779,0.779,0,0,0,.16,0,0.854,0.854,0,0,0,.784-0.918c-0.394-5.382,1.446-11.206,2.276-13.512a9.024,9.024,0,0,0,3.319,1.166c5.077,0.583,6.877-3.055,8.017-8.692a0.85,0.85,0,1,0-1.665-.343c-1.336,6.6-3.2,7.673-6.16,7.332a7.892,7.892,0,0,1-3.167-1.234,0.733,0.733,0,0,0-.657-0.438A19.9,19.9,0,0,1,96.139,154a0.846,0.846,0,0,0-1-.22,0.857,0.857,0,0,0-.48.915c0.368,2.27.209,4.706-.322,4.917a0.354,0.354,0,0,1-.319-0.028c-0.691-.352-1.8-2.122-2.846-6.034a0.849,0.849,0,0,0-1.665.309c0.213,2.109-.073,3.694-0.83,4.584a2.155,2.155,0,0,1-1.163.726c-0.529-.329-0.992-1.25.411-6.744a0.85,0.85,0,0,0-1.527-.691c-1.529,2.29-4.355,3.9-5.282,3.637-0.059-.016-0.133-0.037-0.153-0.33-0.086-1.375.209-4.669,4.8-5.574a0.859,0.859,0,0,0,.175-1.628,5.394,5.394,0,0,1-2.969-4.64,3.442,3.442,0,0,1,.759-2.844c0.59-.362,1.318.269,2.949,1.92a31.745,31.745,0,0,0,2.974,2.748,0.841,0.841,0,0,0,.991.042,8.067,8.067,0,0,1,5.882-1.265,7.817,7.817,0,0,0,1.933.027,1.963,1.963,0,0,0,1.348-.867c0.852-1.265.428-3.437,0.334-3.86a0.848,0.848,0,0,0-1.014-.649,0.859,0.859,0,0,0-.644,1.024,4.347,4.347,0,0,1-.08,2.522,0.286,0.286,0,0,1-.211.139,6.851,6.851,0,0,1-1.51-.042c-0.14-.014-0.29-0.026-0.439-0.039-0.114-2.547-1-13.143-7.883-26.535,4.069-1.741,14.827-4.625,14.944-4.657a0.854,0.854,0,0,0,.55-0.46,0.866,0.866,0,0,0,.007-0.72A35.5,35.5,0,0,1,102,104.543a101.586,101.586,0,0,1,14.934-.767c-0.088.034-.177,0.061-0.264,0.1a8.48,8.48,0,0,0-4.938,8.043,10.95,10.95,0,0,0-8.667.159c-5.305,2.328-7.953,8.093-5.9,12.848a8.8,8.8,0,0,0,5.5,4.882,10.4,10.4,0,0,0,2.017.437,11.326,11.326,0,0,0,5.827-.914,11.168,11.168,0,0,0,5.692-5.461,9.49,9.49,0,0,0,.891-3.539,8.634,8.634,0,0,0,1.164.447,0.774,0.774,0,0,0-.009.25l0.58,3.512c-1.35.894-4.231,3.746-2.194,11.073a0.848,0.848,0,0,0,.721.621,0.83,0.83,0,0,0,.3-0.025,0.85,0.85,0,0,0,.621.986,4.74,4.74,0,0,0,.617.108,3.759,3.759,0,0,0,2.825-.659,2.88,2.88,0,0,0,.907-2.554,23.876,23.876,0,0,0-.734-4.149,7.647,7.647,0,0,1-.366-2.232l0.174-1.323a0.859,0.859,0,0,0-.2-0.673l-0.937-1.095-0.579-3.507a7.944,7.944,0,0,0,3.853-.629,8.169,8.169,0,0,0,4.428-4.857c0.088-.25.161-0.5,0.226-0.76l7.141,14.906a0.849,0.849,0,0,0,.669.479,0.839,0.839,0,0,0,.412-0.056l7.381-2.992a0.859,0.859,0,0,0,.5-1.038l-1.557-5.343a5.049,5.049,0,0,0,1.413-1.314c0.695-1,1.066-1.648,1.081-1.675a0.858,0.858,0,0,0-.314-1.168,0.847,0.847,0,0,0-1.16.316c-0.009.016-.354,0.619-1,1.541a3.132,3.132,0,0,1-1.952,1.234,1.117,1.117,0,0,1-.944-0.378c-0.531-.555.213-2.438,1.066-3.867a2.88,2.88,0,0,0,.518-0.85,0.858,0.858,0,0,0-.412-1.046,0.843,0.843,0,0,0-1.085.267c-0.088.127-.23,0.337-0.4,0.609a3.186,3.186,0,0,1-1.438.815,2.345,2.345,0,0,1-2.069-.189,0.767,0.767,0,0,1-.262-0.728c0.064-.6,1.928-1.639,3.552-2.161a0.858,0.858,0,0,0-.091-1.655c-0.033-.006-3.243-0.661-5.3-1.271a1.116,1.116,0,0,1-.831-1.059,1.921,1.921,0,0,1,.813-1.79c1.091-.569,2.282-0.306,6.649.778l0.934,0.23a25.934,25.934,0,0,1,11.392,6.151c1.4,1.236,2.955,4.737,3.079,8.786,0.1,3.22-.767,5.919-2.443,7.6-4.444,4.459-11.555,5.265-11.626,5.274a0.843,0.843,0,0,0-.679.487,0.86,0.86,0,0,0,.06.839c0.506,0.764,12.441,18.785,17.466,21.719,4.63,2.7,15.558,7.063,17.214,7.718a4.717,4.717,0,0,0-.008,1.176,4.586,4.586,0,0,0,.8,2.079,4.371,4.371,0,0,0-2.475,1.183,3.558,3.558,0,0,0-1.061,3.635,3.276,3.276,0,0,0,.49.932C168.693,175.115,156.269,175.312,146.482,175.574Zm44.263-.471a0.859,0.859,0,0,0-.548.543c-0.141.113-.845,0.559-3.351,0.625a14.679,14.679,0,0,1-5.457-.595,0.8,0.8,0,0,0-.227-0.066l-3.465-.492c-1.351-.195-2.308-0.772-2.56-1.548a1.863,1.863,0,0,1,.637-1.875,3.661,3.661,0,0,1,3-.73,7.616,7.616,0,0,1,.808.138,5.829,5.829,0,0,0,.637.169,0.857,0.857,0,0,0,.445-1.65c-0.038-.012-0.271-0.089-0.633-0.175a2.968,2.968,0,0,1-2.086-2.455,2.766,2.766,0,0,1,1.43-2.859c1.573-.785,3.083-0.419,5.334,3.919a0.847,0.847,0,0,0,1.542-.079,3.143,3.143,0,0,1,2.24-2.1,3.5,3.5,0,0,1,3.15,1.235,1.6,1.6,0,0,1,.49,1.247c-0.064,1.42-1.658,3.1-2.265,3.631a0.832,0.832,0,0,0-.254.423,3.3,3.3,0,0,0-2.983-2.785,3.057,3.057,0,1,0,2.983,3.405c0.006-.057,0-0.11,0-0.167a0.868,0.868,0,0,0,.083.217,0.847,0.847,0,0,0,1.04.351,2.026,2.026,0,0,1,1.306-.1,0.45,0.45,0,0,1,.232.33C192.509,174.5,190.763,175.1,190.745,175.1Zm-2.822-2.264a1.684,1.684,0,1,1-1.486-1.507A1.51,1.51,0,0,1,187.923,172.839ZM93.433,147.5c-2.159-.247-3.987.764-4.161,2.3s1.382,2.942,3.541,3.19,3.986-.767,4.16-2.306S95.591,147.751,93.433,147.5Zm-0.428,3.789c-1.32-.151-2.092-0.866-2.044-1.29s0.96-.945,2.279-0.794,2.091,0.864,2.043,1.289S94.325,151.445,93.005,151.292ZM113.7,120.151a1.186,1.186,0,1,0-1.035-1.313A1.179,1.179,0,0,0,113.7,120.151ZM125.729,114a1.176,1.176,0,1,0-1.3,1.044A1.184,1.184,0,0,0,125.729,114Zm1.442-11.025a2.177,2.177,0,0,0,1.691-1,1.143,1.143,0,0,0,.055-1.139,2.911,2.911,0,0,1-.126-0.42A9.847,9.847,0,0,0,128.315,99a1.76,1.76,0,0,0-2.46-1.075,1.526,1.526,0,0,0-1.18,1.549,0.858,0.858,0,0,0-.191.725,7.35,7.35,0,0,0,.638,1.7,1.7,1.7,0,0,0,1.319,1.122,2.061,2.061,0,0,0,.567-0.023A0.79,0.79,0,0,1,127.171,102.976Zm-0.435-1.672a1.924,1.924,0,0,1-.092-0.169,7.452,7.452,0,0,1-.438-1.074,0.869,0.869,0,0,0,.182-0.511c0.084-.026.192-0.052,0.269-0.067a1.735,1.735,0,0,1,.1.2,8.494,8.494,0,0,1,.393,1.18c0.034,0.127.065,0.245,0.1,0.351a0.426,0.426,0,0,1-.087.045A2.673,2.673,0,0,0,126.736,101.3Zm4.5,4.247a10.112,10.112,0,0,0-.476-1.418,1.762,1.762,0,0,0-2.461-1.077,1.527,1.527,0,0,0-1.179,1.548,0.865,0.865,0,0,0-.193.727,7.616,7.616,0,0,0,.64,1.7,1.689,1.689,0,0,0,1.317,1.121,2.034,2.034,0,0,0,.569-0.024,1.246,1.246,0,0,1,.16-0.019,2.17,2.17,0,0,0,1.692-1,1.145,1.145,0,0,0,.056-1.141A3.2,3.2,0,0,1,131.237,105.551Zm-1.627.846a2.684,2.684,0,0,0-.429.042,1.556,1.556,0,0,1-.091-0.168,7.507,7.507,0,0,1-.435-1.061,0.859,0.859,0,0,0,.182-0.525c0.085-.024.189-0.05,0.265-0.064a1.411,1.411,0,0,1,.1.2A8.318,8.318,0,0,1,129.6,106c0.034,0.127.066,0.244,0.1,0.352A0.321,0.321,0,0,1,129.61,106.4Zm5.67,16.715a1.693,1.693,0,0,0,1.319,1.122,2.058,2.058,0,0,0,.567-0.023,0.93,0.93,0,0,1,.163-0.021,2.173,2.173,0,0,0,1.691-1,1.141,1.141,0,0,0,.055-1.138,2.911,2.911,0,0,1-.126-0.42,9.855,9.855,0,0,0-.476-1.418,1.762,1.762,0,0,0-2.461-1.076,1.524,1.524,0,0,0-1.178,1.549,0.858,0.858,0,0,0-.193.725A7.478,7.478,0,0,0,135.28,123.112Zm1.269-2.349c0.085-.022.19-0.049,0.266-0.064a1.56,1.56,0,0,1,.1.2,8.318,8.318,0,0,1,.392,1.178c0.035,0.127.067,0.246,0.1,0.353a0.455,0.455,0,0,1-.088.045,2.655,2.655,0,0,0-.428.041c-0.024-.039-0.054-0.092-0.092-0.168a7.631,7.631,0,0,1-.435-1.063A0.859,0.859,0,0,0,136.549,120.763Zm-7.407-21.639a7.412,7.412,0,0,0,.638,1.7,1.691,1.691,0,0,0,1.318,1.122,2.067,2.067,0,0,0,.568-0.023,0.93,0.93,0,0,1,.163-0.021,2.16,2.16,0,0,0,1.69-1,1.142,1.142,0,0,0,.057-1.138,2.907,2.907,0,0,1-.126-0.42,9.973,9.973,0,0,0-.477-1.421,1.763,1.763,0,0,0-2.461-1.077,1.528,1.528,0,0,0-1.179,1.552A0.861,0.861,0,0,0,129.142,99.124Zm1.9-.644c0.085-.024.192-0.052,0.27-0.067a1.621,1.621,0,0,1,.1.2,8.073,8.073,0,0,1,.394,1.181c0.035,0.127.066,0.243,0.1,0.35a0.36,0.36,0,0,1-.087.045,2.918,2.918,0,0,0-.429.041c-0.024-.038-0.054-0.092-0.092-0.168a7.531,7.531,0,0,1-.437-1.072A0.877,0.877,0,0,0,131.045,98.479Z" transform="translate(-50.969 -94)"/>
</svg>
