<svg xmlns="http://www.w3.org/2000/svg" width="113" height="166" viewBox="0 0 113 166">
  <metadata><?xpacket begin="﻿" id="W5M0MpCehiHzreSzNTczkc9d"?>
<x:xmpmeta xmlns:x="adobe:ns:meta/" x:xmptk="Adobe XMP Core 5.6-c138 79.159824, 2016/09/14-01:09:01        ">
   <rdf:RDF xmlns:rdf="http://www.w3.org/1999/02/22-rdf-syntax-ns#">
      <rdf:Description rdf:about=""/>
   </rdf:RDF>
</x:xmpmeta>
                                                                                                    
                                                                                                    
                                                                                                    
                                                                                                    
                                                                                                    
                                                                                                    
                                                                                                    
                                                                                                    
                                                                                                    
                                                                                                    
                                                                                                    
                                                                                                    
                                                                                                    
                                                                                                    
                                                                                                    
                                                                                                    
                                                                                                    
                                                                                                    
                                                                                                    
                                                                                                    
                           
<?xpacket end="w"?></metadata>
<defs>
    <style>
      .cls-1 {
        fill: #d29e24;
        fill-rule: evenodd;
      }
    </style>
  </defs>
  <path id="кот" class="cls-1" d="M880.462,428.606c-3.628-2.125-7.1-2.749-9.772-1.764-2.212.818-3.839,2.656-4.84,5.469-0.265.748-.506,1.459-0.735,2.135-1.81,5.349-2.72,8.033-9.141,8.941-5.076.716-9.422,1.331-16.255-3.184-0.022-5.929-2.711-13.171-3.744-15.943l-0.332-.888c-0.793-2.1-1.477-3.911-3.174-13.251-1.784-9.8-4.762-30.975-4.993-32.621,2.7-3.146,7.241-8.506,7.97-9.868l0.45-.84-0.876-.361c-0.9-.366-1.956-0.9-3.176-1.519a91.55,91.55,0,0,0-10.315-4.57l-1.216-23.274c1.037-.629,3.244-2.283,2.805-4.728a3.159,3.159,0,0,0-1.573-2.292L821.208,328l-1.666.281,0.214,1.31a6.42,6.42,0,0,0-2.093.324,5.324,5.324,0,0,0-.361-3.481,3.581,3.581,0,0,0-2.832-1.817,3.461,3.461,0,0,0-.7-0.028l-0.781-2.35-1.6.545,0.786,2.362c-0.083.057-.172,0.1-0.251,0.168a6.342,6.342,0,0,0-1.847,3.466,3.869,3.869,0,0,0-2.479-.571,2.945,2.945,0,0,0-.492.14l-1.018-1.942-1.492.8,1.1,2.1a5.024,5.024,0,0,0-.683.969,3.393,3.393,0,0,0-.246,3.114,5.539,5.539,0,0,0,3.36,2.556v14.311a47.861,47.861,0,0,0-10.768,1.627c-0.422.128-.819,0.264-1.2,0.4a8.7,8.7,0,0,0-4.8,2.424,13.627,13.627,0,0,0-1.838,1.535l0.468-22.611c1.413-.565,4.873-2.279,4.873-5.524a2.421,2.421,0,0,0-1.031-2.131,2.732,2.732,0,0,0-.715-0.326l-0.758-2.554-1.618.491,0.562,1.894a11.226,11.226,0,0,0-2.42.485,6.128,6.128,0,0,0-1.248-3.942,4.238,4.238,0,0,0-3.469-1.347v-1.331h-1.69v1.624a4.142,4.142,0,0,0-2.049,1.4,6.033,6.033,0,0,0-1.052,3.75,11.045,11.045,0,0,0-3.364-.27l-0.318-1.482-1.65.365,0.324,1.509a3.725,3.725,0,0,0-2.064,1.964,3.235,3.235,0,0,0-.04,2.62c0.855,2.067,3.636,3.48,4.915,4.038-0.241,2.416-1.1,11.418-1.733,23.084-0.743,13.7.265,21.333,0.3,21.5-0.009.2-.82,19.654-0.448,35.165,0.342,14.42,2.126,20.132,2.471,21.109,0.083,2.014,1.3,23.8,15.151,39.815-1.629,2.178-2.236,4.036-1.807,5.536a3.833,3.833,0,0,0,2.64,2.5c1.31,0.438,3.09-.594,4.282-1.471a3.864,3.864,0,0,0,3.632,2.875c0.114,0.009.226,0.012,0.335,0.012a5.221,5.221,0,0,0,4.441-2.95c1.1,0.831,3.031,1.878,4.946.878,2.327-1.216,1.728-4.49.968-6.338-0.443-5.9-.737-21.549,3.058-25.446A0.253,0.253,0,0,1,815.63,451c0.093,0.017.946,0.281,2.435,3.871,1.392,3.351,6.079,18.341,7,21.289-0.8.848-2.41,2.91-1.542,5.1a3.1,3.1,0,0,0,2.415,1.994,4.963,4.963,0,0,0,3.72-1.018,4.03,4.03,0,0,0,1.886,2.412,3.5,3.5,0,0,0,3.06-.2,4.079,4.079,0,0,0,2.231-2.308,5.037,5.037,0,0,0,3.88.85c2.792-.6,2.244-4.151,1.715-7.588-0.109-.711-0.221-1.432-0.3-2.128-0.348-2.941-.516-9.74-0.571-12.451,1.014,0.21,2.054.4,3.14,0.539a78.2,78.2,0,0,0,10.088.7c16.8,0,23.957-6.584,26.856-10.982,2.762-4.19,3.882-11.07,2.664-16.358C883.628,431.8,882.3,429.684,880.462,428.606Zm-70.65-94-0.66-.151c-0.635-.144-2.386-0.745-2.852-1.786a1.75,1.75,0,0,1,.2-1.585,1.988,1.988,0,0,1,1.338-1.19,3.256,3.256,0,0,1,2.262,1.009l1.307,1.307,0.132-1.851c0.053-.748.416-2.874,1.452-3.727a1.524,1.524,0,0,1,1.256-.33,1.939,1.939,0,0,1,1.578.948,4.865,4.865,0,0,1-.286,3.825l-1.081,2.375,2.26-1.271c1.5-.845,3.051-1.123,3.934-0.7a1.468,1.468,0,0,1,.808,1.166c0.326,1.818-2.351,3.148-2.379,3.16l-0.506.25,1.236,23.671c-1.412-.489-2.91-0.982-4.575-1.473,1.86-5.34,1.916-7.04,1.916-7.222v-0.818l-0.808-.036c-0.226-.014-2.956-0.129-6.525,0Zm-7.793,33.808a7.584,7.584,0,0,1,.986-1.42,8.511,8.511,0,0,0,1.09-1.04,10.068,10.068,0,0,1,6.276-2.116c5.05,0,9.159,3.468,9.159,7.733s-4.109,7.734-9.159,7.734c-5.017,0-9.1-3.421-9.153-7.647Zm0.9-3.69a10.088,10.088,0,0,0-1.082,1.033,7.051,7.051,0,0,1-4.3,1.473,6.833,6.833,0,0,1-6.953-6.689,6.522,6.522,0,0,1,1.9-4.567,18.483,18.483,0,0,1,4.061-2.027,7.214,7.214,0,0,1,.993-0.1,6.833,6.833,0,0,1,6.953,6.69A6.468,6.468,0,0,1,802.923,364.727Zm77.309,85.406c-3.2,4.864-12.059,12.568-35.323,9.539-21.268-2.771-27.751-19.932-27.813-20.1l-1.588.588a35.786,35.786,0,0,0,24.347,20.284c0.046,2.367.21,9.814,0.594,13.043,0.084,0.716.2,1.455,0.31,2.189,0.487,3.154.742,5.406-.4,5.651-1.943.41-3.509-1.371-3.523-1.389l-0.754-.866a4.083,4.083,0,0,0,.844-0.271,2.54,2.54,0,0,0,1.573-1.906c0.219-1.567-1.311-3.039-3.482-3.353s-4.044.672-4.266,2.237,1.308,3.037,3.481,3.353a5.781,5.781,0,0,0,.794.055c0.04,0,.077-0.01.117-0.01l0.22,1.462a2.175,2.175,0,0,1-1.46,2.258,1.991,1.991,0,0,1-1.638.215c-0.538-.258-1-1.135-1.386-2.6l-0.4-1.543-1.048,1.192a3.833,3.833,0,0,1-3.207,1.423,1.436,1.436,0,0,1-1.137-.946c-0.66-1.669,1.465-3.555,1.487-3.574l0.42-.37-0.164-.534c-0.232-.74-5.641-18.165-7.209-21.941-1.3-3.136-2.433-4.643-3.667-4.888a1.87,1.87,0,0,0-1.755.607c-5.149,5.286-3.6,26.04-3.529,26.922l0.067,0.275c0.015,0.033,1.407,3.465-.138,4.271-1.728.9-3.841-1.319-3.863-1.341l-0.977-1.038-0.439,1.361c-0.009.03-.963,2.9-3.337,2.9-0.071,0-.141,0-0.212-0.009a2.51,2.51,0,0,1-2.285-2.74l0.09-2.038-1.5,1.364c-1.307,1.19-3.155,2.331-3.8,2.094a2.242,2.242,0,0,1-1.553-1.357c-0.208-.728-0.04-2.107,1.939-4.555l0.46-.566-0.486-.546c-14.494-16.283-15.189-39.171-15.193-39.4l-0.06-.3c-0.02-.05-2.045-5.423-2.407-20.662-0.371-15.455.439-34.859,0.439-35.207-0.009-.075-1.026-7.814-0.293-21.326,0.738-13.586,1.782-23.538,1.792-23.64l0.069-.661-0.617-.229c-1.045-.391-3.9-1.752-4.554-3.345a1.49,1.49,0,0,1,.019-1.251c1.141-2.535,6.16-.85,6.209-0.833l1.407,0.5-0.3-1.473c0-.024-0.437-2.328.6-3.685a2.939,2.939,0,0,1,2.347-1.041,2.672,2.672,0,0,1,2.26.777c0.96,1.091.872,3.189,0.757,3.9l-0.241,1.5,1.392-.572c1.422-.584,3.8-1.158,4.614-0.6a0.725,0.725,0,0,1,.284.712c0,2.729-4.224,4.09-4.266,4.1l-0.583.183-0.763,36.857,1.69,0.036,0.127-6.131a8.548,8.548,0,0,0,6.254,5.564,11.445,11.445,0,0,1,.052,2.714,1.992,1.992,0,0,1-1.072-.039,0.834,0.834,0,0,0-.859.268,0.864,0.864,0,0,0-.137.9,7.967,7.967,0,0,0,3.587,3.768,0.84,0.84,0,0,0,.934-0.161,0.868,0.868,0,0,0,.2-0.941c-0.64-1.582-.786-2.467-0.433-2.629a3.99,3.99,0,0,1,1.676-.224c0.468,4.834,5.13,8.648,10.8,8.648,5.982,0,10.849-4.237,10.849-9.445s-4.867-9.442-10.849-9.442a12.126,12.126,0,0,0-4.621.912,8.051,8.051,0,0,0,.435-2.5,8.411,8.411,0,0,0-5.319-7.75,77.384,77.384,0,0,1,14.469-.936,47.879,47.879,0,0,1-2,6.675l-0.31.864,0.874,0.251a88.887,88.887,0,0,1,17.185,6.792c0.859,0.434,1.635.827,2.35,1.161-1.605,2.195-6.121,7.514-9.167,11.013l1.268,1.129,0.471-.543c0.748,5.285,3.232,22.618,4.8,31.232,1.726,9.493,2.436,11.373,3.258,13.55l0.33,0.879c0.931,2.5,3.249,8.743,3.594,14.118a76.077,76.077,0,0,1-9.484-8.639l-1.215,1.189c14.832,15.54,21.048,14.665,29,13.539,7.367-1.041,8.583-4.631,10.423-10.067,0.227-.67.464-1.374,0.727-2.113,0.823-2.31,2.11-3.8,3.83-4.438,2.191-.81,5.159-0.233,8.342,1.634,1.8,1.058,2.649,3.319,3.043,5.028C883.759,439.9,882.717,446.361,880.232,450.133Zm-45.758,27.3c-1.343-.194-2.108-0.97-2.045-1.419,0.055-.383.756-0.826,1.8-0.826a3.779,3.779,0,0,1,.557.041c1.342,0.194,2.108.97,2.045,1.419a0.919,0.919,0,0,1-.594.591A3.259,3.259,0,0,1,834.474,477.435Zm-30.8-4.362-0.335,1.675a3.94,3.94,0,0,1,2.049,1.353,0.889,0.889,0,0,1,.219.847,1.279,1.279,0,0,1-1.2.5c-1.5,0-3.335-.56-3.776-1.15a0.171,0.171,0,0,1-.05-0.181c0.254-.9,1.662-0.82,1.675-0.82l0.118-1.706a3.169,3.169,0,0,0-3.416,2.055,1.9,1.9,0,0,0,.324,1.682c0.994,1.332,3.671,1.83,5.125,1.83a2.869,2.869,0,0,0,2.718-1.458,2.485,2.485,0,0,0-.4-2.645A5.589,5.589,0,0,0,803.673,473.073Zm-4.786-112.127a1.3,1.3,0,1,0,1.344,1.3A1.323,1.323,0,0,0,798.887,360.946Zm11.653,12.892a1.3,1.3,0,1,0-1.346-1.3A1.323,1.323,0,0,0,810.54,373.838Zm32.674-30.392,0.146,8.433a0.843,0.843,0,0,0,.052.282l1.548,4.227-0.7,18.673a0.882,0.882,0,0,0,.09.414l0.609,1.234c-0.149,2.777-1.614,30.164-1.9,43.161a0.854,0.854,0,0,0,.827.873H843.9a0.851,0.851,0,0,0,.845-0.838c0.3-13.6,1.89-43.032,1.906-43.328a0.842,0.842,0,0,0-.087-0.427l-0.613-1.241,0.3-7.875a0.882,0.882,0,0,0,.272.06,0.84,0.84,0,0,0,.764-0.491l4.264-9.154a0.836,0.836,0,0,0,.079-0.407l-0.43-8.429a0.841,0.841,0,0,0,.422-0.015,0.854,0.854,0,0,0,.6-0.911L851.1,337.036l0.533-.169a0.855,0.855,0,0,0,.591-0.9l-1.2-12.712a0.846,0.846,0,1,0-1.684.165l1.132,12.019-0.541.171a0.852,0.852,0,0,0-.589.906l0.842,7.984h0a0.745,0.745,0,0,0-.213.03,0.851,0.851,0,0,0-.63.869l0.588,11.514-3.59,7.707,0.314-8.337a0.906,0.906,0,0,0-.053-0.33l-1.392-3.8a0.834,0.834,0,0,0,.556.261,0.317,0.317,0,0,0,.044,0,0.849,0.849,0,0,0,.843-0.811l0.694-13.407c0.93-4.322,2.039-9.575,2.039-10.064a0.835,0.835,0,0,0-.808-0.836,0.941,0.941,0,0,0-.88.8c-0.049.547-1.255,6.265-2.02,9.877l-0.655,12.478-0.126-7.277a0.872,0.872,0,0,0-.135-0.451l-2.8-4.371,5.082-9.82a0.859,0.859,0,0,0-.271-1.1l-0.605-.423,5.131-6.623a0.865,0.865,0,0,0-.144-1.2,0.839,0.839,0,0,0-1.186.145l-5.686,7.341a0.855,0.855,0,0,0-.169.655,0.843,0.843,0,0,0,.355.575l0.729,0.509L840.238,338a0.865,0.865,0,0,0,.04.858Zm14.712,7.368a53.537,53.537,0,0,0-1.65,6.282,4.67,4.67,0,0,0,.446,3.222,4,4,0,0,1,.477,1.669,21.719,21.719,0,0,0,.81,4.337l-1.087,10.389-0.972,4.162a0.853,0.853,0,0,0,.527,1,0.844,0.844,0,0,0,1.044-.4,3.859,3.859,0,0,1,1.724-1.844,0.461,0.461,0,0,1,.429.178,6.409,6.409,0,0,1,1.939,3.538c0,0.559.58,4.018,0.759,5.063a0.849,0.849,0,0,0,.833.709h0.035a0.849,0.849,0,0,0,.807-0.778,55.32,55.32,0,0,1,1.017-6.947c0.379-1.3.955-1.353,0.93-1.356a0.832,0.832,0,0,0,.637-0.235,0.869,0.869,0,0,0,.261-0.633,13.06,13.06,0,0,1,2.151-7.074,0.862,0.862,0,0,0-.168-1.2,0.841,0.841,0,0,0-1.182.169,10.284,10.284,0,0,0-.8,1.277v-8.766L867.3,349.7l-0.866-15.875,1.4-9.923,1.01,2.759a0.843,0.843,0,0,0,.862.555l7.7-.661,2.506,1.8-0.89.3a0.845,0.845,0,0,0-.566.674,0.856,0.856,0,0,0,.324.818l3.245,2.473-2.109.31a0.847,0.847,0,0,0-.625.45,0.856,0.856,0,0,0-.01.776l2.951,6.034-4.6.919a0.85,0.85,0,0,0-.621.518l-1.4,3.5a0.835,0.835,0,0,0-.554.378l-0.239.383c0.725-7.839,1.773-15.5,1.791-15.623a0.854,0.854,0,0,0-.72-0.966,0.868,0.868,0,0,0-.954.728c-0.108.777-2.626,19.161-2.477,28.129,0.14,8.405-.923,10.509-0.921,10.509a0.859,0.859,0,0,0,.277,1.176,0.832,0.832,0,0,0,.443.127,0.843,0.843,0,0,0,.719-0.407c0.136-.224,1.322-2.442,1.172-11.435-0.01-.589-0.006-1.223.006-1.892a0.818,0.818,0,0,0,.266-0.216l2.187-2.855,3.17-1.407a0.847,0.847,0,0,0,.469-0.534,0.869,0.869,0,0,0-.1-0.71l-2.981-4.717,1.236-3.1,5.237-1.046a0.85,0.85,0,0,0,.594-0.459,0.865,0.865,0,0,0,0-.759l-2.924-5.979,2.962-.437a0.858,0.858,0,0,0,.385-1.53l-3.578-2.726,0.943-.32a0.859,0.859,0,0,0,.223-1.507l-4.114-2.958a0.851,0.851,0,0,0-.561-0.154l-7.364.632-1.946-5.325a0.844,0.844,0,0,0-1.254-.418l-2.638,1.743-2.891-2.276a0.837,0.837,0,0,0-.946-0.062,0.857,0.857,0,0,0-.408.865l0.375,2.5h-4.4a0.845,0.845,0,0,0-.74.441,0.864,0.864,0,0,0,.024.868l1.74,2.817v1.525a0.845,0.845,0,1,0,1.69,0v-1.77a0.852,0.852,0,0,0-.128-0.453l-1.061-1.719h3.259a0.877,0.877,0,0,0-.076.181l-1.545,7.477,0-.049a0.844,0.844,0,1,0-1.68.173l0.4,4.023-2.437,2.129a0.865,0.865,0,0,0-.113,1.173l1.989,2.578-2.737,3.561a0.861,0.861,0,0,0-.006,1.04Zm20.268-.219-2.463,1.092a0.87,0.87,0,0,0-.328.259l-1.146,1.495c0.064-1.268.153-2.609,0.258-3.98a0.828,0.828,0,0,0,.177-0.168l1.332-2.132Zm-20.252,6.78c0.144-.871.41-1.957,0.691-2.989l-0.012.328-0.168,5.32c-0.069-.164-0.14-0.315-0.207-0.456A2.993,2.993,0,0,1,857.942,357.375Zm2.369-2.6,0.448-11.587V332.961l1.7-8.237a0.856,0.856,0,0,0-.323-0.854,0.845,0.845,0,0,0,.181-0.659l-0.2-1.362,1.695,1.332a0.84,0.84,0,0,0,.981.04l1.584-1.045-1.617,11.574,0.858,15.971L865.2,363.547v12a0.845,0.845,0,0,0,.319.653,16.665,16.665,0,0,0-.3,2.309,3.538,3.538,0,0,0-1.778,2.392c-0.113.386-.22,0.874-0.32,1.408a8.545,8.545,0,0,0-2.295-3.757,2.118,2.118,0,0,0-1.868-.614,2.416,2.416,0,0,0-.643.212L858.584,377l0.243-2.312s0.009,0,.013,0h0.027a0.85,0.85,0,0,0,.844-0.829Zm-3.052-15.886,1.81-1.583v3.929Zm1.81,3.628v0.639l-0.234,6.042-2.419-3.227Zm20.925,32.6a0.863,0.863,0,0,0-.183-0.932l-3.474-3.515,2.028-.927a0.859,0.859,0,0,0-.089-1.593l-2.693-.876a0.842,0.842,0,0,0-1.062.55,0.854,0.854,0,0,0,.544,1.075l0.607,0.2-1.145.522a0.861,0.861,0,0,0-.25,1.385l2.9,2.929h-0.5a0.837,0.837,0,0,0-.663.325,0.86,0.86,0,0,0-.159.725s0.107,0.469.341,1.389a29.339,29.339,0,0,0-6.347-2.413,0.842,0.842,0,0,0-1.025.622,0.858,0.858,0,0,0,.615,1.037c1.671,0.422,6.284,1.871,7.548,3.485a0.842,0.842,0,0,0,.661.324,0.831,0.831,0,0,0,.382-0.093,0.858,0.858,0,0,0,.435-0.987c-0.317-1.174-.551-2.078-0.709-2.7h1.464A0.845,0.845,0,0,0,879.994,375.118Z" transform="translate(-772 -319)"/>
</svg>
