<svg xmlns="http://www.w3.org/2000/svg" width="115" height="79" viewBox="0 0 115 79">
  <metadata><?xpacket begin="﻿" id="W5M0MpCehiHzreSzNTczkc9d"?>
<x:xmpmeta xmlns:x="adobe:ns:meta/" x:xmptk="Adobe XMP Core 5.6-c138 79.159824, 2016/09/14-01:09:01        ">
   <rdf:RDF xmlns:rdf="http://www.w3.org/1999/02/22-rdf-syntax-ns#">
      <rdf:Description rdf:about=""/>
   </rdf:RDF>
</x:xmpmeta>
                                                                                                    
                                                                                                    
                                                                                                    
                                                                                                    
                                                                                                    
                                                                                                    
                                                                                                    
                                                                                                    
                                                                                                    
                                                                                                    
                                                                                                    
                                                                                                    
                                                                                                    
                                                                                                    
                                                                                                    
                                                                                                    
                                                                                                    
                                                                                                    
                                                                                                    
                                                                                                    
                           
<?xpacket end="w"?></metadata>
<defs>
    <style>
      .cls-1 {
        fill: #d29e24;
        fill-rule: evenodd;
      }
    </style>
  </defs>
  <path class="cls-1" d="M100.57,61.915a8.923,8.923,0,0,0,4.549.728l0.244-2.432a2.162,2.162,0,0,1-1.391-1.693,0.756,0.756,0,0,1,.367-0.648,4.668,4.668,0,0,1,2.981-.662,0.752,0.752,0,0,1,.6.918A3.191,3.191,0,0,1,106.9,60l-0.22,2.195a4.252,4.252,0,0,0,1.823-1.567,0.753,0.753,0,0,1,1.316.733,6.433,6.433,0,0,1-5.606,2.851,11.391,11.391,0,0,1-4.2-.9A0.753,0.753,0,1,1,100.57,61.915ZM62.844,100.531a4.705,4.705,0,0,1,3.356-.842c-1.2-1.326-1.536-2.889-2.113-6.136-0.788-4.433,3.094-6.7,6.393-8.488a21.139,21.139,0,0,1,1.837-5.882,7.147,7.147,0,0,1-2.99-1.639,4.637,4.637,0,0,1-1.28-3.616,13.138,13.138,0,0,1,4.175-8.581c6.988-5.928,8.84-8.619,9.163-9.831,0.363-1.361.384-4.708,0.405-8.251,0.02-3.158.04-6.423,0.29-9.005a0.752,0.752,0,0,1,.73-0.681c5.975-.149,15,1.627,17.407,2.128a23.742,23.742,0,0,1,4.566-6.484,0.755,0.755,0,0,1,.922-0.1c3.141,1.953,7.325,7.769,8.114,8.89a7.917,7.917,0,0,1,4.765,7.031,28.975,28.975,0,0,1,2.25,8.109c0.407,3.835-.733,9.288-1.026,10.594a7.535,7.535,0,0,1,4.072,3.545c2.11,3.868,2.512,10.1-.9,14.024a6.233,6.233,0,0,1-3.836,2.061c-0.442,2.327-1.131,6.114-1.68,9.155A17.47,17.47,0,0,0,127.785,93.4c4.639-3.439,4.621-4.095,4.449-10.377l-0.007-.238a8.228,8.228,0,0,1,2.143-6.134c2.528-2.656,6.5-3.025,8.086-3.06h0.133c4.351,0,8.559,4.778,9.228,10.519,0.621,5.318-3.286,13.588-10.682,17.676-5.367,2.967-11.812,4.461-19.214,4.461-1.433,0-2.911-.07-4.416-0.181-0.576,1.269-1.976,2.428-4.179,3.448-4.912,2.274-5.749,2.489-7.492,2.489a4.156,4.156,0,0,1-2.982-.857,14.614,14.614,0,0,1-2.155.173,4.731,4.731,0,0,1-3.375-.99,2.4,2.4,0,0,1-.547-0.969,3.322,3.322,0,0,1-1.94-1.39,2.557,2.557,0,0,1-.323-1.012,46.55,46.55,0,0,0-7.679-.717,12.407,12.407,0,0,1-4.492-1.232c-0.985.941-3.757,3.413-6.4,4.107a10.565,10.565,0,0,1-2.686.383,5.457,5.457,0,0,1-3.809-1.385,11.15,11.15,0,0,1-1.869.166c-1.383,0-3.008-.306-3.689-1.6a2.37,2.37,0,0,1-.266-0.9c-1.533-.45-2.41-1.156-2.6-2.106C60.832,102.677,61.443,101.621,62.844,100.531Zm48.106-57.594a6.419,6.419,0,1,0,6.143,6.414c0-.008,0-0.016,0-0.025a0.7,0.7,0,0,1-.012-0.244A6.272,6.272,0,0,0,110.949,42.937Zm10.894,41.392c2.857-3.289,2.606-8.844.714-12.313-1.981-3.634-6.023-3.439-7.543-3.37a2.88,2.88,0,0,0-2.089,1.705A2.289,2.289,0,0,0,113,72.57a8.856,8.856,0,0,1,3.414-1.648,0.753,0.753,0,0,1,.35,1.465c-0.839.2-3.258,1.056-3.366,2.29a2.446,2.446,0,0,0,.634,2.074,2.363,2.363,0,0,0,1.8.441c0-.167,0-0.329,0-0.478l0-.312c0-1.969,2.849-2.713,3.174-2.792a0.753,0.753,0,1,1,.352,1.465c-0.682.166-2.02,0.74-2.02,1.327l0,0.326c-0.014,1.544.075,2.051,1.194,2.15,1.566,0.135,2.654-.525,2.866-1.721a0.753,0.753,0,0,1,1.482.264,3.682,3.682,0,0,1-3.949,2.98c-0.172,0-.349-0.008-0.529-0.023a2.43,2.43,0,0,1-2.363-1.694c-0.2.02-.392,0.032-0.572,0.032a3.551,3.551,0,0,1-2.436-.837,3.3,3.3,0,0,1-.334-0.388,4.167,4.167,0,0,0-.455,5.018,6.694,6.694,0,0,0,5.084,3.4A4.957,4.957,0,0,0,121.843,84.329Zm18.564,16.137c6.849-3.785,10.479-11.347,9.914-16.182-0.58-4.975-4.2-9.239-7.832-9.187-1.4.03-4.889,0.345-7.027,2.593a6.767,6.767,0,0,0-1.729,5.054l0.006,0.236c0.176,6.394.212,7.725-5.057,11.63A18.789,18.789,0,0,1,117.2,98.03c-0.292,1.621-.509,2.837-0.565,3.15a3.547,3.547,0,0,0,.582,1.676,3.4,3.4,0,0,1,.587,1.71C126.7,105.205,134.3,103.841,140.407,100.466Zm-77.9,2.916a1.981,1.981,0,0,0,1.449.922A6.41,6.41,0,0,1,66.332,102a0.753,0.753,0,0,1,.753,1.305c-0.026.014-2.48,1.5-1.86,2.677,0.416,0.792,2.036.863,3.292,0.739a2.521,2.521,0,0,1,.2-1.756c0.688-1.368,2.439-2.039,4.705-1.79a0.751,0.751,0,0,1,.666.83,0.736,0.736,0,0,1-.83.666c-1.607-.171-2.8.186-3.194,0.969a1,1,0,0,0,.157,1.16c1.14,1.226,2.888,1.51,5.346.862a14.953,14.953,0,0,0,5.263-3.3c-2.876-1.291-5.7-2.816-6.236-3.106a0.753,0.753,0,0,1,.718-1.325c3.559,1.934,9.787,4.931,11.4,4.813a44.733,44.733,0,0,1,7.978.72c0.026-.079.038-0.155,0.068-0.237,0.748-1.98,3.509-2.195,5.831-1.994-0.743-5.222,1.124-9,5.7-11.539a5.864,5.864,0,0,1,4.805-.681,6.506,6.506,0,0,1,3.5,3.272,0.752,0.752,0,0,1-1.373.616,5.044,5.044,0,0,0-2.615-2.463,4.459,4.459,0,0,0-3.589.573c-4.133,2.288-5.683,5.607-4.875,10.416,0.915,0.151,1.615.321,1.835,0.378a0.753,0.753,0,0,1-.377,1.458c-2.154-.557-6.806-1.169-7.437.5a1.661,1.661,0,0,0-.033,1.437,1.581,1.581,0,0,0,.709.584c0.032-.091.064-0.183,0.107-0.273,0.671-1.407,2.305-2.162,4.386-2.022a0.753,0.753,0,0,1-.1,1.5c-1.683-.114-2.62.528-2.924,1.168a1,1,0,0,0,.123,1.15c0.522,0.564,2.419.577,3.859,0.4a4.128,4.128,0,0,1,.356-1.608c1.323-3.2,3.334-2.606,3.419-2.579a0.769,0.769,0,0,1,.51.95,0.739,0.739,0,0,1-.928.5c-0.28-.045-0.994.224-1.609,1.71a1.652,1.652,0,0,0-.162,1.362c0.206,0.308.866,0.463,1.963,0.463,1.415,0,1.987-.093,6.859-2.349A7.262,7.262,0,0,0,116,105.7a0.73,0.73,0,0,1,.287-1.127,1.882,1.882,0,0,0-.323-0.879,4.983,4.983,0,0,1-.839-2.574,0.79,0.79,0,0,1,.011-0.128c0.017-.094,1.621-9.077,2.468-13.558-0.151-.009-0.3-0.009-0.453-0.027a8.243,8.243,0,0,1-6.243-4.213A5.676,5.676,0,0,1,112,76.086c0.006-.005.016-0.007,0.023-0.012a4.81,4.81,0,0,1-.121-1.528,2.5,2.5,0,0,1,.18-0.718,0.721,0.721,0,0,1-.116-0.1,3.782,3.782,0,0,1-.405-4.01,4.3,4.3,0,0,1,3.385-2.577,13.565,13.565,0,0,1,3.412.2c0.3-1.379,1.349-6.536.979-10.023a25.331,25.331,0,0,0-1.206-5.257,7.675,7.675,0,0,1-7.18,5.213,7.543,7.543,0,0,1-6.008-3.035,8.016,8.016,0,1,1-7.853-9.746,7.88,7.88,0,0,1,6.364,3.295,7.736,7.736,0,0,1,7.5-6.353c0.2,0,.4.016,0.6,0.032a37.123,37.123,0,0,0-6.147-6.725,23.019,23.019,0,0,0-4.057,6.125,0.753,0.753,0,0,1-.856.444c-0.105-.023-10.241-2.23-16.917-2.23H83.52c-0.188,2.4-.207,5.345-0.225,8.2-0.022,3.8-.043,7.083-0.456,8.631-0.567,2.123-3.63,5.488-9.644,10.591a11.619,11.619,0,0,0-3.644,7.472,3.28,3.28,0,0,0,.808,2.479c2.2,2.075,6.148,1.875,8.882.813,2.065-.8,4.1-2.253,5.105-7.225a3.537,3.537,0,0,1-2.415,1.209c-1.463,0-3.123,0-4.056-1.635-0.988-1.729,1.074-3.673,1.313-3.888a0.753,0.753,0,0,1,1.01,1.117c-0.447.407-1.324,1.485-1.016,2.023,0.476,0.836,1.271.874,2.748,0.874a2.092,2.092,0,0,0,1.653-1.273c0.317-.9-0.445-1.754-1.14-2.314a0.753,0.753,0,0,1,.945-1.173c1.637,1.319,1.86,2.572,1.744,3.423a0.472,0.472,0,0,0,.3.064,1.867,1.867,0,0,0,1.049-.99c1.055-1.733-1.709-3.79-1.736-3.811a0.753,0.753,0,0,1,.887-1.217,7.09,7.09,0,0,1,2.507,3.4c0.758,0.048,1.826-.04,2.074-0.6,0.493-1.1-.148-3.3-1.292-4.445-1.182-1.182-3.818-1.812-5.041-1.2-1.18.59-3.3,3.387-4.018,4.415a0.752,0.752,0,1,1-1.235-.86c0.286-.411,2.846-4.035,4.581-4.9,1.985-.992,5.276-0.019,6.778,1.485A6.466,6.466,0,0,1,91.739,65.4a1.758,1.758,0,0,1,1.3.691,1.991,1.991,0,0,1-.14,2.136,3.252,3.252,0,0,1-2.123,1.7,3.475,3.475,0,0,1-.83.1,5.171,5.171,0,0,1-2.811-.925,2.625,2.625,0,0,1-1.228.786c-0.884,4.815-2.722,7.468-6.115,8.784a13.226,13.226,0,0,1-4.705.892,11.1,11.1,0,0,1-1.244-.077,0.406,0.406,0,0,1-.012.044,19.907,19.907,0,0,0-1.889,6.084,0.754,0.754,0,0,1-.392.6c-3.865,2.088-6.556,3.821-5.976,7.088,0.7,3.933.992,4.889,2.5,6.08a0.747,0.747,0,0,1,.263.762,12.106,12.106,0,0,1,2.058.876,0.753,0.753,0,1,1-.739,1.311c-1.072-.605-4.224-1.888-5.883-0.6C62.752,102.511,62.45,103.1,62.506,103.382ZM97.088,46a6.771,6.771,0,1,0,6.481,6.764A6.635,6.635,0,0,0,97.088,46Zm-5.863,20.89a0.747,0.747,0,0,1-.431-0.093,4.206,4.206,0,0,1-2.291.58c-0.129,0-.251,0-0.364-0.011a3.151,3.151,0,0,1-.168.487,3.339,3.339,0,0,0,2.447.609,1.739,1.739,0,0,0,1.15-.95,2.672,2.672,0,0,0,.227-0.561A1.2,1.2,0,0,0,91.226,66.887ZM100.5,56.733a1.107,1.107,0,1,1,1.064-1.107A1.086,1.086,0,0,1,100.5,56.733Zm12.831-2.865a1.107,1.107,0,1,1,1.064-1.107A1.087,1.087,0,0,1,113.333,53.868Zm33.018-2.277h-7.814c-0.329.21-.59,0.386-0.781,0.535a3.194,3.194,0,0,0-1.472,2.553,2.558,2.558,0,0,0,1.107,2.175,4,4,0,0,0,2.41.718,4.92,4.92,0,0,0,3.75-1.551,5.973,5.973,0,0,0,1.5-2.97h0.483v5.536h-0.483a0.908,0.908,0,0,0-.794-1,8.753,8.753,0,0,0-2.167.5,8.849,8.849,0,0,1-2.559.5,5.873,5.873,0,0,1-3.856-1.316,4.639,4.639,0,0,1-1.211-5.679h-1.146V50.523h1.928a5.433,5.433,0,0,1,.612-0.547,23.2,23.2,0,0,1,3.008-1.836h-5.548V47.072h7.449a12.389,12.389,0,0,0,1.863-1.276,2.621,2.621,0,0,0,1-1.928,2.421,2.421,0,0,0-.99-1.98,3.315,3.315,0,0,0-2.136-.73,4.493,4.493,0,0,0-3.5,1.525A5.52,5.52,0,0,0,135.62,45.7h-0.482V40.115h0.482a1.014,1.014,0,0,0,.9,1.016,8.047,8.047,0,0,0,1.648-.508,7.018,7.018,0,0,1,2.363-.508,5.413,5.413,0,0,1,3.609,1.251,4.24,4.24,0,0,1,1.562,3.4,4.192,4.192,0,0,1-.665,2.306h1.316V48.14h-2.24c-0.13.113-.247,0.212-0.352,0.3a23.1,23.1,0,0,1-2.995,1.862l-0.4.222h5.99v1.068Zm12.522-11.732h-4.149c-0.175.111-.314,0.206-0.415,0.284a1.7,1.7,0,0,0-.782,1.356,1.357,1.357,0,0,0,.588,1.154,2.127,2.127,0,0,0,1.28.381,2.61,2.61,0,0,0,1.991-.824,3.164,3.164,0,0,0,.8-1.576h0.257v2.94h-0.257a0.483,0.483,0,0,0-.422-0.533,4.608,4.608,0,0,0-1.15.267,4.747,4.747,0,0,1-1.36.267,3.123,3.123,0,0,1-2.047-.7,2.463,2.463,0,0,1-.643-3.016h-0.608V39.292h1.023A3.054,3.054,0,0,1,153.3,39a12.359,12.359,0,0,1,1.6-.977h-2.945V37.458h3.955a6.437,6.437,0,0,0,.989-0.678,1.389,1.389,0,0,0,.533-1.023,1.288,1.288,0,0,0-.526-1.052,1.766,1.766,0,0,0-1.134-.388,2.393,2.393,0,0,0-1.861.809,2.933,2.933,0,0,0-.732,1.605h-0.257V33.764h0.257a0.538,0.538,0,0,0,.477.54,4.381,4.381,0,0,0,.875-0.269,3.7,3.7,0,0,1,1.254-.271,2.876,2.876,0,0,1,1.917.665,2.351,2.351,0,0,1,.477,3.029h0.7v0.567h-1.19c-0.069.061-.131,0.114-0.187,0.16a12.279,12.279,0,0,1-1.59.989l-0.214.118h3.181v0.567Zm17.114,9.77h-5.373q-0.34.215-.538,0.368a2.2,2.2,0,0,0-1.011,1.755,1.756,1.756,0,0,0,.761,1.5,2.742,2.742,0,0,0,1.657.494,3.38,3.38,0,0,0,2.578-1.067,4.109,4.109,0,0,0,1.03-2.042h0.332v3.807h-0.332a0.625,0.625,0,0,0-.546-0.69,6,6,0,0,0-1.491.345,6.094,6.094,0,0,1-1.759.345,4.039,4.039,0,0,1-2.651-.905,3.187,3.187,0,0,1-.833-3.905h-0.788V48.893h1.325a3.886,3.886,0,0,1,.421-0.376,16.08,16.08,0,0,1,2.068-1.263h-3.814V46.521h5.122a8.481,8.481,0,0,0,1.281-.878,1.8,1.8,0,0,0,.69-1.326,1.666,1.666,0,0,0-.681-1.361,2.282,2.282,0,0,0-1.469-.5,3.088,3.088,0,0,0-2.409,1.048,3.792,3.792,0,0,0-.949,2.078h-0.332V41.738h0.332a0.7,0.7,0,0,0,.618.7,5.558,5.558,0,0,0,1.133-.349,4.828,4.828,0,0,1,1.625-.349,3.719,3.719,0,0,1,2.48.86,2.917,2.917,0,0,1,1.075,2.338,2.888,2.888,0,0,1-.457,1.586h0.905v0.734h-1.541l-0.241.207a15.989,15.989,0,0,1-2.06,1.281l-0.277.151h4.119v0.735Z" transform="translate(-61 -33)"/>
</svg>
