<svg xmlns="http://www.w3.org/2000/svg" width="129.031" height="89.03" viewBox="0 0 129.031 89.03">
  <metadata><?xpacket begin="﻿" id="W5M0MpCehiHzreSzNTczkc9d"?>
<x:xmpmeta xmlns:x="adobe:ns:meta/" x:xmptk="Adobe XMP Core 5.6-c138 79.159824, 2016/09/14-01:09:01        ">
   <rdf:RDF xmlns:rdf="http://www.w3.org/1999/02/22-rdf-syntax-ns#">
      <rdf:Description rdf:about=""/>
   </rdf:RDF>
</x:xmpmeta>                     
<?xpacket end="w"?></metadata>
<defs>
    <style>
      .cls-1 {
        fill: #d29e24;
        fill-rule: evenodd;
      }
    </style>
  </defs>
  <path id="кот" class="cls-1" d="M422.4,1804.56a10.035,10.035,0,0,0,5.1.82l0.274-2.74a2.439,2.439,0,0,1-1.561-1.91,0.846,0.846,0,0,1,.411-0.73,5.26,5.26,0,0,1,3.345-.75,0.847,0.847,0,0,1,.673,1.04,3.61,3.61,0,0,1-1.146,2.11l-0.247,2.47a4.765,4.765,0,0,0,2.046-1.77,0.847,0.847,0,0,1,1.476.83,7.218,7.218,0,0,1-6.29,3.21,12.668,12.668,0,0,1-4.71-1.01,0.846,0.846,0,0,1-.473-1.1A0.834,0.834,0,0,1,422.4,1804.56Zm-42.33,43.52a5.223,5.223,0,0,1,3.766-.95c-1.345-1.5-1.723-3.26-2.371-6.92-0.884-5,3.472-7.55,7.174-9.56a23.778,23.778,0,0,1,2.061-6.63,8.061,8.061,0,0,1-3.355-1.85,5.239,5.239,0,0,1-1.437-4.08,14.851,14.851,0,0,1,4.684-9.67c7.841-6.68,9.919-9.71,10.281-11.08,0.408-1.53.431-5.3,0.455-9.29,0.022-3.56.045-7.24,0.325-10.15a0.846,0.846,0,0,1,.819-0.77c6.7-.17,16.827,1.83,19.531,2.4a26.677,26.677,0,0,1,5.123-7.31,0.837,0.837,0,0,1,1.034-.11c3.525,2.2,8.22,8.75,9.1,10.02a8.9,8.9,0,0,1,5.345,7.92,32.788,32.788,0,0,1,2.525,9.14c0.457,4.32-.822,10.47-1.151,11.94a8.465,8.465,0,0,1,4.568,3.99c2.368,4.36,2.819,11.38-1.008,15.81a6.976,6.976,0,0,1-4.3,2.32c-0.5,2.62-1.269,6.89-1.884,10.32a19.51,19.51,0,0,0,11.58-3.53c5.2-3.88,5.185-4.62,4.991-11.7l-0.008-.27a9.3,9.3,0,0,1,2.405-6.91c2.837-2.99,7.289-3.41,9.073-3.45h0.148c4.882,0,9.6,5.39,10.355,11.86,0.7,5.99-3.687,15.31-11.985,19.92-6.023,3.34-13.254,5.03-21.559,5.03-1.608,0-3.267-.08-4.955-0.21-0.646,1.43-2.217,2.74-4.689,3.89-5.511,2.56-6.451,2.8-8.406,2.8a4.653,4.653,0,0,1-3.346-.96,16.754,16.754,0,0,1-2.418.19c-1.409,0-2.969-.23-3.786-1.11a2.7,2.7,0,0,1-.614-1.1,3.731,3.731,0,0,1-2.176-1.56,2.91,2.91,0,0,1-.363-1.14c-0.187-.03-6.072-1.02-8.616-0.81a13.953,13.953,0,0,1-5.04-1.39c-1.105,1.06-4.215,3.85-7.177,4.63a11.732,11.732,0,0,1-3.013.43,6.105,6.105,0,0,1-4.274-1.56,12.64,12.64,0,0,1-2.1.19c-1.552,0-3.376-.35-4.139-1.81a2.661,2.661,0,0,1-.3-1.01c-1.72-.51-2.7-1.3-2.915-2.38C377.811,1850.49,378.5,1849.3,380.068,1848.08Zm53.976-64.91a7.233,7.233,0,1,0,6.892,7.23c0-.01,0-0.02,0-0.03a0.864,0.864,0,0,1-.013-0.28A7.051,7.051,0,0,0,434.044,1783.17Zm12.222,46.65c3.206-3.71,2.924-9.97.8-13.88-2.223-4.1-6.758-3.88-8.463-3.8a3.229,3.229,0,0,0-2.344,1.92,2.586,2.586,0,0,0,.087,2.5,9.912,9.912,0,0,1,3.831-1.85,0.841,0.841,0,0,1,1.016.62,0.854,0.854,0,0,1-.624,1.03c-0.941.23-3.655,1.19-3.776,2.58a2.776,2.776,0,0,0,.71,2.34,2.629,2.629,0,0,0,2.022.49c0-.19,0-0.37,0-0.54l0-.35c0-2.22,3.2-3.06,3.56-3.14a0.848,0.848,0,0,1,.4,1.65c-0.765.18-2.267,0.83-2.267,1.49l0,0.37c-0.015,1.74.085,2.31,1.34,2.42,1.757,0.15,2.978-.59,3.216-1.94a0.845,0.845,0,0,1,1.663.3,4.139,4.139,0,0,1-4.431,3.36q-0.291,0-.594-0.03a2.72,2.72,0,0,1-2.651-1.91,4.839,4.839,0,0,1-.642.04,4.006,4.006,0,0,1-2.733-.94,3.755,3.755,0,0,1-.375-0.44,4.715,4.715,0,0,0-.51,5.66,7.52,7.52,0,0,0,5.7,3.83A5.566,5.566,0,0,0,446.266,1829.82ZM467.1,1848c7.684-4.26,11.757-12.79,11.123-18.24-0.651-5.6-4.715-10.41-8.787-10.35-1.572.03-5.486,0.39-7.885,2.92a7.653,7.653,0,0,0-1.94,5.7l0.007,0.26c0.2,7.21.238,8.71-5.674,13.11a20.99,20.99,0,0,1-12.889,3.86c-0.327,1.82-.571,3.19-0.634,3.55a4.012,4.012,0,0,0,.653,1.88,3.871,3.871,0,0,1,.659,1.93C451.712,1853.34,460.248,1851.8,467.1,1848Zm-87.406,3.29c0.055,0.28.521,0.7,1.625,1.04a7.081,7.081,0,0,1,2.668-2.6,0.834,0.834,0,0,1,1.154.31,0.855,0.855,0,0,1-.309,1.16c-0.028.01-2.782,1.69-2.087,3.01,0.467,0.9,2.285.98,3.694,0.84a2.849,2.849,0,0,1,.219-1.98c0.771-1.55,2.737-2.3,5.279-2.02a0.847,0.847,0,0,1,.747.94,0.831,0.831,0,0,1-.931.75c-1.8-.2-3.143.21-3.584,1.09a1.125,1.125,0,0,0,.176,1.3c1.279,1.39,3.241,1.71,6,.98,2.2-.58,4.625-2.57,5.905-3.72-3.226-1.46-6.4-3.18-7-3.5a0.862,0.862,0,0,1-.34-1.16,0.847,0.847,0,0,1,1.145-.34c3.993,2.18,10.982,5.56,12.79,5.43,2.623-.23,8.117.67,8.951,0.81,0.03-.09.043-0.18,0.077-0.27,0.84-2.23,3.938-2.47,6.543-2.25-0.834-5.88,1.261-10.14,6.4-13a6.541,6.541,0,0,1,5.392-.77,7.349,7.349,0,0,1,3.928,3.69,0.844,0.844,0,1,1-1.541.69,5.67,5.67,0,0,0-2.934-2.77,5,5,0,0,0-4.026.64c-4.638,2.58-6.377,6.32-5.47,11.74,1.026,0.17,1.811.37,2.059,0.43a0.847,0.847,0,0,1,.6,1.03,0.829,0.829,0,0,1-1.029.61c-2.417-.63-7.637-1.31-8.344.56a1.881,1.881,0,0,0-.037,1.62,1.814,1.814,0,0,0,.8.66c0.036-.1.072-0.21,0.119-0.31,0.753-1.58,2.587-2.43,4.922-2.28a0.852,0.852,0,0,1-.115,1.7c-1.888-.13-2.94.59-3.281,1.31a1.137,1.137,0,0,0,.139,1.3c0.586,0.64,2.715.65,4.33,0.45a4.634,4.634,0,0,1,.4-1.81c1.484-3.61,3.74-2.94,3.836-2.91a0.866,0.866,0,0,1,.572,1.07,0.829,0.829,0,0,1-1.042.56c-0.314-.05-1.115.25-1.8,1.93a1.861,1.861,0,0,0-.182,1.53c0.231,0.35.972,0.52,2.2,0.52,1.588,0,2.229-.1,7.7-2.64,2.235-1.04,3.254-2.01,3.707-2.76a0.843,0.843,0,0,1-.175-0.59,0.834,0.834,0,0,1,.5-0.68,2.149,2.149,0,0,0-.362-0.99,5.626,5.626,0,0,1-.941-2.9,0.746,0.746,0,0,1,.012-0.14c0.019-.11,1.818-10.23,2.768-15.28-0.169-.01-0.335-0.01-0.507-0.03a9.267,9.267,0,0,1-7-4.75,6.408,6.408,0,0,1,1.226-8.01c0.007-.01.018-0.01,0.026-0.02a5.378,5.378,0,0,1-.135-1.72,2.848,2.848,0,0,1,.2-0.81,0.842,0.842,0,0,1-.13-0.11,4.278,4.278,0,0,1-.454-4.52,4.843,4.843,0,0,1,3.8-2.91,15.49,15.49,0,0,1,3.829.23c0.338-1.56,1.514-7.37,1.1-11.3a28.6,28.6,0,0,0-1.353-5.92,8.612,8.612,0,0,1-8.055,5.87,8.448,8.448,0,0,1-6.742-3.42,9,9,0,1,1-8.81-10.98,8.829,8.829,0,0,1,7.14,3.71,8.688,8.688,0,0,1,8.412-7.16c0.227,0,.45.02,0.673,0.04-1.644-2.2-4.537-5.84-6.9-7.58a25.964,25.964,0,0,0-4.553,6.9,0.839,0.839,0,0,1-.96.5c-0.118-.02-11.49-2.51-18.981-2.51h-0.059c-0.21,2.71-.231,6.02-0.252,9.24-0.024,4.28-.048,7.98-0.511,9.72-0.636,2.4-4.073,6.19-10.82,11.94a13.118,13.118,0,0,0-4.088,8.42,3.692,3.692,0,0,0,.906,2.79c2.468,2.34,6.9,2.12,9.966.92,2.317-.9,4.6-2.54,5.728-8.14a3.963,3.963,0,0,1-2.71,1.36c-1.641,0-3.5,0-4.55-1.84-1.109-1.95,1.205-4.14,1.473-4.38a0.833,0.833,0,0,1,1.191.06,0.842,0.842,0,0,1-.057,1.19c-0.5.46-1.486,1.68-1.14,2.29,0.534,0.94,1.426.98,3.083,0.98a2.347,2.347,0,0,0,1.855-1.43c0.356-1.02-.5-1.98-1.279-2.61a0.849,0.849,0,0,1-.128-1.19,0.833,0.833,0,0,1,1.188-.13c1.837,1.48,2.087,2.89,1.958,3.85a0.529,0.529,0,0,0,.336.08,2.111,2.111,0,0,0,1.177-1.12c1.184-1.95-1.917-4.27-1.948-4.29a0.857,0.857,0,0,1-.183-1.19,0.834,0.834,0,0,1,1.178-.18,7.962,7.962,0,0,1,2.813,3.83c0.851,0.06,2.048-.04,2.327-0.67,0.552-1.24-.166-3.72-1.45-5.01-1.327-1.33-4.284-2.04-5.657-1.35-1.324.66-3.7,3.81-4.508,4.97a0.834,0.834,0,0,1-1.175.21,0.847,0.847,0,0,1-.21-1.18c0.32-.46,3.193-4.54,5.139-5.52,2.227-1.12,5.919-.02,7.606,1.67a7.312,7.312,0,0,1,1.964,6.37,1.939,1.939,0,0,1,1.455.78,2.239,2.239,0,0,1-.158,2.4,3.656,3.656,0,0,1-2.381,1.92,4.058,4.058,0,0,1-.932.11,5.819,5.819,0,0,1-3.154-1.04,2.934,2.934,0,0,1-1.378.88c-0.992,5.43-3.054,8.42-6.861,9.9a14.83,14.83,0,0,1-5.28,1.01,12.947,12.947,0,0,1-1.4-.09c-0.007.02-.006,0.03-0.014,0.05a22.482,22.482,0,0,0-2.12,6.86,0.858,0.858,0,0,1-.44.67c-4.337,2.35-7.356,4.3-6.705,7.98,0.785,4.44,1.114,5.52,2.807,6.86a0.848,0.848,0,0,1,.3.86,13.424,13.424,0,0,1,2.309.98,0.848,0.848,0,0,1-.829,1.48c-1.2-.68-4.739-2.13-6.6-0.68C379.966,1850.31,379.627,1850.97,379.69,1851.29Zm38.8-64.67a7.628,7.628,0,1,0,7.271,7.62A7.456,7.456,0,0,0,418.492,1786.62Zm-6.579,23.54a0.806,0.806,0,0,1-.483-0.11,4.712,4.712,0,0,1-2.57.66c-0.144,0-.281-0.01-0.408-0.01a3.405,3.405,0,0,1-.189.54,3.72,3.72,0,0,0,2.746.69,1.937,1.937,0,0,0,1.29-1.07,3.269,3.269,0,0,0,.255-0.63A1.332,1.332,0,0,0,411.913,1810.16Zm10.408-11.45a1.246,1.246,0,1,1,1.194-1.24A1.215,1.215,0,0,1,422.321,1798.71Zm14.4-3.22a1.251,1.251,0,1,1,1.195-1.25A1.224,1.224,0,0,1,436.718,1795.49Zm37.047-2.57H465q-0.555.36-.877,0.6a3.6,3.6,0,0,0-1.651,2.88,2.887,2.887,0,0,0,1.241,2.45,4.466,4.466,0,0,0,2.7.81,5.492,5.492,0,0,0,4.208-1.75,6.728,6.728,0,0,0,1.68-3.34h0.541v6.23H472.3a1.025,1.025,0,0,0-.891-1.13,9.645,9.645,0,0,0-2.432.57,9.745,9.745,0,0,1-2.871.56,6.568,6.568,0,0,1-4.326-1.48,5.245,5.245,0,0,1-1.359-6.4h-1.285v-1.2H461.3a6.173,6.173,0,0,1,.687-0.62,25.931,25.931,0,0,1,3.375-2.07h-6.224v-1.2H467.5a14.167,14.167,0,0,0,2.091-1.44,2.964,2.964,0,0,0,1.125-2.17,2.752,2.752,0,0,0-1.111-2.24,3.753,3.753,0,0,0-2.4-.82,5.018,5.018,0,0,0-3.93,1.72,6.223,6.223,0,0,0-1.55,3.41h-0.541v-6.3h0.541a1.138,1.138,0,0,0,1.008,1.14,9.115,9.115,0,0,0,1.849-.57,7.867,7.867,0,0,1,2.652-.57,6.056,6.056,0,0,1,4.048,1.41,5,5,0,0,1,1.008,6.43h1.476v1.2h-2.514c-0.146.13-.277,0.24-0.394,0.34a25.41,25.41,0,0,1-3.362,2.1l-0.451.25h6.721v1.2Zm14.049-13.22h-4.655a4.854,4.854,0,0,0-.466.32,1.91,1.91,0,0,0-.877,1.53,1.535,1.535,0,0,0,.66,1.3,2.414,2.414,0,0,0,1.436.43,2.92,2.92,0,0,0,2.234-.93,3.577,3.577,0,0,0,.892-1.78h0.288v3.32h-0.288a0.547,0.547,0,0,0-.473-0.61,5.163,5.163,0,0,0-1.291.3,5.323,5.323,0,0,1-1.525.31,3.521,3.521,0,0,1-2.3-.79,2.669,2.669,0,0,1-1.017-2.15,2.616,2.616,0,0,1,.3-1.25h-0.683v-0.64H481.2a3.422,3.422,0,0,1,.364-0.33,14.666,14.666,0,0,1,1.793-1.1h-3.305v-0.64h4.438a6.974,6.974,0,0,0,1.109-.76,1.567,1.567,0,0,0,.6-1.15,1.455,1.455,0,0,0-.59-1.19,1.978,1.978,0,0,0-1.272-.44,2.675,2.675,0,0,0-2.088.92,3.309,3.309,0,0,0-.822,1.81h-0.288v-3.35h0.288a0.6,0.6,0,0,0,.535.61,4.872,4.872,0,0,0,.982-0.3,4.016,4.016,0,0,1,1.408-.31,3.216,3.216,0,0,1,2.15.75,2.53,2.53,0,0,1,.931,2.03,2.5,2.5,0,0,1-.4,1.38h0.783v0.64H486.48q-0.117.105-.21,0.18a14.686,14.686,0,0,1-1.784,1.12l-0.241.13h3.569v0.64Zm19.2,11.01h-6.028c-0.255.16-.456,0.3-0.6,0.41a2.483,2.483,0,0,0-1.135,1.98,1.99,1.99,0,0,0,.853,1.69,3.075,3.075,0,0,0,1.86.55,3.788,3.788,0,0,0,2.893-1.2,4.658,4.658,0,0,0,1.155-2.3h0.372v4.29h-0.372a0.7,0.7,0,0,0-.612-0.78,6.661,6.661,0,0,0-1.673.39,6.778,6.778,0,0,1-1.974.39,4.519,4.519,0,0,1-2.974-1.02,3.442,3.442,0,0,1-1.317-2.79,3.387,3.387,0,0,1,.382-1.61h-0.884v-0.83h1.487a4.257,4.257,0,0,1,.472-0.42,18.23,18.23,0,0,1,2.321-1.43h-4.28v-0.82h5.747a9.915,9.915,0,0,0,1.437-.99,2.033,2.033,0,0,0,.774-1.5,1.864,1.864,0,0,0-.764-1.53,2.538,2.538,0,0,0-1.647-.57,3.486,3.486,0,0,0-2.7,1.18,4.31,4.31,0,0,0-1.065,2.35h-0.372v-4.33h0.372a0.781,0.781,0,0,0,.693.78,6.313,6.313,0,0,0,1.272-.39,5.42,5.42,0,0,1,1.823-.39,4.185,4.185,0,0,1,2.783.96,3.451,3.451,0,0,1,.694,4.43h1.014v0.82h-1.728c-0.1.09-.191,0.17-0.271,0.24a19.179,19.179,0,0,1-2.311,1.44l-0.311.17h4.621v0.83Z" transform="translate(-378 -1771.97)"/>
</svg>
