<svg xmlns="http://www.w3.org/2000/svg" viewBox="0 0 100.354 100.352"><path d="M16.06 8.94v82.93h66.102V8.94H16.06zm63.101 79.93H19.059V11.94h60.102v76.93z"/><path d="M58.666 61.937a11.64 11.64 0 0 0 2.168-6.766c0-6.465-5.259-11.725-11.723-11.725s-11.724 5.26-11.724 11.725c0 2.522.809 4.854 2.17 6.768l-7.639 10.932a1.502 1.502 0 0 0-.018 1.693c.343.513.966.762 1.57.631l5.838-1.29 1.06 5.456a1.5 1.5 0 0 0 2.797.418l5.945-11.192 5.948 11.192a1.5 1.5 0 0 0 2.797-.418l1.062-5.456 5.83 1.289a1.503 1.503 0 0 0 1.571-.631 1.503 1.503 0 0 0-.017-1.693l-7.635-10.933zM49.11 46.446c4.81 0 8.723 3.914 8.723 8.725 0 4.808-3.913 8.719-8.723 8.719s-8.724-3.911-8.724-8.719c.001-4.81 3.914-8.725 8.724-8.725zm-6.605 28.182l-.544-2.805a1.503 1.503 0 0 0-1.795-1.179l-3.584.792 5.06-7.241a11.69 11.69 0 0 0 5.103 2.454l-4.24 7.979zm15.558-3.983a1.5 1.5 0 0 0-1.795 1.178l-.547 2.809-4.242-7.982a11.687 11.687 0 0 0 5.103-2.455l5.057 7.242-3.576-.792zM31.258 31.076h35.244a1.5 1.5 0 1 0 0-3H31.258a1.5 1.5 0 1 0 0 3z"/></svg>