<svg xmlns="http://www.w3.org/2000/svg" viewBox="0 0 100.75 100.75"><path d="M83.246 19.261a1.442 1.442 0 0 0-.33-.076C71.06 17.999 61.54 15.374 50.733 5.966a1.454 1.454 0 0 0-2.05.142c-.03.034-.039.078-.065.114-10.72 9.262-20.195 11.867-31.975 13.044-.028.003-.053.012-.08.016a1.465 1.465 0 0 0-.403.124 1.466 1.466 0 0 0-.736.815 1.576 1.576 0 0 0-.082.406c-.002.029-.009.056-.009.085v37.356c0 .129.017.256.051.38 6.499 23.965 32.717 35.354 33.83 35.826a1.457 1.457 0 0 0 1.131.003c1.125-.474 27.645-11.861 34.143-35.829.021-.076.035-.153.043-.232l.127-1.244c.005-.049.008-.099.008-.147V20.711c0-.791-.633-1.432-1.42-1.45zm-1.594 38.541c-5.667 20.646-28.01 31.761-31.867 33.542-3.823-1.783-25.84-12.851-31.546-33.471V22.014c11.495-1.271 20.977-4.071 31.588-13.015C60.536 17.99 70.101 20.734 81.76 21.982V56.75l-.108 1.052z"/><path d="M58.121 42.295a1.452 1.452 0 1 0 2.906 0c0-4.641-4.179-8.478-9.572-9.072v-7.416a1.452 1.452 0 1 0-2.906 0v7.416c-5.396.594-9.576 4.431-9.576 9.072 0 4.639 4.181 8.474 9.576 9.068v12.495c-3.786-.528-6.67-3.083-6.67-6.153a1.452 1.452 0 1 0-2.906 0c0 4.645 4.181 8.485 9.576 9.076v7.412a1.452 1.452 0 1 0 2.906 0v-7.414c5.394-.597 9.572-4.434 9.572-9.074 0-4.638-4.178-8.474-9.572-9.07V36.146c3.785.53 6.666 3.082 6.666 6.149zm-16.242 0c0-3.067 2.883-5.619 6.67-6.149v12.293c-3.787-.529-6.67-3.08-6.67-6.144zm16.242 15.41c0 3.065-2.881 5.619-6.666 6.151V51.558c3.785.532 6.666 3.083 6.666 6.147z"/></svg>