<svg xmlns="http://www.w3.org/2000/svg" width="1470" height="553"><g opacity=".07"><path d="M1353.563 33.973c.5.8.2 1.9-.7 2.4l-46.297 26.8c-.8.5-1.9.2-2.4-.7-.5-.8-.2-1.9.7-2.4l46.297-26.8c.8-.5 1.9-.2 2.4.7zm60.496-33.1c.5.8.2 1.9-.7 2.4l-32.898 19.1-1.7-3.1 32.998-19.1c.8-.4 1.8-.1 2.3.7z"/><g fill="none" stroke="#000" stroke-width="3.005" stroke-miterlimit="10"><path d="M1343.663 9.173s-45.097 27.3-53.597 32.3c-8.499 5-11.799 13.3-4.5 23.6 0 .3-10.299 26.1 7.999 59.9 7.8 14.8 13.299 24.1 16.799 28.1s8.5 4 13.499 1.3 19.299-10.8 23.798-14c4.5-3.2.3-7.8-2.8-7-3 .8-5.3.8-5.3.8s.3-12-6-23.3-12.299-19.3-13.299-21.5c-1-2.3-.3-4.3 3.3-6.3 3.5-2 43.397-23.1 48.597-26.3 3.6-2.2 3-6.3 1.2-9-3.3-5.1-16.999-30.3-19.799-35.1-2.797-4.8-4.397-6.2-9.897-3.5zm11.499 6s9-5.2 11.499-6.3c2.5-1.2 4.7-1.8 6.3.8 1.7 2.7 11.699 20.9 12.799 23.2 1.2 2.3 0 4-3.2 5.8-3.2 1.8-10.499 6-10.499 6l-16.899-29.5z"/><path d="M1331.964 107.573s4.8-2.4 6.1-3.1c1.4-.8 4-3.1 1.8-6.5-2.3-3.4-4-5.9-4-5.9s3-1.8 4.6-2.8 2.4-2.5.4-5.8-4.4-7.8-4.4-7.8"/></g><circle cx="1367.362" cy="19.973" r="2.8"/><circle cx="1374.461" cy="31.373" r="2.8"/><path d="M1395.36 16.373c-.5 1-1.7 1.4-2.7 1l-5.9-2.9c-1-.5-1.4-1.7-1-2.7.5-1 1.7-1.4 2.7-1l5.9 2.9c1 .4 1.5 1.7 1 2.7zm10.599-5.9c-.5 1-1.7 1.4-2.7 1l-5.9-2.9c-1-.5-1.4-1.7-1-2.7.5-1 1.7-1.4 2.7-1l5.9 2.9c1 .4 1.5 1.6 1 2.7zm-53.096 160.1c-3 0-6-.5-8.8-1.5-11.999-4.3-17.299-16.2-17.599-16.7l3.7-1.6c0 .1 4.9 10.8 15.299 14.5 6.4 2.3 13.699 1.5 21.599-2.5 11.999-6 16.099-19.8 20.399-34.5 5.4-18.2 10.899-36.9 31.598-44.6 26.398-9.8 48.397 12.8 50.297 14.6 1.9 1.8-.8 4.7-2.9 2.8-.9-.8-22.099-22.5-45.997-13.6-18.699 6.9-23.999 24.7-29.098 41.9-4.6 15.5-8.899 30.2-22.399 36.9-5.7 2.9-11 4.3-16.099 4.3z"/></g><g opacity=".07" fill="none" stroke="#000" stroke-width="2.003" stroke-miterlimit="10"><path d="M1074.881 93.173c-3.1 3.2-8.199 3.3-11.399.1l-29.198-28.9c-3.2-3.1-3.8-3.2-.6-6.4l29.098-29.4c3.1-3.2 8.199-3.3 11.399-.1l26.898 26.3c3.2 3.1 3.3 8.2.1 11.4l-26.298 27z"/><ellipse cx="1067.481" cy="60.873" rx="13.099" ry="13.2"/><path d="M1034.383 56.473l-21.498-22.4 4.399-4.3 21.599 22.4zm-17.099-26.7l-8.399 7.9m49.797-5.1l-13.399 13.4-2-2.2c-1.1-1.1-1.1-2.9.1-4l9.299-9c1.1-1.1 2.9-1.1 4 .1l2 1.7z"/></g><path d="M1404.959 501.073s1 1 1.3 1.2c.3.3.6.9.4 2.1-.2 1.3-2 8.6-2.3 9.5-.2 1-1 1.8-2.3 2-1.3.2-3.7.5-3.7.5l-1.1 1.1s.5.1.8.4c.3.3.6 4.3.8 5.2s.2 1.6-1.1 1.6-4.6-.1-4.6-.1 0 10.6-8.599 19.6c-8.599 9-16.399 8.6-17.699 8.8-1.3.2-3.5-.6-3.8-2.5s.3-3.8 3.2-4.5c2.9-.6 8.4-1.7 13.599-7.1 4.7-4.9 5.2-14.9 5.4-16.8v-.6c1 1 3.8 1.8 5.5 0 1.8-1.8 1.5-4.5.1-5.8l5.6-5.9.8.8c.4.4.8.5 1.4-.1s1.5-1.6 2.1-2.1c.5-.5-.1-1-.4-1.3l-.6-.6 5.199-5.4zm-12.199 17.1l4.8.2m7.299-17.5s-1-1-1.3-1.2c-.3-.3-.9-.5-2.1-.3-1.3.2-8.5 2.4-9.399 2.7-.9.3-1.8 1.1-1.9 2.4-.2 1.3-.3 3.7-.3 3.7l-1.1 1.1s-.1-.5-.4-.8-4.3-.5-5.2-.6c-.8-.1-1.6-.1-1.6 1.2s.3 4.6.3 4.6-10.599.5-19.199 9.5c-8.599 9-7.899 16.8-7.999 18-.1 1.3.8 3.5 2.7 3.7 1.9.2 3.8-.5 4.3-3.4s1.3-8.5 6.5-13.9c4.7-4.9 14.699-5.9 16.499-6.1.2 0 .6-.1.6-.1-1-1-2-3.7-.2-5.5s4.4-1.7 5.8-.3l5.6-5.9-.8-.8c-.4-.4-.6-.7.1-1.4s1.5-1.6 2-2.1 1.1 0 1.3.3l.6.6 5.198-5.4zm-16.599 13l-.4-4.9" opacity=".07" fill="none" stroke="#000" stroke-width="1.503" stroke-miterlimit="10"/><g opacity=".07"><path d="M31.449 293.773c.9.6 2.2.3 2.8-.6l5.2-8.4c.6-.9.3-2.2-.6-2.8-.9-.6-2.2-.3-2.8.6l-5.2 8.4c-.6 1-.3 2.2.6 2.8zm67.095 16.9c.9.6 2.2.3 2.8-.6l5.2-8.4c.6-.9.3-2.2-.6-2.8-.9-.6-2.2-.3-2.8.6l-5.2 8.4c-.599.9-.299 2.2.6 2.8zm-57.796-13.9c.9.6 2.2.3 2.8-.6l10.899-19.5c.6-.9.3-2.2-.6-2.8-.9-.6-2.2-.3-2.8.6l-10.899 19.5c-.6 1-.4 2.2.6 2.8zm9.8 3.1c.9.6 2.2.3 2.8-.6l10.899-19.5c.6-.9.3-2.2-.6-2.8-.9-.6-2.2-.3-2.8.6l-10.899 19.5c-.6.9-.4 2.2.6 2.8zm9.699 2.3c.9.6 2.2.3 2.8-.6l10.899-19.5c.6-.9.3-2.2-.6-2.8-.9-.6-2.2-.3-2.8.6l-10.899 19.5c-.6.9-.3 2.1.6 2.8zm9.699 2.5c.9.6 2.2.3 2.8-.6l10.899-19.5c.6-.9.3-2.2-.6-2.8-.9-.6-2.2-.3-2.8.6l-10.899 19.5c-.6.9-.4 2.2.6 2.8zm9.9 2.5c.9.6 2.2.3 2.8-.6l10.899-19.5c.6-.9.3-2.2-.6-2.8-.9-.6-2.2-.3-2.8.6l-10.899 19.5c-.6 1-.3 2.2.6 2.8zm9.299 2.3c.9.6 2.2.3 2.8-.6l10.899-19.5c.6-.9.3-2.2-.6-2.8-.9-.6-2.2-.3-2.8.6l-10.899 19.5c-.7 1-.4 2.2.6 2.8z"/><path fill="none" stroke="#000" stroke-width="2.003" stroke-miterlimit="10" d="M26.549 272.373s79.795 20.5 84.394 22c4.7 1.5 5.8 2.2 8.499 3.5s12.299 6.5 13.899 7.4c1.3.7 4.3 2.2 3.8 3.8-.6 1.9-2.6 1.6-5.7 1.7-3 0-12.299-.1-16.199-.3-3.5-.2-7.2-.5-12.999-2.2-4.5-1.3-79.195-21.3-79.195-21.3s-15.199 10.6-18.199 12.5c-3 1.8-5.5 0-4.7-4.2s3.7-15.4 3.7-15.4l6.5-1.8 1.3-6.5-5.2-3s4.2-15.2 5-18.5c.8-3.3 5-3.3 6.8 1.3 1.801 4.6 8.3 21 8.3 21z"/></g><g opacity=".07"><g fill="none" stroke="#000" stroke-width="2.003" stroke-miterlimit="10"><path d="M91.145 66.273l-48.597 46.6c-1.9 1.8-2 4.9-.1 6.8 0 0 30.198 31.5 36.598 38.3 6.4 6.7 11.699 1.2 14.499-1.5 1.9-1.8 9.099-8.7 10.499-10.1 1.5-1.4 5.2-1.2 7.999 5.2 2.2 5 4.6 11.3 7.799 15.6 5.3 7.1 14.299 10.8 22.999 2.4 8.699-8.4 6-16.9-1.4-22.8-4.1-3.3-9.899-7.1-14.899-9.2-5.5-2.3-7.4-5.8-5.2-7.9 2.1-2.1 9.499-9.1 11.599-11.1 3.1-3 6.9-8.3 1.5-13.9-5-5.4-36.498-38.3-36.498-38.3-1.798-1.9-4.898-2-6.798-.1z"/><path d="M136.442 153.473c2.3 2.4 2.2 6.3-.2 8.6-2.4 2.3-6.2 2.2-8.599-.2-2.3-2.4-2.2-6.3.2-8.6 2.499-2.3 6.299-2.3 8.599.2z"/></g><path fill="#FFF" stroke="#000" stroke-width="2.003" stroke-miterlimit="10" d="M131.242 96.373c.9 1 .9 2.5-.1 3.4l-56.796 54.5c-1 .9-2.5.9-3.4-.1l-9.799-10.2c-.9-1-.9-2.5.1-3.4l56.796-54.5c1-.9 2.5-.9 3.4.1l9.799 10.2z"/><path d="M120.143 97.573c.5.6.5 1.5-.1 2.1l-45.397 43.4c-.6.5-1.5.5-2.1-.1-.5-.6-.5-1.5.1-2.1l45.397-43.4c.6-.5 1.5-.5 2.1.1zm-65.196 24.2c-.6.5-1.5.5-2.1-.1l-9.199-9.7 2.2-2.1 9.299 9.7c.5.6.4 1.6-.2 2.2zm14.899-6.2c-.6.5-1.5.5-2.1-.1l-13.299-13.9 2.2-2.1 13.399 14c.6.5.4 1.5-.2 2.1zm-12.999-2.7c-.6.5-1.5.5-2.1-.1l-5.7-6 2.2-2.1 5.8 6.1c.5.5.4 1.5-.2 2.1zm8-13.5c-.6.5-1.5.5-2.1-.1l-2.8-3 2.2-2.1 2.9 3c.5.6.4 1.6-.2 2.2z"/></g><g opacity=".07" fill="none" stroke="#000" stroke-width="2.003" stroke-miterlimit="10"><path d="M80.146 523.873c-.8.8-2.1.9-3 0l-6-5.9c-.8-.8-.9-2.1 0-3l38.997-40.4 9.099 8.8-39.096 40.5z"/><path d="M139.142 469.673c-.2 1.9-.1 4-.1 4.9s-.1 1.7.4 2.3c.5.6 1.7 1.5 2.1 1.8.7.5 2.8-.1 3.6-.2.8-.1 1.9.5 2.8 1.5 1 1 3 3.2 4.2 4.3 1.2 1.2.4 2.2-.5 3.2-1.4 1.5-6.6 6.7-7.5 7.5-1 .8-2.1 1-3.4 0-1.3-1-4.1-3.9-4.9-4.8s-.9-1.9-.8-2.8 1-2.2.1-3.1c-.9-.9-1.8-1.7-2.3-2s-1.3-.8-2.6-.2c-1.3.6-6.2 1.9-7.799 2.4-1.6.5-2.2 0-3.5-1.3-1.3-1.3-8.299-8-9.299-9s-1-1.9-.2-3 6.8-9.6 6.8-9.6-6.5-4.1-11.799-4.7c-3.3-.4-8.599-.4-10.299-.5-1.4-.1-2.5-.2-2.8-1.6-.3-1.4 1.2-2.4 2.4-2.7s5.9-2 11.999-1.7c6.1.3 11.499 1.3 16.899 4.7 5.4 3.3 13.699 9.7 14.699 10.7 1.099 1.1 1.999 2.3 1.799 3.9z"/></g><g opacity=".07" fill="none" stroke="#000" stroke-miterlimit="10"><path stroke-width="2.003" d="M326.93 51.773l42.197-41.3c1.4-1.4 3-1 3.9-.1s20.299 20 20.999 21.2c.2.7 1 3.7.4 4.3-.6.6-3.7-1-4.2-.5s.6 3.9.2 4.3c-.4.4-3.3-1.4-3.9-.8-.6.6.7 3.9.1 4.4-.5.5-3.6-1.1-4.1-.6s.8 3.8.2 4.3c-.6.6-3.5-1.2-4-.7s.7 3.9.1 4.4-3.6-1-4.1-.5.8 3.8.4 4.1-3.5-1.1-4.1-.6c-.5.5.7 3.9.1 4.5-.6.6-3.4-1.2-4.1-.5-.7.7.7 3.8.2 4.3s-3.4-1.2-4.1-.5c-.7.7.8 3.7.3 4.2s-3.5-1.2-4.1-.6.8 3.7.3 4.2-3.8-.8-4.3-.4c-.5.5.7 3.8.2 4.3s-3.7-1-4.2-.5 1 3.6.4 4.2-3.7-.9-4.2-.5c-.5.5.9 3.6.4 4.1s-4.1-.5-4.1-.5"/><path stroke-width="2.003" d="M324.63 51.173c-1.5 1.4-21.399 20.5-22.399 21.6-1.1 1.1-1.6 3.2-.8 4.1.8.9.9 1.2 1.6 1.8.7.7 2.5.6 3.9-.2s1.8-1.4 3.2-.4c1.3 1 13.299 12.6 13.899 13.4.7.8.2 2.4 0 3.1-.2.7-1.5 2.5-.8 3.7.8 1.2 1.3 1.5 2.1 2.3.8.8 2.3.3 3.3-.8s12.299-12.2 14.099-13.9c1.8-1.8 1.3-3.5 1.3-6.4s.2-6.3.3-8.6c.2-2.3-.4-3.4-2.4-5s-12.699-12.6-13.999-13.8c-1.4-1.2-1.8-2.2-3.3-.9z"/><path stroke-width="1.73" d="M333.729 85.373c-1.4 1.5-3.8 1.6-5.3.2l-11.799-11c-1.5-1.4-1.6-3.8-.2-5.4 1.4-1.5 3.8-1.6 5.3-.2l11.799 11c1.5 1.5 1.6 3.9.2 5.4z"/></g><g opacity=".07"><path d="M1323.664 352.173c.5.5.5 1.4 0 1.9l-1.8 1.9c-.5.5-1.4.5-1.9 0s-.5-1.4 0-1.9l1.8-1.9c.501-.5 1.401-.5 1.9 0zm14.1 13.6c.5.5.5 1.4 0 1.9l-1.8 1.9c-.5.5-1.4.5-1.9 0s-.5-1.4 0-1.9l1.8-1.9c.5-.6 1.4-.6 1.9 0zm13.299 13.6c.5.5.5 1.4 0 1.9l-1.8 1.9c-.5.5-1.4.5-1.9 0s-.5-1.4 0-1.9l1.8-1.9c.5-.5 1.4-.5 1.9 0zm33.798 15.9c.7.2 1.2.9 1 1.7l-3.1 14.6c-.2.7-.9 1.2-1.7 1-.7-.2-1.2-.9-1-1.7l3.1-14.6c.3-.7 1-1.1 1.7-1z"/><g fill="none" stroke="#000" stroke-width="2.003" stroke-miterlimit="10"><path d="M1325.964 334.173c1.8 1.7 35.698 36.2 37.398 38.3 0 0 1-.9 1.7-1.4.8-.5 1.9.3 2.8 1.4.9 1.1 9.599 10.6 11.899 12.7 2.3 2 2.1 4.3.1 7.1-2 2.9-13.499 26.8-14.499 29.1-1 2.3-3.5 2.4-4-.5s3.2-23.9 3.2-24.9c.2 0-4.8-4.8-4.8-4.8s-1.4 2-2.1 2.6c-.8.6-1.5.5-2.8-.6-1.3-1.1-41.897-40.7-43.897-43-1.8-2-1.4-2.7.2-4.2s9.499-9.9 11.299-11.5c1.6-1.8 2.2-1.5 3.5-.3zm-6.899 3.4s-3.2-3.2-4.5-4.3-3.4-2.5-4.8-1.1c-1.3 1.3-.3 3.3.8 4.9 1.2 1.7 4.3 4.8 4.3 4.8"/><path d="M1364.462 395.773s-17.899 5.3-21.198 6.7c-3.8 1.6-3.2 4.6 1.6 3.6 5.3-1.1 18.599-3.1 18.599-3.1m-45.398-64s36.698 36.3 38.098 37.8 2.7 0 3.6-.8c.8-.7 3.5-3.5 3.5-3.5"/></g><path d="M1395.16 414.473c-2.3 0-4.4-.9-6.2-2.8-2.7-2.8-12.999-12.9-13.099-13l1.4-1.4c.4.4 10.399 10.2 13.199 13.1 2.8 3 6.699 2.8 11.599-.4 1.7-.9 2.3.8 1.1 1.7-2.5 1.6-5.699 2.8-7.999 2.8z"/></g><g opacity=".07"><path fill="none" stroke="#000" stroke-width="2.003" stroke-miterlimit="10" d="M1432.857 245.873c-1 1-15.399 25-16.399 26.5-1 1.5-1.2 2.1-.2 3 1 .9 1.2 1.8.6 2.8-.6 1-1.8 2.5-2.3 3.1-.5.6-1.1.4-3-.5s-28.298-16.4-29.598-17.4c-1.3-1-.9-1.9-.3-2.9.6-1 1.3-2.7 1.9-3.5.6-.8 1.6-.7 2.6-.1s2.1-1.1 2.9-2.3c.8-1.3 4.9-7.9 5.8-9.1.9-1.2-2.5-5.2.4-9s9.799-5.3 16.699-3.6c.5.3-1-2.4.4-4.4 1.8-2.5 4.6-1.7 7.699.3 2.9 1.9 13.499 8.1 15.899 9.8 2.3 1.7 2.7 3.8 1.3 5.9-1.4 2.1-4 1.1-4.4 1.4z"/><path fill="none" stroke="#000" stroke-width="2.003" stroke-miterlimit="10" d="M1425.658 247.073c-1.1 2-11.299 20.6-12.499 22.1-1.2 1.5-1.5 2.3-4.1 1.2-2.6-1.1-12.299-7.3-13.799-8.4-1.4-1-3.4-2.1-1.9-4s9.199-12.8 16.299-14.6c7.099-1.8 13.599-.1 15.199 1s1.5 1.3.8 2.7zm-6.3-19.1s2.6-3.6 3.6-4.8c1-1.3 1.8-.7 3.3.3 1.4.9 9.999 6.2 11.099 7 1.3.9.9 1.5.2 2.8-.7 1.3-2.7 4.8-2.7 4.8"/><circle cx="1426.158" cy="228.173" r="1.2"/><circle cx="1431.258" cy="231.273" r="1.2"/><path fill="none" stroke="#000" stroke-width="2.003" stroke-miterlimit="10" d="M1427.958 224.473s6.7-10.6 7.599-12.2c1-1.6 1.4-1.5 2.3-1 .9.5 2 1.1 2.7 1.5.7.4 1.1.8.5 1.9-.6 1.1-6.599 13.6-6.599 13.6m-6-8l9.499 5.5"/></g></svg>