<svg xmlns="http://www.w3.org/2000/svg" id="Слой_1" width="165" height="60"><script/><path fill="#fff" d="M69.8 6.5l-34 29.8v-6.4l8.6-7.5V6.7h5.8l2.2 3.3-2.2-1.2v8.6L69.8 0 104 30.1v6.4zm25-6.5l-7.4 6.6V2.3l1.7.8L87.6 1h-4.1v9l3.6 3.1 7.7-6.7 34.3 30.1v-6.4z"/><path fill="#fff" d="M49.3 25.9l20.5-18 20.4 18L69.8 11zm38.6-12.1l7-5.9 20.3 17.9L94.8 11l-5.5 3.9zM5.5 50.7c.3.1.6.2.8.3.3.1.5.2.7.3s.4.3.6.5.4.4.5.6c.1.2.3.4.5.8s.3.7.4.9.3.6.5 1.1.3.9.4 1.2c.1.3.3.7.5 1.4.2.6.4 1.1.5 1.4H9c-.1-.2-.2-.5-.3-1-.3-.8-.5-1.3-.6-1.7-.1-.4-.3-.8-.5-1.4-.2-.6-.4-1-.6-1.2l-.6-.9c-.3-.3-.5-.6-.7-.7-.4-.3-.7-.4-1-.5-.3-.1-.7-.2-1.1-.2H1.9c.1.6.1 1.1.1 1.7v5.8H0v-16h2v5c0 .6 0 1.2-.1 1.8h1.7c.5 0 1-.1 1.4-.4.4-.2.8-.5 1.1-.8.3-.2.6-.7.9-1.5.3-.7.6-1.3.7-1.7.2-.4.4-1.1.8-2.2 0-.1.1-.2.1-.3h2.1c-.9 2.6-1.5 4.2-1.9 5-.8 1.6-1.8 2.4-3 2.6-.1.1-.2.1-.3.1zm8.3 8.4v-16c1.3-.1 3.1-.2 5.5-.2 1.9 0 3.2.4 4 1.1.7.7 1.1 2 1.1 4 0 1.9-.4 3.3-1.1 4-.7.7-2 1.1-3.8 1.1-1.2 0-2.5-.1-3.7-.2v6.4h-2v-.2zm2.1-8h3.4c1.2 0 2-.2 2.4-.7.4-.4.7-1.3.7-2.6s-.2-2.1-.7-2.6c-.4-.5-1.3-.7-2.4-.7h-3.4v6.6zm12.3-6.5c.9-1.2 2.6-1.8 4.9-1.8s4 .6 4.9 1.8 1.4 3.4 1.4 6.5-.5 5.3-1.4 6.5-2.5 1.8-4.9 1.8c-2.3 0-4-.6-4.9-1.8s-1.4-3.4-1.4-6.5.5-5.3 1.4-6.5zm8.2 1.4c-.6-.9-1.7-1.4-3.2-1.4-1.6 0-2.6.5-3.2 1.4-.6.9-.9 2.6-.9 5.1s.3 4.2.9 5.1c.6.9 1.7 1.4 3.2 1.4 1.6 0 2.6-.5 3.2-1.4.6-.9.9-2.6.9-5.1 0-2.5-.3-4.2-.9-5.1zm14.2 4.8c1.2.2 2 .6 2.5 1.3.5.7.7 1.7.7 3.1 0 1.6-.4 2.7-1.1 3.3-.8.6-2.1.9-3.9.9-2.5 0-4.5-.1-5.9-.2V43.1c1.2-.1 2.9-.2 5.2-.2 2 0 3.4.3 4.1.9.8.6 1.2 1.7 1.2 3.3 0 1.2-.2 2-.6 2.6-.6.6-1.3 1-2.2 1.1zm-5.8-.8h3.4c1.2 0 2-.2 2.4-.6.4-.4.7-1.1.7-2.1 0-1.1-.2-1.8-.7-2.1-.5-.4-1.4-.5-2.7-.5h-3.1V50zm0 1.6v6h3.6c1.3 0 2.2-.2 2.6-.6.5-.4.7-1.1.7-2.2 0-1.2-.2-2.1-.7-2.5s-1.4-.7-2.7-.7h-3.5zm23.3-8.5v16.1h-2V44.7h-3.2c-1 0-1.6.5-1.7 1.6-.2 2.3-.3 3.9-.4 4.7-.1.8-.2 1.7-.4 2.6-.2.9-.5 1.7-.8 2.4-.9 2-2.3 3.1-4 3.1l-.2-1.6c1.1-.3 1.8-1 2.3-2 .4-1 .7-2.1.9-3.2.2-1.2.4-3.3.6-6.3.2-2 1.2-2.9 3.2-2.9h5.7zm6.6 8.9c-2-.4-3-1.8-2.9-4.4 0-1.7.4-2.9 1.2-3.6.8-.7 2.1-1.1 3.9-1.1 2.3 0 4.1.1 5.4.2v16.1h-2v-6.5h-3.5c-1.1 0-1.8.6-2.1 1.7l-1.4 4.8h-2.2l1.5-4.9c.3-1.3 1-2.1 2.1-2.3zm5.5-1.2v-6.2h-3.4c-1.1 0-1.9.2-2.4.7-.4.4-.7 1.2-.7 2.4 0 1.1.2 1.9.7 2.4.4.5 1.2.8 2.3.8h3.5v-.1zm20.9-7.7v16.1h-2V44.7h-7.3v14.4h-2v-16h11.3zm4 16v-16c1.3-.1 3.1-.2 5.5-.2 1.9 0 3.2.4 4 1.1.7.7 1.1 2 1.1 4 0 1.9-.4 3.3-1.1 4-.7.7-2 1.1-3.8 1.1-1.2 0-2.4-.1-3.7-.2v6.4h-2v-.2zm2-8h3.4c1.2 0 2-.2 2.4-.7.4-.4.7-1.3.7-2.6s-.2-2.1-.7-2.6c-.4-.5-1.3-.7-2.4-.7h-3.4v6.6zm12.4-6.5c.9-1.2 2.6-1.8 4.9-1.8s4 .6 4.9 1.8 1.4 3.4 1.4 6.5-.5 5.3-1.4 6.5-2.5 1.8-4.9 1.8c-2.4 0-4-.6-4.9-1.8-.9-1.2-1.4-3.4-1.4-6.5s.4-5.3 1.4-6.5zm8.1 1.4c-.6-.9-1.7-1.4-3.2-1.4s-2.6.5-3.2 1.4-.9 2.6-.9 5.1.3 4.2.9 5.1c.6.9 1.7 1.4 3.2 1.4s2.6-.5 3.2-1.4c.6-.9.9-2.6.9-5.1 0-2.5-.3-4.2-.9-5.1zm14.9-4.2V44c2.7.1 4.6.7 5.6 1.7 1.1 1 1.6 2.8 1.6 5.2s-.6 4.1-1.6 5.1c-1.1 1-3 1.6-5.6 1.7V60h-2v-2.3c-2.7-.1-4.6-.6-5.6-1.7-1.1-1-1.6-2.7-1.6-5.1 0-2.5.5-4.2 1.6-5.2s3-1.6 5.7-1.7v-2.3l1.9.1zM140.6 56V45.7c-2 .1-3.4.5-4.1 1.2-.8.7-1.1 2.1-1.1 4s.4 3.2 1.1 3.9c.7.7 2.1 1.1 4.1 1.2zm1.8-10.3V56c2-.1 3.4-.5 4.1-1.2.8-.7 1.1-2 1.2-3.9 0-1.9-.4-3.2-1.2-4-.7-.7-2.1-1.1-4.1-1.2zm22.5 13.4h-2V47.4c0-.7 0-1.3.1-1.8h-.1c-.2.5-.5 1.1-.8 1.7l-7 11.8H153v-16h2v11.6c0 .6 0 1.2-.1 1.9h.1c.2-.5.5-1.1.9-1.7l7-11.8h2.1l-.1 16z"/></svg>