<svg xmlns="http://www.w3.org/2000/svg" width="165" height="60"><path fill="#C01E2E" d="M69.758 6.5l-33.98 29.8v-6.4l8.595-7.5V6.7h5.797l2.198 3.3-2.198-1.2v8.6L69.758 0l34.279 30.1v6.4z"/><path fill="#444" d="M94.843 0l-7.396 6.6V2.3l1.699.8L87.647 1h-4.098v9l3.598 3.1 7.696-6.7 34.279 30.1v-6.4z"/><path fill="#D1D3D4" d="M49.27 25.9l20.488-18 20.487 18L69.758 11zm38.677-12.1l6.995-5.9 20.288 17.9L94.843 11l-5.497 3.9z"/><path d="M5.497 50.7c.3.1.6.2.8.3.3.1.5.2.7.3s.4.3.6.5.4.4.5.6c.1.2.3.4.5.8s.3.7.4.9.3.6.5 1.1.3.9.4 1.2c.1.3.3.7.5 1.4.2.6.4 1.1.5 1.4H8.995c-.1-.2-.2-.5-.3-1-.3-.8-.5-1.3-.6-1.7-.1-.4-.3-.8-.5-1.4-.2-.6-.4-1-.6-1.2l-.6-.9c-.3-.3-.5-.6-.7-.7-.4-.3-.7-.4-.999-.5-.3-.1-.7-.2-1.099-.2H1.899c.1.6.1 1.1.1 1.7v5.8H0v-16h1.999v5c0 .6 0 1.2-.1 1.8h1.699c.5 0 .999-.1 1.399-.4.4-.2.8-.5 1.099-.8.3-.2.6-.7.899-1.5.3-.7.6-1.3.7-1.7.2-.4.4-1.1.8-2.2 0-.1.1-.2.1-.3h2.099c-.899 2.6-1.499 4.2-1.899 5-.8 1.6-1.799 2.4-2.998 2.6-.1.1-.2.1-.3.1zm8.295 8.4v-16c1.299-.1 3.098-.2 5.497-.2 1.899 0 3.198.4 3.998 1.1.7.7 1.099 2 1.099 4 0 1.9-.4 3.3-1.099 4-.7.7-1.999 1.1-3.798 1.1-1.199 0-2.498-.1-3.698-.2v6.4h-1.999v-.2zm2.098-8h3.398c1.199 0 1.999-.2 2.399-.7.4-.4.7-1.3.7-2.6s-.2-2.1-.7-2.6c-.4-.5-1.299-.7-2.399-.7H15.89v6.6zm12.293-6.5c.899-1.2 2.598-1.8 4.897-1.8s3.998.6 4.897 1.8 1.399 3.4 1.399 6.5-.5 5.3-1.399 6.5-2.498 1.8-4.897 1.8c-2.299 0-3.998-.6-4.897-1.8s-1.399-3.4-1.399-6.5.499-5.3 1.399-6.5zm8.195 1.4c-.6-.9-1.699-1.4-3.198-1.4-1.599 0-2.598.5-3.198 1.4-.6.9-.899 2.6-.899 5.1s.3 4.2.899 5.1c.6.9 1.699 1.4 3.198 1.4 1.599 0 2.598-.5 3.198-1.4.6-.9.899-2.6.899-5.1 0-2.5-.299-4.2-.899-5.1zm14.191 4.8c1.199.2 1.999.6 2.498 1.3.5.7.7 1.7.7 3.1 0 1.6-.4 2.7-1.099 3.3-.8.6-2.099.9-3.898.9-2.498 0-4.497-.1-5.896-.2V43.1c1.199-.1 2.898-.2 5.197-.2 1.999 0 3.398.3 4.098.9.8.6 1.199 1.7 1.199 3.3 0 1.2-.2 2-.6 2.6-.6.6-1.299 1-2.199 1.1zm-5.796-.8h3.398c1.199 0 1.999-.2 2.399-.6.4-.4.7-1.1.7-2.1 0-1.1-.2-1.8-.7-2.1-.5-.4-1.399-.5-2.698-.5h-3.098l-.001 5.3zm0 1.6v6h3.598c1.299 0 2.199-.2 2.598-.6.5-.4.7-1.1.7-2.2 0-1.2-.2-2.1-.7-2.5s-1.399-.7-2.698-.7h-3.498zm23.286-8.5v16.1H66.06V44.7h-3.198c-.999 0-1.599.5-1.699 1.6-.2 2.3-.3 3.9-.4 4.7-.1.8-.2 1.7-.4 2.6-.2.9-.5 1.7-.8 2.4-.899 2-2.299 3.1-3.998 3.1l-.2-1.6c1.099-.3 1.799-1 2.299-2 .4-1 .7-2.1.899-3.2.2-1.2.4-3.3.6-6.3.2-2 1.199-2.9 3.198-2.9h5.698zm6.596 8.9v-.1c-1.999-.3-2.998-1.7-2.898-4.3 0-1.7.4-2.9 1.199-3.6.8-.7 2.099-1.1 3.898-1.1 2.299 0 4.098.1 5.397.2v16.1h-1.999v-6.5h-3.498c-1.099 0-1.799.6-2.099 1.7l-1.399 4.8h-2.199l1.499-4.9c.3-1.3.999-2.1 2.099-2.3zm5.496-1.2v-6.2h-3.398c-1.099 0-1.899.2-2.399.7-.4.4-.7 1.2-.7 2.4 0 1.1.2 1.9.7 2.4.4.5 1.199.8 2.299.8h3.498v-.1z" fill="#444"/><path d="M101.139 43.1v16.1H99.14V44.7h-7.296v14.4h-1.999v-16h11.294zm3.997 16v-16c1.299-.1 3.098-.2 5.497-.2 1.899 0 3.198.4 3.998 1.1.7.7 1.099 2 1.099 4 0 1.9-.4 3.3-1.099 4-.7.7-1.999 1.1-3.798 1.1-1.199 0-2.399-.1-3.698-.2v6.4h-1.999v-.2zm1.999-8h3.398c1.199 0 1.999-.2 2.399-.7.4-.4.7-1.3.7-2.6s-.2-2.1-.7-2.6c-.4-.5-1.299-.7-2.399-.7h-3.398v6.6zm12.393-6.5c.899-1.2 2.598-1.8 4.897-1.8s3.998.6 4.897 1.8 1.399 3.4 1.399 6.5-.5 5.3-1.399 6.5-2.498 1.8-4.897 1.8-3.998-.6-4.897-1.8c-.899-1.2-1.399-3.4-1.399-6.5-.001-3.1.399-5.3 1.399-6.5zm8.095 1.4c-.6-.9-1.699-1.4-3.198-1.4s-2.598.5-3.198 1.4-.899 2.6-.899 5.1.3 4.2.899 5.1c.6.9 1.699 1.4 3.198 1.4s2.598-.5 3.198-1.4c.6-.9.899-2.6.899-5.1 0-2.5-.3-4.2-.899-5.1zm14.891-4.2V44c2.698.1 4.597.7 5.597 1.7 1.099 1 1.599 2.8 1.599 5.2s-.6 4.1-1.599 5.1c-1.099 1-2.998 1.6-5.597 1.7V60h-1.999v-2.3c-2.698-.1-4.597-.6-5.597-1.7-1.099-1-1.599-2.7-1.599-5.1 0-2.5.5-4.2 1.599-5.2s2.998-1.6 5.697-1.7v-2.3h1.899v.1zM140.615 56V45.7c-1.999.1-3.398.5-4.098 1.2-.8.7-1.099 2.1-1.099 4s.4 3.2 1.099 3.9c.7.7 2.099 1.1 4.098 1.2zm1.799-10.3V56c1.999-.1 3.398-.5 4.098-1.2.8-.7 1.099-2 1.199-3.9 0-1.9-.4-3.2-1.199-4-.7-.7-2.1-1.1-4.098-1.2zM164.9 59.1h-1.999V47.4c0-.7 0-1.3.1-1.8h-.1c-.2.5-.5 1.1-.8 1.7l-6.996 11.8h-2.099v-16h1.999v11.6c0 .6 0 1.2-.1 1.9h.1c.2-.5.5-1.1.899-1.7l6.996-11.8h2.1v16h-.1z" fill="#C01E2E"/></svg>