<svg xmlns="http://www.w3.org/2000/svg" width="20" height="20" y="904"><path fill="#F83030" d="M13.705 16.069c-.999-1.004-1.999-1.808-1.999-1.808l-1.499 1.506-5.996-6.025L5.71 8.235s-.799-1.004-1.799-2.009-1.998-1.807-1.998-1.807S.114 6.126.014 7.432c-.2 1.808 1.699 4.921 4.597 7.934 2.898 2.912 6.096 4.821 7.894 4.62 1.299-.1 2.998-1.908 2.998-1.908s-.799-1.005-1.798-2.009z"/><path fill="#666" d="M20 5.021C20 2.209 17.202 0 13.705 0S7.409 2.31 7.409 5.021c0 2.511 2.298 4.62 5.296 5.021.2 1.004-.1 2.009-.899 2.712a3.134 3.134 0 0 0 3.098-2.712C17.802 9.541 20 7.532 20 5.021zm-9.493 1.005c-.6 0-.999-.402-.999-1.004s.4-1.004.999-1.004c.6 0 .999.402.999 1.004s-.5 1.004-.999 1.004zm3.198 0c-.6 0-.999-.402-.999-1.004s.4-1.004.999-1.004.999.402.999 1.004-.5 1.004-.999 1.004zm3.197 0c-.6 0-.999-.402-.999-1.004s.4-1.004.999-1.004c.6 0 .999.402.999 1.004s-.399 1.004-.999 1.004z"/></svg>