<svg xmlns="http://www.w3.org/2000/svg" width="30" height="30" y="824"><path fill="#C01E2E" d="M29.985 18.423c0-.805-.3-1.611-.9-2.114.6-.705.999-1.611.9-2.617-.2-1.711-1.699-3.02-3.498-3.02h-8.296c.4-1.208 1.099-3.523 1.099-5.336C19.29 2.416 16.791 0 15.192 0c-1.399 0-2.399.805-2.399.805-.2.101-.3.302-.3.503v4.53l-3.898 8.356-.2.101v-.302c0-.403-.3-.705-.7-.705H3.398C1.499 13.289 0 14.799 0 16.611v10.772C0 29.195 1.499 30 3.398 30h1.599c1.499 0 2.699-.201 3.198-1.51 1.099.604 2.599.906 3.598.906h12.394c1.499 0 2.799-1.007 3.098-2.315.2-.705.1-1.409-.2-2.013.999-.503 1.699-1.51 1.699-2.718 0-.503-.1-.906-.3-1.309.901-.403 1.501-1.41 1.501-2.618zM7.096 27.584c0 1.107-.9 1.309-1.999 1.309H3.498c-1.099 0-1.999-.201-1.999-1.309V16.812c0-1.107.9-2.013 1.999-2.013h3.598v12.785zm20.09-7.45c-.3 0-.5.201-.6.503-.1.201 0 .503.2.705.3.302.5.805.5 1.208 0 .805-.6 1.611-1.499 1.611-.3 0-.5.201-.6.503-.1.201 0 .503.2.705.4.403.6 1.007.5 1.611-.2.705-.9 1.309-1.699 1.309H11.794c-.999 0-2.599-.403-3.398-1.007V15.906l.999-.503.3-.302 4.098-8.758c0-.101.1-.201.1-.302v-4.33c.3-.201.8-.403 1.399-.403.7 0 2.699 1.812 2.699 4.027 0 2.416-1.299 5.738-1.299 5.839-.1.201-.1.403.1.604.1.201.3.302.6.302h9.295c1.099 0 2.099.805 2.199 1.812.1.805-.3 1.51-.999 1.913-.2.101-.3.403-.3.604s.1.503.4.604c.6.302.9.906.9 1.51-.202.806-.901 1.511-1.701 1.611z"/></svg>