<svg xmlns="http://www.w3.org/2000/svg" width="97" height="97" y="632"><path fill="#FFF" d="M48.5 97C21.8 97 0 75.2 0 48.5S21.8 0 48.5 0 97 21.8 97 48.5C96.9 75.2 75.2 97 48.5 97zm0-95C22.9 2 2 22.9 2 48.5S22.9 95 48.5 95 95 74.1 95 48.5 74.1 2 48.5 2z"/><path fill="#FFF" d="M67.4 34.4l-2.2-2.2c-1.4-1.4-3.9-1.5-5.4-.2l-3.9 3.4s-.1.1-.1.2L52 41.9l-2.4.8c-.2.1-.4.2-.4.5s0 .4.2.6l6.6 6.6c.1.1.3.2.4.2h.1c.2 0 .4-.2.5-.4l.8-2.4 6.4-3.9c.1 0 .1-.1.2-.1l3.3-3.8c1.2-1.8 1.1-4.2-.3-5.6zm-.8 4.6l-3.2 3.7-6.5 3.9-.3.3-.6 1.8-1.5-1.5-2.2-2.2-1.5-1.5 1.7-.6c.1 0 .3-.1.3-.3l3.9-6.4 3.8-3.3c1.1-.9 2.7-.9 3.7.1l2.2 2.2c1.1 1 1.1 2.7.2 3.8z"/><path fill="#FFF" d="M64.3 61.7l-19.1-19 .4-.4c.1-.1.2-.3.2-.5 0 0 0-2.6.8-4.1.9-1.6 3.4-4.2 3.5-4.2.2-.2.2-.4.1-.7-.1-.2-.3-.4-.6-.4-.1 0-3.1-.7-5 .3-1.8.9-4.9 4-5 4.1L34 42.5c-.1.1-.2.3-.2.4 0 .2.1.3.2.4l.4.4-2.2 2.2-.4-.4c-.2-.2-.6-.2-.9 0l-2.2 2.2c-.1.1-.2.3-.2.4 0 .2.1.3.2.4l5.1 4.6c.1.1.3.2.4.2.2 0 .3-.1.4-.2l2.2-2.2c.2.1.2-.1.2-.2 0-.2-.1-.3-.2-.4l-.4-.4 2.2-2.2.4.4c.2.2.6.2.9 0l1.8-1.8 4.2 4.2-6.3 6.3-3.9 2.2-.3.3-1.8 3.5c-.1.2-.1.5.1.7l2.2 2.2c.1.1.3.2.4.2.1 0 .2 0 .3-.1l3.5-1.8c.1-.1.2-.1.3-.3l2.2-3.9 6.3-6.3 11.7 11.7c.5.5 1.1.7 1.8.7.6 0 1.3-.2 1.8-.7 1.1-.9 1.1-2.5.1-3.5zm-24.8-15l-.4-.4c-.2-.2-.6-.2-.9 0l-3.1 3.1c-.1.1-.2.3-.2.4 0 .2.1.3.2.4l.4.4-1.3 1.4-4.2-3.7 1.3-1.3.4.4c.2.2.6.2.9 0l3.1-3.1c.1-.1.2-.3.2-.4s-.1-.3-.2-.4l-.4-.5 5.3-5.3s3-3 4.7-3.9c1-.6 2.3-.7 3.3-.6-.9.9-2.6 2.9-3.1 3.9-.8 1.5-.9 3.7-1 4.5l-5 5.1zM41.8 59l-.1.1-2.2 3.9-3 1.5-1.5-1.6 1.5-3 3.9-2.2c.1 0 .1-.1.1-.1l6.4-6.4 1.3 1.3-6.4 6.5zm21.6 5.4c-.5.5-1.3.5-1.8 0l-19.1-19 1.8-1.8 19.1 19c.5.5.5 1.3 0 1.8z"/></svg>