<svg xmlns="http://www.w3.org/2000/svg" width="97" height="97" y="438"><g fill="#FFF"><path d="M68.5 58.9l-.5-1.7-17.2 4.4c-.8-2.5-3.2-4.4-6-4.4-.7 0-1.3.1-1.9.3l-5.7-24-7.6-6-1.2 1.3 7.1 5.6 5.7 23.8c-1.6 1.1-2.7 3-2.7 5.1 0 3.4 2.8 6.2 6.2 6.2 3.5 0 6.2-2.8 6.2-6.1l17.6-4.5zm-23.7 8.9c-2.5 0-4.5-2.1-4.5-4.5 0-2.5 2.1-4.5 4.5-4.5 2.5 0 4.5 2 4.5 4.5s-2.1 4.5-4.5 4.5z"/><path d="M47 43.9l3.8 14.7 15.5-3.9L62.5 40l-3.2.8-2.7-10.4-12.3 3.1L47 43.9zm8.4-11.3l2.2 8.6-8.8 2.2-2.2-8.6 8.8-2.2zm8.8 20.9l-12.1 3-2.9-11.4 12.1-3 2.9 11.4z"/></g><path fill="#FFF" d="M48.5 97C21.8 97 0 75.2 0 48.5S21.8 0 48.5 0 97 21.8 97 48.5C96.9 75.2 75.2 97 48.5 97zm0-95C22.9 2 2 22.9 2 48.5S22.9 95 48.5 95 95 74.1 95 48.5 74.1 2 48.5 2z"/></svg>