<svg xmlns="http://www.w3.org/2000/svg" width="30" height="35" y="759"><g fill="#C01E2E"><path d="M15 19.139c3.806 0 7.012-3.112 7.012-6.927S18.906 5.286 15 5.286c-3.806 0-7.012 3.112-7.012 6.927s3.105 6.926 7.012 6.926zm0-12.448c3.105 0 5.609 2.51 5.609 5.521S18.105 17.734 15 17.734s-5.609-2.51-5.609-5.521c0-3.112 2.504-5.522 5.609-5.522z"/><path d="M29.925 29.178l-5.109-8.934-.1-.1c.501-.201.801-.803.801-1.405l-.401-3.212 2.204-2.309c.501-.502.501-1.305 0-1.907L25.217 9l.501-3.212c.1-.703-.401-1.405-1.102-1.506l-3.205-.602L19.908.869c-.301-.703-1.102-.903-1.803-.703L15.2 1.471 12.195.166c-.301-.201-.701-.201-1.002-.1-.401.1-.601.301-.801.602L8.79 3.479l-3.206.602c-.701.1-1.202.803-1.102 1.506l.401 3.212-2.204 2.309c-.501.502-.501 1.305 0 1.907l2.204 2.409-.501 3.112c-.1.602.301 1.205.902 1.506L.075 29.177c-.1.201-.1.502 0 .703s.301.301.601.301h5.609l2.504 4.417c.101.201.301.302.602.302.3 0 .501-.1.601-.301L15 26.166l5.008 8.533c.1.201.301.301.601.301.2 0 .501-.1.601-.301l2.504-4.517h5.609c.2 0 .501-.1.601-.301a.857.857 0 0 0 .001-.703zM3.581 12.112l2.204-2.309c.301-.301.501-.703.401-1.104l-.401-3.112v-.1l3.205-.603c.401-.1.801-.301 1.002-.703l1.603-2.811L14.5 2.775c.401.201.902.201 1.302 0l2.905-1.305 1.503 2.911c.2.301.501.602.902.602l3.205.602-.501 3.212c-.1.402.1.903.301 1.104l2.204 2.409-2.204 2.309c-.301.301-.501.703-.401 1.104l.401 3.212-3.107.505c-.401.1-.801.301-1.002.703l-1.603 2.811-2.905-1.405a1.481 1.481 0 0 0-1.302 0l-2.905 1.305-1.402-2.811a1.84 1.84 0 0 0-1.002-.703l-3.205-.502.501-3.212c.1-.402-.1-.903-.301-1.104l-2.303-2.41zm5.81 20.78l-2.204-3.714c-.1-.201-.301-.301-.601-.301H1.778l4.808-8.432 2.003.301 1.503 2.811c.301.703 1.102.903 1.803.703l1.402-.703.701 1.205-4.607 8.13zm13.923-4.015c-.2 0-.501.1-.601.301l-2.204 3.815-4.908-8.432c0-.1-.1-.201-.1-.201L15 23.355l-.2-.402.2-.1.501.201 2.404 1.104c.2.1.401.1.601.1.501 0 1.002-.201 1.202-.703l1.603-2.811 2.104-.402 4.808 8.332h-4.908v.203z"/></g></svg>