<svg xmlns="http://www.w3.org/2000/svg" width="30" height="30" y="729"><path fill="#C01E2E" d="M17.409.1C17.01 0 16.71 0 16.311 0c-2.496 0-4.693 1.296-5.492 3.588-.1.1-.3.1-.399.199-2.297.897-3.894 3.09-4.893 6.578-.1.199 0 .399.1.598.2.299.599.299.899.1.1-.1.2-.199.2-.299.799-2.89 2.097-4.784 3.794-5.581-.2 2.791 1.598 4.286 4.393 4.286h.899c.599-.1 1.098-.1 1.697-.1 4.393 0 6.99 1.794 6.99 1.794S22.801.897 17.409.1zm-1.597 7.973h-.799c-1.598 0-2.297-.498-2.696-.897-.399-.498-.599-1.296-.499-2.292v-.199c2.696-.498 5.292 1.096 5.292 1.096.2.1.499.1.699-.1.3-.199.3-.598.1-.897 0-.1-.1-.1-.2-.199-.1-.1-2.596-1.595-5.492-1.395.2-.399.499-.698.899-.997a5.14 5.14 0 0 1 2.996-.997c.3 0 .599 0 .899.1.899.1 1.797.698 2.596 1.595.699.797 1.398 1.993 1.997 3.389.399.897.599 1.694.899 2.492-1.598-.498-3.395-.797-5.092-.797-.401-.002-1 .098-1.599.098zm12.98 11.761c0-.199.1-.299.1-.498.399-2.492-.599-5.083-2.996-7.674-.1-.199-.3-.199-.599-.199-.3.1-.599.399-.499.797 0 .1.1.299.2.299 1.997 2.193 2.796 4.286 2.696 6.279-.799-.598-1.498-.797-2.197-.797-1.598 0-2.996 1.296-3.894 3.588-2.297 5.183-5.692 6.977-5.692 6.977S19.406 30 22.901 30c2.197 0 4.393-.498 5.592-2.292 1.797-2.592 2.097-5.681.299-7.874zm-1.298 6.977c-.899 1.196-2.396 1.794-4.693 1.794-1.498 0-2.996-.299-4.194-.598 1.298-1.196 2.796-3.09 4.094-5.98.399-.897.899-1.694 1.398-2.193.499-.399.899-.598 1.398-.598.499 0 1.198.299 1.797.797.1 0 .1.1.2.1-.899 2.691-3.595 4.286-3.595 4.286-.2.1-.399.399-.3.698.1.399.399.598.699.498.1 0 .1 0 .2-.1s2.596-1.595 3.894-4.286c.3.498.399 1.096.399 1.794.001 1.296-.498 2.592-1.297 3.788zm-12.681 1.395c-.1 0-.2-.1-.399 0-2.796.698-4.893.498-6.49-.698 2.696-1.395 2.796-4.086.899-6.977-3.095-4.684-2.896-8.771-2.896-8.771S-1.662 18.438.335 23.72c.999 2.591 2.996 4.286 5.292 4.286.3 0 .599 0 .899-.1.1.1.3.199.399.399 1.198 1.096 2.796 1.595 4.693 1.595.999 0 1.997-.1 3.095-.399.2 0 .399-.199.399-.399.201-.398.001-.796-.299-.896zm-7.888-1.694c-1.697-2.193-1.697-5.382-1.697-5.482 0-.299-.2-.498-.399-.598-.3-.1-.699 0-.799.399v.199c0 .199 0 3.189 1.598 5.681-.799 0-1.598-.299-2.297-.897-.799-.598-1.398-1.495-1.797-2.591-.3-.897-.3-1.993 0-3.189.3-1.096.899-2.193 1.797-3.488.499-.797 1.098-1.395 1.598-1.993.399 1.794 1.098 4.186 2.796 6.678.899 1.395 1.298 2.591.999 3.488-.2.698-.799 1.296-1.697 1.694.098-.001-.002.099-.102.099z"/></svg>