<svg xmlns="http://www.w3.org/2000/svg" width="97" height="97" y="535"><path fill="#FFF" d="M48.5 97C21.8 97 0 75.2 0 48.5S21.8 0 48.5 0 97 21.8 97 48.5C96.9 75.2 75.2 97 48.5 97zm0-95C22.9 2 2 22.9 2 48.5S22.9 95 48.5 95 95 74.1 95 48.5 74.1 2 48.5 2z"/><path fill="#FFF" d="M67.6 29.5H29.3c-.5 0-.8.4-.8.8v30.1c0 3.9 3.2 7.1 7.2 7.1 2.8 0 5.2-1.5 6.4-3.8 1.2 2.3 3.6 3.8 6.4 3.8s5.2-1.5 6.4-3.8c1.2 2.3 3.6 3.8 6.4 3.8 4 0 7.2-3.2 7.2-7.1V30.3c0-.5-.4-.8-.9-.8zM41.2 60.4c0 3-2.5 5.5-5.6 5.5S30 63.4 30 60.4v-6.5c1.3 1.6 3.3 2.6 5.6 2.6 2.2 0 4.2-1 5.6-2.6v6.5zm0-11.1c0 3.1-2.5 5.5-5.6 5.5S30 52.3 30 49.3v-6.5c1.3 1.6 3.3 2.6 5.6 2.6 2.2 0 4.2-1 5.6-2.6v6.5zm0-11c0 3-2.5 5.5-5.6 5.5S30 41.3 30 38.3v-7.2h11.1v7.2h.1zM54 60.4c0 3-2.5 5.5-5.6 5.5s-5.6-2.5-5.6-5.5v-6.5c1.3 1.6 3.3 2.6 5.6 2.6s4.2-1 5.6-2.6v6.5zm0-11.1c0 3.1-2.5 5.5-5.6 5.5s-5.6-2.5-5.6-5.5v-6.5c1.3 1.6 3.3 2.6 5.6 2.6s4.2-1 5.6-2.6v6.5zm0-11c0 3-2.5 5.5-5.6 5.5s-5.6-2.5-5.6-5.5v-7.2h11.1v7.2h.1zm12.8 22.1c0 3-2.5 5.5-5.6 5.5s-5.6-2.5-5.6-5.5v-6.5c1.3 1.6 3.3 2.6 5.6 2.6s4.2-1 5.6-2.6v6.5zm0-11.1c0 3.1-2.5 5.5-5.6 5.5s-5.6-2.5-5.6-5.5v-6.5c1.3 1.6 3.3 2.6 5.6 2.6s4.2-1 5.6-2.6v6.5zm0-11c0 3-2.5 5.5-5.6 5.5s-5.6-2.5-5.6-5.5v-7.2h11.2v7.2z"/></svg>