<svg xmlns="http://www.w3.org/2000/svg" width="30" height="30" y="794"><path fill="#C01E2E" d="M10.884 23.314c.601-.2 1.101-.699 1.401-1.297.2-.499.3-1.098.1-1.497l-3.403-8.482-4.404 1.696 3.303 8.283c.2.599.701 1.098 1.301 1.297.5.299 1.101.299 1.702 0zm.4.698c-.3.1-.601.2-.901.2l1.101 1.497c.2.2.4.399.601.299.2-.1.3-.299.3-.599l-.2-1.796c-.401.1-.601.3-.901.399zM5.079 1.659C4.579.362 2.977-.337 1.676.162.274.661-.326 2.158.174 3.555l3.703 9.281 4.904-1.896-3.702-9.281zm.4 7.983h-.3c-.3 0-.601-.2-.701-.399L1.976 2.856c-.1-.399.1-.798.4-.898.1 0 .2-.1.3-.1.3 0 .601.2.701.399l2.602 6.487c.1.399-.1.798-.5.898zm20.217 8.283c.3 0 .601-.299.601-.599 0-.299-.3-.599-.601-.599h-5.605c-.3 0-.601.299-.601.599 0 .299.3.599.601.599h5.605zm0 6.586h-9.208c-.3 0-.601.299-.601.599s.3.599.601.599h9.208c.3 0 .601-.299.601-.599s-.3-.599-.601-.599zm-11.109-3.293c0 .299.3.599.601.599h10.509c.3 0 .601-.299.601-.599 0-.299-.3-.599-.601-.599h-10.51c-.3 0-.6.3-.6.599zm12.911-8.682H11.084l.601 1.497h15.814c.601 0 1.001.399 1.001.998v12.474c0 .499-.5.998-1.001.998H9.883c-.4 0-.701.399-.701.798s.3.699.701.699h17.615C28.899 30 30 28.902 30 27.605V14.931c0-1.297-1.101-2.395-2.502-2.395z"/></svg>