<svg width="1920" height="376" fill="none" xmlns="http://www.w3.org/2000/svg"><path d="m-26.933 367.984-2.516 2.434 4.867 5.031 2.515-2.433-4.866-5.032ZM112 263.5l1.687 3.067L112 263.5Zm1658.5-73 1.98 2.885-1.98-2.885Zm98.5-90 2.53 2.418-2.53-2.418Zm82.33-92.936 2.06-2.827-5.65-4.128-2.07 2.827 5.66 4.128ZM-15.832 367.07a3.5 3.5 0 0 0-4.798-5.097l4.798 5.097Zm8.036-16.935a3.5 3.5 0 0 0 4.698 5.189l-4.698-5.189Zm17.64-6.338a3.5 3.5 0 1 0-4.613-5.264l4.614 5.264Zm8.6-16.657a3.5 3.5 0 1 0 4.529 5.338l-4.529-5.338Zm17.835-5.759a3.5 3.5 0 0 0-4.437-5.415l4.437 5.415Zm9.164-16.351a3.5 3.5 0 1 0 4.334 5.497l-4.334-5.497Zm18.043-5.071a3.5 3.5 0 0 0-4.21-5.593l4.21 5.593Zm9.893-15.923a3.5 3.5 0 1 0 4.057 5.704l-4.057-5.704Zm18.29-4.064a3.5 3.5 0 1 0-3.855-5.843l3.855 5.843Zm11.016-15.177a3.5 3.5 0 0 0 3.569 6.022l-3.569-6.022Zm18.198-2.114a3.5 3.5 0 1 0-3.276-6.185l3.276 6.185Zm11.504-13.723a3.5 3.5 0 0 0 3.084 6.284l-3.084-6.284Zm17.894-.705a3.5 3.5 0 1 0-2.89-6.375l2.89 6.375Zm12.318-12.994a3.5 3.5 0 0 0 2.695 6.461l-2.695-6.461Zm17.906.389a3.5 3.5 0 1 0-2.494-6.54l2.494 6.54Zm13.101-12.207a3.5 3.5 0 1 0 2.286 6.616l-2.286-6.616Zm17.839 1.523a3.5 3.5 0 0 0-2.069-6.688l2.069 6.688Zm13.87-11.328a3.5 3.5 0 0 0 1.842 6.753l-1.842-6.753Zm17.698 2.725a3.5 3.5 0 1 0-1.602-6.814l1.602 6.814Zm14.635-10.32a3.501 3.501 0 0 0 1.349 6.869l-1.349-6.869Zm17.446 4.028a3.499 3.499 0 1 0-1.081-6.916l1.081 6.916Zm15.394-9.147a3.5 3.5 0 1 0 .795 6.954l-.795-6.954Zm17.055 5.45a3.5 3.5 0 0 0-.492-6.983l.492 6.983Zm16.132-7.772a3.5 3.5 0 1 0 .169 6.998l-.169-6.998Zm16.435 6.906a3.5 3.5 0 0 0 .012-7l-.012 7Zm16.273-6.926a3.5 3.5 0 1 0-.055 7l.055-7Zm16.158 7.197a3.5 3.5 0 0 0 .118-6.999l-.118 6.999Zm16.403-6.634a3.5 3.5 0 1 0-.198 6.997l.198-6.997Zm15.982 7.56a3.5 3.5 0 1 0 .292-6.994l-.292 6.994Zm16.566-6.191a3.5 3.5 0 1 0-.4 6.988l.4-6.988Zm15.748 8.051a3.501 3.501 0 0 0 .521-6.981l-.521 6.981Zm16.778-5.612a3.5 3.5 0 1 0-.655 6.969l.655-6.969Zm15.43 8.651a3.5 3.5 0 1 0 .803-6.953l-.803 6.953Zm16.994-4.895a3.5 3.5 0 0 0-.965 6.933l.965-6.933Zm15.007 9.36a3.501 3.501 0 0 0 1.14-6.907l-1.14 6.907Zm17.227-4.025a3.5 3.5 0 1 0-1.331 6.872l1.331-6.872Zm14.464 10.175a3.5 3.5 0 0 0 1.537-6.83l-1.537 6.83Zm17.436-2.982a3.5 3.5 0 0 0-1.759 6.776l1.759-6.776Zm13.77 11.098a3.5 3.5 0 0 0 1.998-6.709l-1.998 6.709Zm17.602-1.738a3.5 3.5 0 0 0-2.253 6.627l2.253-6.627Zm12.878 12.12a3.499 3.499 0 1 0 2.526-6.528l-2.526 6.528Zm17.685-.274a3.5 3.5 0 1 0-2.815 6.409l2.815-6.409Zm12.183 13.265a3.5 3.5 0 1 0 2.892-6.374l-2.892 6.374Zm18.196.333a3.5 3.5 0 0 0-2.722 6.449l2.722-6.449Zm12.944 12.783a3.501 3.501 0 0 0 2.518-6.532l-2.518 6.532Zm18.155-.83a3.501 3.501 0 0 0-2.27 6.622l2.27-6.622Zm13.882 11.763a3.5 3.5 0 0 0 1.966-6.718l-1.966 6.718Zm18.018-2.481a3.5 3.5 0 0 0-1.595 6.816l1.595-6.816Zm15.084 10.166a3.5 3.5 0 0 0 1.148-6.906l-1.148 6.906Zm17.528-4.801a3.5 3.5 0 1 0-.623 6.972l.623-6.972Zm16.434 7.789a3.5 3.5 0 0 0 .039-7l-.039 7Zm16.508-7.619a3.5 3.5 0 1 0 .562 6.977l-.562-6.977Zm17.498 4.911a3.5 3.5 0 0 0-1.12-6.91l1.12 6.91Zm15.116-10.126a3.5 3.5 0 1 0 1.578 6.82l-1.578-6.82Zm17.918 2.369a3.5 3.5 0 1 0-2.234-6.634l2.234 6.634Zm12.729-12.574a3.5 3.5 0 1 0 2.872 6.384l-2.872-6.384Zm17.834-.941a3.5 3.5 0 1 0-3.25-6.199l3.25 6.199Zm11.06-14.065a3.5 3.5 0 0 0 3.473 6.078l-3.473-6.078Zm17.717-2.27a3.5 3.5 0 1 0-3.591-6.008l3.591 6.008Zm10.476-14.496a3.5 3.5 0 1 0 3.63 5.985l-3.63-5.985Zm17.692-2.511a3.5 3.5 0 1 0-3.598-6.004l3.598 6.004Zm10.623-14.383a3.5 3.5 0 1 0 3.496 6.064l-3.496-6.064Zm17.77-1.9a3.5 3.5 0 0 0-3.31-6.168l3.31 6.168Zm11.489-13.695a3.5 3.5 0 1 0 3.015 6.318l-3.015-6.318Zm17.864-.179a3.5 3.5 0 0 0-2.563-6.514l2.563 6.514Zm13.359-11.897a3.5 3.5 0 1 0 1.87 6.745l-1.87-6.745Zm17.823 3.08a3.503 3.503 0 0 0 2.619-4.202 3.504 3.504 0 0 0-4.203-2.617l1.584 6.819Zm14.479-10.836a3.496 3.496 0 0 0-2.49 4.274 3.496 3.496 0 0 0 4.27 2.497l-1.78-6.771Zm17.91 2.486a3.492 3.492 0 0 0 2.48-4.281 3.497 3.497 0 0 0-4.28-2.485l1.8 6.766Zm14.36-10.954a3.5 3.5 0 0 0-2.55 4.246 3.507 3.507 0 0 0 4.25 2.544l-1.7-6.79Zm17.83 2.95a3.5 3.5 0 0 0 2.65-4.181 3.496 3.496 0 0 0-4.18-2.65l1.53 6.831Zm14.91-10.237a3.5 3.5 0 1 0 1.3 6.878l-1.3-6.878Zm17.58 4.111a3.497 3.497 0 0 0 2.94-3.98 3.498 3.498 0 0 0-3.98-2.943l1.04 6.923Zm15.63-9.07a3.509 3.509 0 0 0-3.11 3.854 3.508 3.508 0 0 0 3.86 3.105l-.75-6.959Zm17.2 5.551a3.5 3.5 0 0 0-.44-6.986l.44 6.986Zm16.35-7.682a3.505 3.505 0 0 0-3.43 3.567 3.506 3.506 0 0 0 3.57 3.432l-.14-6.999Zm16.63 7.044a3.5 3.5 0 0 0 3.58-3.413 3.497 3.497 0 0 0-3.41-3.585l-.17 6.998Zm16.96-6.221a3.5 3.5 0 1 0-.47 6.984l.47-6.984Zm16 8.447a3.499 3.499 0 1 0 .76-6.958l-.76 6.958Zm17.39-4.794a3.496 3.496 0 0 0-3.98 2.941 3.5 3.5 0 0 0 2.94 3.982l1.04-6.923Zm15.28 9.697a3.5 3.5 0 1 0 1.3-6.878l-1.3 6.878Zm17.71-3.461a3.5 3.5 0 1 0-1.55 6.826l1.55-6.826Zm14.28 10.673a3.504 3.504 0 0 0 4.26-2.524 3.497 3.497 0 0 0-2.53-4.258l-1.73 6.782Zm17.13-2.684a3.5 3.5 0 1 0-1.87 6.746l1.87-6.746Zm13.4 11.145a3.499 3.499 0 0 0 4.36-2.35 3.505 3.505 0 0 0-2.35-4.356l-2.01 6.706Zm17.24-1.98a3.51 3.51 0 0 0-4.41 2.261 3.501 3.501 0 0 0 2.26 4.403l2.15-6.664Zm12.93 11.674a3.494 3.494 0 0 0 4.44-2.175 3.495 3.495 0 0 0-2.17-4.447l-2.27 6.622Zm17.32-1.31a3.497 3.497 0 0 0-4.48 2.099 3.497 3.497 0 0 0 2.1 4.483l2.38-6.582Zm12.49 12.082c1.8.681 3.82-.233 4.5-2.042a3.491 3.491 0 0 0-2.04-4.509l-2.46 6.551Zm17.35-.874a3.498 3.498 0 0 0-4.52 2.012 3.505 3.505 0 0 0 2.01 4.522l2.51-6.534Zm12.36 12.243a3.501 3.501 0 0 0 2.5-6.54l-2.5 6.54Zm17.35-.961a3.502 3.502 0 0 0-4.49 2.079 3.51 3.51 0 0 0 2.08 4.492l2.41-6.571Zm12.67 11.915a3.5 3.5 0 1 0 2.25-6.628l-2.25 6.628Zm17.29-1.808a3.504 3.504 0 0 0-4.36 2.346 3.491 3.491 0 0 0 2.35 4.358l2.01-6.704Zm13.47 10.989a3.5 3.5 0 1 0 1.71-6.787l-1.71 6.787Zm17.06-3.307a3.501 3.501 0 0 0-1.38 6.863l1.38-6.863Zm14.48 9.635a3.49 3.49 0 0 0 3.97-2.944 3.495 3.495 0 0 0-2.94-3.979l-1.03 6.923Zm16.66-4.975a3.507 3.507 0 0 0-3.84 3.132 3.504 3.504 0 0 0 3.14 3.833l.7-6.965Zm15.28 8.218a3.508 3.508 0 0 0 3.7-3.297 3.502 3.502 0 0 0-3.3-3.692l-.4 6.989Zm16.17-6.409a3.504 3.504 0 0 0-3.56 3.438 3.506 3.506 0 0 0 3.44 3.561l.12-6.999Zm15.89 7.053a3.496 3.496 0 0 0 3.48-3.515 3.497 3.497 0 0 0-3.51-3.484l.03 6.999Zm15.79-7.151a3.5 3.5 0 1 0 .11 6.999l-.11-6.999Zm16.01 6.64a3.506 3.506 0 0 0 3.4-3.604 3.508 3.508 0 0 0-3.61-3.393l.21 6.997Zm15.57-7.618a3.494 3.494 0 0 0-3.32 3.668 3.494 3.494 0 0 0 3.67 3.324l-.35-6.992Zm16.25 6.033a3.498 3.498 0 0 0 3.24-3.742 3.497 3.497 0 0 0-3.74-3.239l.5 6.981Zm15.21-8.324a3.5 3.5 0 1 0 .69 6.965l-.69-6.965Zm16.55 5.134a3.505 3.505 0 0 0 3.02-3.928 3.51 3.51 0 0 0-3.93-3.012l.91 6.94Zm14.64-9.277a3.495 3.495 0 0 0-2.86 4.036 3.491 3.491 0 0 0 4.03 2.866l-1.17-6.902Zm16.89 3.913a3.5 3.5 0 1 0-1.45-6.848l1.45 6.848Zm13.83-10.444c-1.87.485-3 2.396-2.51 4.267a3.505 3.505 0 0 0 4.27 2.508l-1.76-6.775Zm17.17 2.37a3.512 3.512 0 0 0 2.3-4.385 3.508 3.508 0 0 0-4.39-2.295l2.09 6.68Zm12.74-11.745a3.5 3.5 0 0 0 2.44 6.563l-2.44-6.563Zm17.33.578a3.5 3.5 0 0 0 1.81-4.605 3.496 3.496 0 0 0-4.6-1.816l2.79 6.421Zm11.4-13.053a3.496 3.496 0 0 0-1.56 4.698 3.502 3.502 0 0 0 4.7 1.559l-3.14-6.257Zm17.28-1.337a3.505 3.505 0 0 0 1.29-4.777 3.492 3.492 0 0 0-4.77-1.295l3.48 6.072Zm9.89-14.235a3.494 3.494 0 0 0-1.03 4.841 3.5 3.5 0 0 0 4.84 1.033l-3.81-5.874Zm17.37-3.582a3.497 3.497 0 0 0 .67-4.903 3.495 3.495 0 0 0-4.9-.673l4.23 5.576Zm8.67-15.915a3.5 3.5 0 0 0 4.49 5.37l-4.49-5.37Zm17.21-5.577a3.5 3.5 0 1 0-4.63-5.249l4.63 5.249Zm7.73-16.381a3.5 3.5 0 0 0-.21 4.945 3.494 3.494 0 0 0 4.94.214l-4.73-5.159Zm16.99-6.263a3.502 3.502 0 0 0-4.82-5.084l4.82 5.084Zm7.2-16.616a3.495 3.495 0 0 0-.07 4.95 3.501 3.501 0 0 0 4.95.066l-4.88-5.016Zm16.8-6.75a3.513 3.513 0 0 0 0-4.95 3.5 3.5 0 0 0-4.95.002l4.95 4.948Zm6.73-16.81a3.504 3.504 0 0 0 .07 4.95 3.501 3.501 0 0 0 4.95-.074l-5.02-4.876Zm16.18-6.812a3.502 3.502 0 0 0-5.12-4.78l5.12 4.78Zm5.31-16.152a3.5 3.5 0 0 0 5.2 4.684l-5.2-4.684Zm15.51-6.962a3.497 3.497 0 0 0-.34-4.938 3.49 3.49 0 0 0-4.93.34l5.27 4.598Zm4.78-16.319a3.505 3.505 0 0 0 .42 4.933 3.497 3.497 0 0 0 4.93-.412l-5.35-4.52Zm15.31-7.413a3.51 3.51 0 0 0-.48-4.927 3.504 3.504 0 0 0-4.93.478l5.41 4.45Zm4.33-16.436a3.5 3.5 0 1 0 5.46 4.378l-5.46-4.378Zm15.11-7.823a3.503 3.503 0 0 0-.61-4.912 3.496 3.496 0 0 0-4.91.61l5.52 4.302ZM1941.1 9.6a3.506 3.506 0 0 0 .69 4.9 3.498 3.498 0 0 0 4.9-.693L1941.1 9.6ZM-22.067 373.016a636.207 636.207 0 0 1 6.235-5.945l-4.798-5.097a647.183 647.183 0 0 0-6.303 6.01l4.866 5.032Zm18.97-17.691c4.03-3.651 8.366-7.517 12.942-11.527l-4.614-5.264a1065.916 1065.916 0 0 0-13.027 11.602l4.698 5.189Zm26.07-22.846c4.31-3.657 8.76-7.372 13.306-11.097l-4.437-5.415a1030.608 1030.608 0 0 0-13.398 11.174l4.529 5.338Zm26.804-21.951c4.529-3.57 9.11-7.107 13.71-10.568l-4.21-5.593a784.904 784.904 0 0 0-13.834 10.664l4.334 5.497Zm27.659-20.787c4.782-3.4 9.54-6.672 14.233-9.768l-3.855-5.843a500.794 500.794 0 0 0-14.435 9.907l4.057 5.704Zm28.818-18.923a266.04 266.04 0 0 1 7.433-4.251l-3.374-6.134a275.377 275.377 0 0 0-7.628 4.363l3.569 6.022Zm7.433-4.251a522.625 522.625 0 0 1 7.196-3.885l-3.276-6.185a526.104 526.104 0 0 0-7.294 3.936l3.374 6.134Zm21.784-11.324a538.38 538.38 0 0 1 14.81-6.989l-2.89-6.375a543.855 543.855 0 0 0-15.004 7.08l3.084 6.284Zm29.823-13.522a531.106 531.106 0 0 1 15.211-6.072l-2.494-6.54a536.937 536.937 0 0 0-15.412 6.151l2.695 6.461Zm30.598-11.663a501.418 501.418 0 0 1 15.553-5.093l-2.069-6.688a511.05 511.05 0 0 0-15.77 5.165l2.286 6.616Zm31.265-9.668a465.948 465.948 0 0 1 15.856-4.028l-1.602-6.814a470.002 470.002 0 0 0-16.096 4.089l1.842 6.753Zm31.84-7.479a419.417 419.417 0 0 1 16.097-2.841l-1.081-6.916a427.09 427.09 0 0 0-16.365 2.888l1.349 6.869Zm32.286-5.034a374.897 374.897 0 0 1 16.26-1.504l-.492-6.983c-5.534.389-11.058.903-16.563 1.533l.795 6.954Zm32.561-2.278c2.718-.066 5.437-.099 8.156-.099v-7c-2.776 0-5.551.034-8.325.101l.169 6.998ZM332 205.5c2.667 0 5.371.002 8.11.007l.012-7A4454.41 4454.41 0 0 0 332 198.5v7Zm24.328.081c5.303.041 10.711.104 16.213.197l.118-6.999a1821.15 1821.15 0 0 0-16.276-.198l-.055 7Zm32.418.56c5.325.15 10.722.335 16.18.563l.292-6.994a1208.17 1208.17 0 0 0-16.274-.566l-.198 6.997Zm32.346 1.36c5.339.306 10.725.658 16.148 1.063l.521-6.981a943.208 943.208 0 0 0-16.269-1.07l-.4 6.988Zm32.271 2.42a766.99 766.99 0 0 1 16.085 1.682l.803-6.953a763.932 763.932 0 0 0-16.233-1.698l-.655 6.969Zm32.114 3.72c5.318.74 10.644 1.547 15.972 2.427l1.14-6.907a643.695 643.695 0 0 0-16.147-2.453l-.965 6.933Zm31.868 5.274a534.829 534.829 0 0 1 15.795 3.303l1.537-6.83a543.135 543.135 0 0 0-16.001-3.345l-1.331 6.872Zm31.472 7.097a454.657 454.657 0 0 1 15.529 4.322l1.998-6.709a465.635 465.635 0 0 0-15.768-4.389l-1.759 6.776Zm30.878 9.211a387.992 387.992 0 0 1 15.131 5.493l2.526-6.528a395.136 395.136 0 0 0-15.404-5.592l-2.253 6.627Zm30.001 11.628a339.318 339.318 0 0 1 7.321 3.319l2.966-6.34a345.805 345.805 0 0 0-7.472-3.388l-2.815 6.409Zm7.321 3.319a707.649 707.649 0 0 0 7.677 3.537l2.892-6.374a722.583 722.583 0 0 1-7.603-3.503l-2.966 6.34Zm23.151 10.319a538.105 538.105 0 0 0 15.666 6.334l2.518-6.532a528.667 528.667 0 0 1-15.462-6.251l-2.722 6.449Zm31.551 12.126a372.777 372.777 0 0 0 16.152 5.141l1.966-6.718a365.436 365.436 0 0 1-15.848-5.045l-2.27 6.622Zm32.575 9.476a260.904 260.904 0 0 0 16.679 3.35l1.148-6.906a253.141 253.141 0 0 1-16.232-3.26l-1.595 6.816Zm33.584 5.521c5.846.523 11.518.786 17.057.817l.039-7a197.29 197.29 0 0 1-16.473-.789l-.623 6.972Zm34.127.175a211.672 211.672 0 0 0 16.936-2.066l-1.12-6.91a205.361 205.361 0 0 1-16.378 1.999l.562 6.977Zm33.63-5.372a320.286 320.286 0 0 0 8.245-2.027l-1.76-6.776a312.22 312.22 0 0 1-8.063 1.983l1.578 6.82Zm8.245-2.027a119.686 119.686 0 0 0 8.095-2.424l-2.234-6.634a112.449 112.449 0 0 1-7.621 2.282l1.76 6.776Zm23.696-8.614c4.917-2.213 9.911-4.677 14.962-7.325l-3.25-6.199c-4.954 2.597-9.821 4.997-14.584 7.14l2.872 6.384Zm29.495-15.312a847.118 847.118 0 0 0 14.244-8.348l-3.591-6.008a842.576 842.576 0 0 1-14.126 8.278l3.473 6.078Zm28.35-16.859c4.68-2.838 9.369-5.683 14.062-8.496l-3.598-6.004c-4.713 2.824-9.418 5.679-14.094 8.515l3.63 5.985Zm28.181-16.815a539.237 539.237 0 0 1 14.274-7.964l-3.31-6.168a542.677 542.677 0 0 0-14.46 8.068l3.496 6.064Zm28.778-15.341c5.008-2.391 9.963-4.574 14.849-6.497l-2.563-6.514c-5.064 1.993-10.171 4.245-15.301 6.693l3.015 6.318Zm30.078-11.649c2.611-.724 5.191-1.35 7.74-1.868l-1.396-6.86a121.22 121.22 0 0 0-8.214 1.983l1.87 6.745Zm7.74-1.868a308.47 308.47 0 0 0 8.213-1.797l-1.584-6.819c-2.73.634-5.403 1.223-8.025 1.756l1.396 6.86Zm24.472-5.862c5.2-1.364 10.59-2.815 16.13-4.285l-1.8-6.766c-5.57 1.48-10.91 2.919-16.11 4.28l1.78 6.771Zm32.19-8.449c5.22-1.308 10.59-2.6 16.13-3.84l-1.53-6.831a657.287 657.287 0 0 0-16.3 3.881l1.7 6.79Zm32.34-7.199c5.28-1 10.7-1.931 16.28-2.767l-1.04-6.923c-5.67.851-11.18 1.797-16.54 2.812l1.3 6.878Zm32.66-4.878c5.35-.574 10.83-1.05 16.45-1.408l-.44-6.986c-5.73.365-11.32.849-16.76 1.435l.75 6.959Zm32.94-2.091c5.37-.104 10.86-.094 16.49.045l.17-6.998c-5.73-.141-11.32-.151-16.8-.046l.14 6.999Zm32.98.808c5.37.364 10.86.848 16.47 1.463l.76-6.958c-5.7-.626-11.29-1.118-16.76-1.489l-.47 6.984Zm32.82 3.592a432.95 432.95 0 0 1 16.32 2.774l1.3-6.878a442.75 442.75 0 0 0-16.58-2.819l-1.04 6.923Zm32.48 6.139c2.67.607 5.37 1.243 8.09 1.909l1.66-6.798c-2.76-.677-5.49-1.322-8.2-1.937l-1.55 6.826Zm8.09 1.909c2.62.643 5.2 1.289 7.74 1.938l1.73-6.782c-2.56-.655-5.16-1.307-7.81-1.954l-1.66 6.798Zm23 6a773.793 773.793 0 0 1 15.27 4.399l2.01-6.706a788.084 788.084 0 0 0-15.41-4.439l-1.87 6.746Zm30.36 9.083c5.19 1.668 10.21 3.34 15.08 5.01l2.27-6.622c-4.91-1.683-9.97-3.37-15.2-5.052l-2.15 6.664Zm30.02 10.282c5.1 1.846 10.04 3.682 14.87 5.5l2.46-6.551a1232 1232 0 0 0-14.95-5.531l-2.38 6.582Zm29.71 11.16c5.05 1.939 10 3.848 14.87 5.709l2.5-6.54c-4.87-1.857-9.8-3.759-14.86-5.703l-2.51 6.534Zm29.81 11.319c5.04 1.85 10.05 3.636 15.08 5.344l2.25-6.628a657.219 657.219 0 0 1-14.92-5.287l-2.41 6.571Zm30.36 10.24a360.09 360.09 0 0 0 15.48 4.285l1.71-6.787a355.65 355.65 0 0 1-15.18-4.202l-2.01 6.704Zm31.16 7.841c5.14 1.032 10.41 1.96 15.86 2.772l1.03-6.923a315.735 315.735 0 0 1-15.51-2.712l-1.38 6.863Zm31.82 4.762c5.16.52 10.48.94 15.98 1.253l.4-6.989c-5.41-.307-10.63-.719-15.68-1.229l-.7 6.965Zm32.03 1.843c2.64.047 5.33.071 8.06.071v-7c-2.69 0-5.33-.023-7.94-.07l-.12 6.999Zm8.06.071c2.66 0 5.31-.005 7.95-.017l-.03-6.999c-2.63.011-5.27.016-7.92.016v7Zm23.85-.169c5.33-.083 10.64-.199 15.9-.359l-.21-6.997c-5.23.159-10.49.275-15.8.357l.11 6.999Zm31.82-.985c5.33-.262 10.64-.579 15.9-.959l-.5-6.981c-5.21.375-10.46.689-15.75.948l.35 6.992Zm31.8-2.318c5.32-.53 10.61-1.137 15.86-1.831l-.91-6.94a494.86 494.86 0 0 1-15.64 1.806l.69 6.965Zm31.67-4.206c5.27-.893 10.51-1.886 15.72-2.989l-1.45-6.848a385.717 385.717 0 0 1-15.44 2.935l1.17 6.902Zm31.31-6.658a327.27 327.27 0 0 0 15.41-4.405l-2.09-6.68a319.431 319.431 0 0 1-15.08 4.31l1.76 6.775Zm30.59-9.587c4.99-1.851 9.95-3.843 14.89-5.985l-2.79-6.421c-4.82 2.09-9.66 4.035-14.54 5.843l2.44 6.563Zm29.43-12.781c4.73-2.377 9.45-4.905 14.14-7.594l-3.48-6.072c-4.58 2.623-9.18 5.09-13.8 7.409l3.14 6.257Zm27.84-15.955c2.23-1.446 4.45-2.931 6.67-4.456l-3.96-5.77c-2.17 1.49-4.34 2.94-6.52 4.352l3.81 5.874Zm6.67-4.456c2.13-1.463 4.44-3.139 6.89-5l-4.23-5.576c-2.39 1.81-4.6 3.419-6.62 4.806l3.96 5.77Zm20.05-15.545c4.03-3.371 8.29-7.041 12.72-10.947l-4.63-5.249c-4.39 3.871-8.6 7.5-12.58 10.826l4.49 5.37Zm25.18-22.169c4.02-3.686 8.12-7.507 12.26-11.422l-4.82-5.084c-4.11 3.891-8.18 7.687-12.17 11.347l4.73 5.159Zm24.34-23.022c3.99-3.882 7.97-7.816 11.92-11.766l-4.95-4.948c-3.93 3.928-7.89 7.839-11.85 11.698l4.88 5.016Zm23.67-23.7c1.96-2.016 3.9-4.028 5.81-6.031l-5.06-4.836c-1.9 1.989-3.83 3.988-5.77 5.991l5.02 4.876Zm5.81-6.031a739.38 739.38 0 0 0 5.35-5.657l-5.12-4.78c-1.76 1.88-3.52 3.75-5.29 5.601l5.06 4.836Zm15.86-17.125c3.5-3.88 6.94-7.774 10.31-11.646l-5.27-4.598c-3.35 3.845-6.77 7.71-10.24 11.56l5.2 4.684Zm20.44-23.444c3.43-4.06 6.76-8.052 9.96-11.934l-5.41-4.449a1000.95 1000.95 0 0 1-9.9 11.862l5.35 4.52Zm19.75-23.992c3.46-4.32 6.7-8.413 9.65-12.2l-5.52-4.304c-2.94 3.763-6.15 7.83-9.59 12.126l5.46 4.378Zm19.11-24.549a574.85 574.85 0 0 0 4.64-6.244l-5.66-4.128a500.434 500.434 0 0 1-4.57 6.165l5.59 4.207Z" fill="#FFBA00"/></svg>