<svg width="375" height="449" fill="none" xmlns="http://www.w3.org/2000/svg"><path d="m183.446 11.5-.116 3.498.058.002h.058v-3.5ZM337.996 131l3.466.481-3.466-.481Zm-154.55 102v-3.5 3.5ZM30.996 338.5h3.5-3.5Zm152.45 106-.028-3.5.028 3.5Zm180.55 0-.06 3.5h.06v-3.5Zm34.5 3.5a3.5 3.5 0 1 0 0-7v7ZM-41.888.502a3.5 3.5 0 0 0-.233 6.996l.233-6.996Zm7.82 7.264A3.5 3.5 0 1 0-33.837.77l-.233 6.996Zm16.336-6.46a3.5 3.5 0 1 0-.233 6.996l.233-6.996Zm15.87 7.531a3.5 3.5 0 1 0 .233-6.996l-.232 6.996Zm16.337-6.46a3.5 3.5 0 0 0-.233 6.996l.233-6.996Zm15.87 7.532a3.5 3.5 0 1 0 .233-6.996l-.232 6.996Zm16.337-6.46a3.5 3.5 0 0 0-.233 6.995l.233-6.996Zm15.87 7.531a3.5 3.5 0 1 0 .234-6.996l-.233 6.996ZM78.89 4.52a3.5 3.5 0 1 0-.233 6.996l.233-6.996Zm15.871 7.532a3.5 3.5 0 0 0 .233-6.996l-.233 6.996Zm16.336-6.46a3.5 3.5 0 0 0-.232 6.995l.232-6.996Zm15.871 7.531a3.5 3.5 0 0 0 .233-6.996l-.233 6.996Zm16.337-6.46a3.5 3.5 0 1 0-.233 6.996l.233-6.996Zm15.87 7.532a3.5 3.5 0 1 0 .233-6.997l-.233 6.997Zm16.337-6.46a3.5 3.5 0 0 0-.233 6.995l.233-6.996Zm15.399 7.455a3.5 3.5 0 0 0 .354-6.99l-.354 6.99Zm15.897-5.439a3.5 3.5 0 1 0-1.028 6.924l1.028-6.924Zm13.657 9.798a3.5 3.5 0 0 0 1.652-6.802l-1.652 6.802Zm16.621-2.472a3.5 3.5 0 1 0-2.229 6.636l2.229-6.636Zm11.775 11.995a3.5 3.5 0 1 0 2.767-6.43l-2.767 6.43Zm16.804.29a3.5 3.5 0 1 0-3.272 6.188l3.272-6.188Zm9.701 13.726a3.5 3.5 0 0 0 3.756-5.907l-3.756 5.907Zm16.548 2.978a3.5 3.5 0 1 0-4.227 5.58l4.227-5.58Zm7.313 15.134a3.5 3.5 0 0 0 4.699-5.188l-4.699 5.188Zm15.767 5.84a3.5 3.5 0 1 0-5.181 4.707l5.181-4.707Zm4.191 16.244a3.5 3.5 0 0 0 5.684-4.086l-5.684 4.086Zm14.004 9.338a3.5 3.5 0 0 0-6.208 3.236l6.208-3.236Zm-.649 16.735a3.5 3.5 0 1 0 6.707-2.005l-6.707 2.005Zm9.366 13.935a3.5 3.5 0 1 0-6.997.187l6.997-.187Zm-8.551 14.525a3.5 3.5 0 1 0 6.884 1.268l-6.884-1.268Zm3.412 16.083a3.5 3.5 0 1 0-6.725-1.94l6.725 1.94Zm-11.552 11.803a3.5 3.5 0 0 0 6.455 2.71l-6.455-2.71Zm-.406 16.462a3.5 3.5 0 0 0-6.038-3.542l6.038 3.542Zm-14.192 8.309a3.5 3.5 0 0 0 5.458 4.383l-5.458-4.383Zm-5.116 15.669a3.5 3.5 0 1 0-4.728-5.162l4.728 5.162Zm-16.05 3.74a3.5 3.5 0 1 0 3.908 5.807l-3.908-5.807Zm-9.446 13.491a3.5 3.5 0 0 0-3.071-6.291l3.071 6.291Zm-16.473-.76a3.5 3.5 0 0 0 2.278 6.619l-2.278-6.619Zm-12.453 10.803a3.499 3.499 0 1 0-1.56-6.824l1.56 6.824Zm-15.952-4.244a3.501 3.501 0 0 0 .925 6.939l-.925-6.939Zm-14.204 8.328a3.5 3.5 0 0 0-.367-6.99l.367 6.99Zm-15.08-6.747a3.5 3.5 0 0 0-.126 6.999l.126-6.999Zm-15.279 6.261a3.5 3.5 0 1 0 .529-6.98l-.529 6.98Zm-15.869-7.383a3.5 3.5 0 1 0 .212 6.997l-.212-6.997Zm-16.824 8.049a3.5 3.5 0 0 0-.656-6.969l.656 6.969Zm-18.037-4.733a3.5 3.5 0 1 0 1.137 6.907l-1.137-6.907Zm-15.542 10.311a3.498 3.498 0 0 0 2.562-4.234 3.499 3.499 0 0 0-4.234-2.563l1.672 6.797Zm-18.555-1.851a3.5 3.5 0 0 0 2.276 6.62l-2.276-6.62Zm-13.42 12.936a3.5 3.5 0 1 0-2.965-6.341l2.965 6.341Zm-18.528 2.145a3.5 3.5 0 0 0 3.748 5.912l-3.748-5.912Zm-9.679 15.899a3.5 3.5 0 0 0-4.61-5.269l4.61 5.269Zm-16.984 7.66a3.5 3.5 0 0 0 5.482 4.353l-5.483-4.353Zm-3.476 18.278a3.5 3.5 0 1 0-6.24-3.171l6.24 3.171Zm-12.71 13.599a3.5 3.5 0 1 0 6.751 1.85l-6.751-1.85Zm3.896 18.206a3.5 3.5 0 1 0-6.976-.577l6.976.577Zm-6.933 17.331a3.5 3.5 0 0 0 6.971-.638l-6.97.638Zm10.049 15.669a3.5 3.5 0 0 0-6.721 1.956l6.72-1.956Zm-.045 18.618a3.5 3.5 0 0 0 6.214-3.223l-6.214 3.223Zm15.227 10.732a3.5 3.5 0 1 0-5.504 4.325l5.504-4.325Zm6.716 17.363a3.501 3.501 0 0 0 4.689-5.199l-4.688 5.199Zm17.96 5.033a3.5 3.5 0 1 0-3.855 5.842l3.855-5.842Zm11.56 14.598a3.5 3.5 0 0 0 3.064-6.293l-3.064 6.293Zm18.649.214a3.5 3.5 0 1 0-2.34 6.597l2.34-6.597Zm14.543 11.66a3.5 3.5 0 0 0 1.692-6.793l-1.692 6.793Zm18.36-3.395a3.5 3.5 0 1 0-1.115 6.911l1.115-6.911Zm16.303 9.054a3.499 3.499 0 1 0 .605-6.973l-.605 6.973Zm17.646-6.064a3.501 3.501 0 0 0-.151 6.999l.151-6.999Zm16.14 6.996a3.5 3.5 0 1 0-.054-7l.054 7Zm15.007-7.107a3.5 3.5 0 0 0 .046 7l-.046-7Zm15.085 6.909a3.5 3.5 0 1 0-.038-7l.038 7Zm15.005-7.074a3.5 3.5 0 0 0 .03 7l-.03-7Zm15.069 6.944a3.5 3.5 0 1 0-.021-7l.021 7Zm15.035-7.036a3.5 3.5 0 1 0 .012 6.999l-.012-6.999Zm15.062 6.983a3.5 3.5 0 1 0-.002-7l.002 7Zm15.036-6.994a3.5 3.5 0 1 0-.008 7l.008-7Zm15.046 7.03a3.5 3.5 0 1 0 .021-7l-.021 7Zm15.074-6.941a3.5 3.5 0 1 0-.034 7l.034-7Zm14.977 7.094a3.5 3.5 0 0 0 .053-7l-.053 7Zm15.138-6.854a3.5 3.5 0 1 0-.085 6.999l.085-6.999ZM372.621 448a3.5 3.5 0 1 0 0-7v7Zm17.25-7a3.5 3.5 0 1 0 0 7v-7ZM-42.12 7.498l8.051.268.233-6.996-8.052-.268-.233 6.996Zm24.155.804 16.104.535.232-6.996-16.103-.535-.233 6.996Zm32.207 1.071 16.104.536.232-6.996-16.103-.536-.233 6.996Zm32.207 1.072 16.104.535.233-6.996-16.104-.536-.233 6.996Zm32.207 1.071 16.104.536.233-6.996-16.104-.536-.233 6.996Zm32.208 1.071 16.103.536.233-6.996-16.104-.536-.232 6.996Zm32.207 1.072 16.103.536.233-6.997-16.103-.535-.233 6.996Zm32.207 1.071 8.052.268.233-6.996-8.052-.268-.233 6.996Zm8.168.27c2.492 0 4.981.064 7.464.19l.354-6.99c-2.599-.133-5.206-.2-7.818-.2v7Zm22.333 1.675a165.07 165.07 0 0 1 14.685 2.874l1.652-6.802a171.81 171.81 0 0 0-15.309-2.996l-1.028 6.924Zm29.077 7.038a182.553 182.553 0 0 1 14.004 5.36l2.767-6.43a189.378 189.378 0 0 0-14.542-5.566l-2.229 6.636Zm27.536 11.837a187.893 187.893 0 0 1 12.973 7.538l3.756-5.907a194.863 194.863 0 0 0-13.457-7.819l-3.272 6.188Zm25.294 16.095a171.474 171.474 0 0 1 11.54 9.555l4.699-5.188a178.481 178.481 0 0 0-12.012-9.946l-4.227 5.58Zm22.126 20.102c3.439 3.785 6.574 7.644 9.372 11.537l5.684-4.086c-2.964-4.123-6.268-8.188-9.875-12.158l-5.181 4.707Zm17.168 24.11c2.368 4.543 4.233 9.062 5.559 13.5l6.707-2.005c-1.467-4.91-3.51-9.84-6.058-14.73l-6.208 3.236Zm7.928 27.622a42.883 42.883 0 0 1-.379 7.04l6.933.962c.374-2.693.517-5.427.443-8.189l-6.997.187Zm-.379 7.04a167.767 167.767 0 0 1-1.175 7.298l6.884 1.268c.456-2.475.864-5.009 1.224-7.604l-6.933-.962Zm-4.488 21.441a124.93 124.93 0 0 1-4.827 13.743l6.455 2.71a132.168 132.168 0 0 0 5.097-14.513l-6.725-1.94Zm-11.271 26.663a98.253 98.253 0 0 1-8.154 11.851l5.458 4.383a105.347 105.347 0 0 0 8.734-12.692l-6.038-3.542Zm-17.998 22.358a96.523 96.523 0 0 1-11.322 8.902l3.908 5.807a103.47 103.47 0 0 0 12.142-9.547l-4.728-5.162Zm-23.839 16.102a118.212 118.212 0 0 1-13.402 5.531l2.278 6.619a125.274 125.274 0 0 0 14.195-5.859l-3.071-6.291Zm-27.415 9.51a158.124 158.124 0 0 1-14.392 2.58l.925 6.939c4.883-.65 9.92-1.528 15.027-2.695l-1.56-6.824Zm-28.963 3.918a209.37 209.37 0 0 1-14.713.243l-.126 6.999c4.603.082 9.723.036 15.206-.252l-.367-6.99Zm-29.463-.476c-3.47-.263-6.312-.535-7.646-.535v7c.982 0 3.261.222 7.117.515l.529-6.98Zm-7.646-.535c-2.923 0-5.841.044-8.752.132l.212 6.997a282.1 282.1 0 0 1 8.54-.129v-7Zm-26.232 1.212a252.296 252.296 0 0 0-17.381 2.236l1.137 6.907a245.473 245.473 0 0 1 16.9-2.174l-.656-6.969Zm-34.595 5.75a195.864 195.864 0 0 0-16.883 4.946l2.276 6.62a189.03 189.03 0 0 1 16.279-4.769l-1.672-6.797Zm-33.267 11.541c-5.447 2.546-10.651 5.372-15.564 8.486l3.748 5.912c4.642-2.943 9.583-5.627 14.78-8.057l-2.965-6.341ZM59.5 267.119c-4.533 3.967-8.68 8.273-12.376 12.929l5.483 4.353c3.418-4.306 7.267-8.308 11.502-12.013l-4.61-5.269Zm-22.092 28.036a88.6 88.6 0 0 0-6.47 16.77l6.752 1.85a81.61 81.61 0 0 1 5.959-15.449l-6.24-3.171Zm-9.549 34.399a108.622 108.622 0 0 0-.363 8.946h7c0-2.859.114-5.649.34-8.369l-6.977-.577Zm-.363 8.946c0 3.017.136 6.006.407 8.962l6.97-.638a91.22 91.22 0 0 1-.377-8.324h-7Zm3.734 26.587a91.88 91.88 0 0 0 6.676 16.662l6.214-3.223a84.919 84.919 0 0 1-6.17-15.395l-6.72 1.956Zm16.4 31.719c3.61 4.595 7.689 8.951 12.22 13.038l4.688-5.199c-4.245-3.828-8.048-7.893-11.405-12.164l-5.504 4.325Zm26.324 23.913c4.794 3.163 9.935 6.089 15.415 8.756l3.064-6.293c-5.219-2.541-10.095-5.317-14.624-8.305l-3.855 5.842Zm31.724 15.567a182.458 182.458 0 0 0 16.883 5.063l1.692-6.793a175.434 175.434 0 0 1-16.235-4.867l-2.34 6.597Zm34.128 8.579a238.428 238.428 0 0 0 17.418 2.143l.605-6.973a232.021 232.021 0 0 1-16.908-2.081l-1.115 6.911Zm34.913 3.078c2.88.062 5.799.081 8.756.057l-.057-7a284.83 284.83 0 0 1-8.548-.056l-.151 6.999Zm8.756.057 7.535-.06-.054-7-7.538.06.057 7Zm22.588-.167c5.122-.034 10.136-.064 15.039-.091l-.038-7c-4.906.027-9.923.057-15.047.091l.046 7Zm30.074-.165c5.149-.022 10.163-.041 15.039-.056l-.021-7c-4.879.015-9.896.034-15.048.056l.03 7Zm30.086-.093c5.199-.009 10.216-.014 15.05-.016l-.002-7c-4.838.002-9.859.007-15.06.017l.012 6.999Zm30.078-.01c5.286.006 10.306.016 15.054.03l.021-7c-4.753-.014-9.777-.024-15.067-.03l-.008 7Zm30.094.089c5.502.027 10.51.059 15.011.094l.053-7c-4.507-.035-9.522-.066-15.03-.094l-.034 7Zm30.064.239c2.961.036 5.457.072 7.477.107l.12-6.999c-2.035-.035-4.543-.071-7.512-.107l-.085 6.999Zm7.537.107h8.625v-7h-8.625v7Zm25.875 0h8.625v-7h-8.625v7Z" fill="#FFBA00"/></svg>