<svg width="20" height="20" fill="none" xmlns="http://www.w3.org/2000/svg"><path d="M10.002 19.794c-2.665 0-2.979-.014-4.019-.06a7.132 7.132 0 0 1-2.367-.487 5.004 5.004 0 0 1-2.85-2.85 7.14 7.14 0 0 1-.453-2.37c-.06-1.037-.06-1.377-.06-4.022 0-2.672.013-2.984.06-4.019A7.14 7.14 0 0 1 .767 3.62 4.994 4.994 0 0 1 3.619.77 7.077 7.077 0 0 1 5.985.314C7.02.255 7.36.255 10.002.255c2.687 0 2.996.014 4.02.059.81.015 1.613.17 2.372.455a5 5 0 0 1 2.852 2.851c.29.768.444 1.581.456 2.402.061 1.038.061 1.377.061 4.02s-.015 2.99-.06 4.016a7.152 7.152 0 0 1-.456 2.372 5.01 5.01 0 0 1-2.853 2.85 7.164 7.164 0 0 1-2.368.455c-1.035.06-1.374.06-4.024.06ZM9.965 1.97c-2.65 0-2.925.013-3.96.06a5.405 5.405 0 0 0-1.807.337A3.238 3.238 0 0 0 2.335 4.22 5.433 5.433 0 0 0 2 6.05c-.058 1.05-.058 1.325-.058 3.956 0 2.6.01 2.916.058 3.959.01.618.123 1.23.336 1.809a3.24 3.24 0 0 0 1.863 1.854c.578.216 1.19.33 1.808.337 1.048.06 1.325.06 3.96.06 2.657 0 2.932-.013 3.958-.06a5.377 5.377 0 0 0 1.809-.337 3.25 3.25 0 0 0 1.852-1.852 5.46 5.46 0 0 0 .337-1.829h.012c.047-1.035.047-1.311.047-3.958 0-2.647-.012-2.925-.059-3.96a5.477 5.477 0 0 0-.337-1.807 3.25 3.25 0 0 0-1.852-1.854 5.355 5.355 0 0 0-1.81-.337c-1.047-.06-1.32-.06-3.958-.06Zm.037 13.04A5.008 5.008 0 1 1 15.007 10a5.015 5.015 0 0 1-5.005 5.01Zm0-8.262a3.25 3.25 0 1 0 3.25 3.25 3.258 3.258 0 0 0-3.25-3.25Zm5.2-.773a1.168 1.168 0 1 1 .009-2.335 1.168 1.168 0 0 1-.009 2.335Z" fill="#424242"/></svg>