<svg width="40" height="35" fill="none" xmlns="http://www.w3.org/2000/svg"><path fill-rule="evenodd" clip-rule="evenodd" d="M39.558.287c.335.28.497.716.425 1.147l-5.362 32.174a1.232 1.232 0 0 1-1.898.823L16.636 23.706a1.232 1.232 0 0 1-.279-1.794l5.769-7.211-9.486 6.324a1.231 1.231 0 0 1-1.234.077L.68 15.739a1.232 1.232 0 0 1 .136-2.261L38.354.072a1.23 1.23 0 0 1 1.204.215ZM4.364 14.827l7.504 3.752L27.36 8.25a1.232 1.232 0 0 1 1.645 1.795L19.12 22.402l13.384 8.922L37.21 3.096 4.364 14.826Z" fill="#000"/></svg>