<svg width="63" height="80" fill="none" xmlns="http://www.w3.org/2000/svg"><path d="M31.105 80a132.295 132.295 0 0 1-15.553-15.69C8.442 55.818 0 43.172 0 31.12a31.105 31.105 0 0 1 53.11-22 30.906 30.906 0 0 1 9.1 22c0 12.051-8.443 24.697-15.553 33.189A132.303 132.303 0 0 1 31.105 80Zm0-71.096C18.84 8.918 8.902 18.857 8.887 31.12c0 5.181 2.342 14.153 13.486 27.488a124.156 124.156 0 0 0 8.732 9.393 124.87 124.87 0 0 0 8.736-9.38c11.14-13.353 13.481-22.324 13.481-27.5-.014-12.265-9.953-22.204-22.217-22.218Zm0 35.548c-7.363 0-13.33-5.968-13.33-13.33 0-7.363 5.967-13.331 13.33-13.331 7.362 0 13.33 5.968 13.33 13.33a13.33 13.33 0 0 1-13.33 13.33Z" fill="#424242"/></svg>