<svg width="40" height="40" fill="none" xmlns="http://www.w3.org/2000/svg"><path fill-rule="evenodd" clip-rule="evenodd" d="M0 20C0 8.954 8.954 0 20 0s20 8.954 20 20-8.954 20-20 20a19.914 19.914 0 0 1-11.378-3.55l-6.84 3.42A1.232 1.232 0 0 1 .13 38.218l3.42-6.84A19.913 19.913 0 0 1 0 20ZM20 2.463C10.315 2.463 2.463 10.315 2.463 20c0 3.95 1.305 7.591 3.507 10.522l.457.61-2.441 4.882 4.883-2.441.609.457A17.453 17.453 0 0 0 20 37.537c9.685 0 17.537-7.852 17.537-17.537 0-9.685-7.852-17.537-17.537-17.537ZM15.425 13.04a.645.645 0 0 0-1.027-.436l-.674.505v1.261c0 1.361.229 2.668.649 3.886l1.292-1.292a.646.646 0 0 0 .184-.536l-.424-3.388Zm.069 7.579 1.913-1.913a3.109 3.109 0 0 0 .886-2.584l-.423-3.387c-.296-2.368-3.04-3.534-4.95-2.101l-1.166.874c-.31.233-.493.598-.493.986v1.877c0 7.936 6.434 14.369 14.37 14.369h1.876c.364 0 .708-.16.942-.438l.832-.988c1.57-1.864.483-4.726-1.927-5.078l-3.428-.502a3.109 3.109 0 0 0-2.648.878l-1.896 1.895a11.969 11.969 0 0 1-3.888-3.888Zm6.251 5.01a11.89 11.89 0 0 0 3.886.648h1.303l.463-.55a.645.645 0 0 0-.4-1.054l-3.428-.502a.645.645 0 0 0-.55.183l-1.274 1.274Z" fill="#000"/></svg>