<svg width="47" height="60" fill="none" xmlns="http://www.w3.org/2000/svg"><path d="M23.328 60a99.227 99.227 0 0 1-11.664-11.768C6.332 41.864 0 32.38 0 23.341a23.328 23.328 0 0 1 39.832-16.5 23.18 23.18 0 0 1 6.825 16.5c0 9.038-6.332 18.523-11.664 24.891A99.22 99.22 0 0 1 23.328 60Zm0-53.322c-9.198.01-16.652 7.465-16.663 16.663 0 3.886 1.757 10.614 10.115 20.616a93.094 93.094 0 0 0 6.548 7.045 93.659 93.659 0 0 0 6.553-7.035c8.355-10.015 10.11-16.744 10.11-20.626-.01-9.198-7.464-16.652-16.663-16.663Zm0 26.66c-5.521 0-9.997-4.475-9.997-9.997s4.476-9.998 9.997-9.998a9.998 9.998 0 1 1 0 19.996Z" fill="#FFBA00"/></svg>