<svg width="183" height="30" fill="none" xmlns="http://www.w3.org/2000/svg"><path d="M31.15 24.223c-2.786-.315-5.45-4.893-7.8-7.242-2.616-2.617-5.861-6.42-9.059-7.606a10.482 10.482 0 0 0-6.152-.388c-1.042.242-1.987.654-2.883 1.163C2.107 11.99 0 15.406 0 19.282c0 5.861 4.748 10.585 10.585 10.585 3.851 0 7.388-2.083 9.229-5.426-4.869 2.834-14.219 1.163-14.219-5.16a4.92 4.92 0 0 1 1.55-3.608 5 5 0 0 1 3.44-1.381c3.173 0 9.423 8.017 12.644 11.263 2.64 2.665 4.748 4.288 8.866 4.288h.799s1.84-.194 3.464-.92c1.598-.728 3.997-2.908 5.474-6.468h-6.25c-1.065 1.235-2.688 1.962-4.432 1.768Z" fill="#FFBA00"/><path d="M67.29 21.704h17.706v8.114h-25.82V5.402h8.114v16.302ZM86.91 5.402h17.149c.46 0 .896 0 1.332.024.412.025.994.097 1.769.218.751.121 1.429.315 2.059.557.605.243 1.259.606 1.962 1.066a7.206 7.206 0 0 1 1.768 1.647c.484.63.872 1.454 1.187 2.471.315 1.017.46 2.132.46 3.367 0 1.235-.145 2.374-.436 3.391-.291 1.017-.678 1.865-1.138 2.568a8.495 8.495 0 0 1-1.672 1.816 8.944 8.944 0 0 1-1.913 1.211c-.63.291-1.284.533-1.962.703-.679.17-1.26.29-1.769.339-.484.048-.944.097-1.356.097h-9.326v4.941H86.91V5.402Zm16.907 12.28c2.132 0 3.197-.871 3.197-2.64a3.22 3.22 0 0 0-.145-1.017 1.687 1.687 0 0 0-.46-.678 4.92 4.92 0 0 0-.63-.436 1.816 1.816 0 0 0-.751-.218c-.291-.024-.533-.073-.702-.097-.194-.024-.388-.024-.63-.024h-8.672v5.11h8.793Zm35.316-12.28h8.115v24.416h-8.115V21.34H124.6v8.478h-8.115V5.402h8.115v8.454h14.533V5.402Zm32.919.073L183 29.818h-9.398l-1.841-4.093h-12.063l-1.841 4.093h-9.325l10.924-24.343h12.596Zm-9.471 13.201h6.297l-3.173-6.395-3.124 6.395ZM47.088 5.474l10.949 24.343h-9.398l-1.841-4.094H34.735l-1.841 4.094h-9.326L34.493 5.474h12.595Zm-9.47 13.2h6.297l-3.173-6.394-3.125 6.395Z" fill="#262626"/><path d="M21.146.243C16.06.243 11.602 2.956 9.132 7a14.013 14.013 0 0 1 7.945-2.447c2.446 0 4.772.63 6.782 1.744 2.446.824 8.72 6.274 11.481 10.101.63.872 1.09 1.671 1.26 2.301h5.668C41.541 11.627 27.856.243 21.146.243Z" fill="#FFBA00"/></svg>