<svg width="60" height="60" fill="none" xmlns="http://www.w3.org/2000/svg"><path d="M19.14 18.94c-3.577 3.04-4.888 8.582-1.799 13.03a42.722 42.722 0 0 0 10.692 10.69c4.447 3.088 9.99 1.777 13.03-1.8l.033.015a44.748 44.748 0 0 0 12.237 3.66v8.798h-.013C26.738 53.371 6.638 33.037 6.667 6.68v-.012h8.798v.004a44.724 44.724 0 0 0 3.659 12.233l.017.036ZM53.33 60h3.337A3.333 3.333 0 0 0 60 56.667V41.659a3.333 3.333 0 0 0-2.844-3.297l-2.847-.423a38.06 38.06 0 0 1-10.41-3.113l-2.51-1.162a3.333 3.333 0 0 0-4.114 1.087l-1.136 1.59c-.995 1.394-2.896 1.82-4.304.843a36.055 36.055 0 0 1-9.018-9.018c-.978-1.407-.552-3.308.842-4.304l1.59-1.135a3.333 3.333 0 0 0 1.088-4.114l-1.164-2.512a38.058 38.058 0 0 1-3.113-10.41l-.423-2.847A3.333 3.333 0 0 0 18.34 0H3.333A3.333 3.333 0 0 0 0 3.333v3.338C-.032 36.693 23.034 60.043 53.33 60Z" fill="#FFBA00"/></svg>