<?xml version="1.0" encoding="utf-8"?>
<!-- Generator: Adobe Illustrator 17.0.0, SVG Export Plug-In . SVG Version: 6.00 Build 0)  -->
<!DOCTYPE svg PUBLIC "-//W3C//DTD SVG 1.1//EN" "http://www.w3.org/Graphics/SVG/1.1/DTD/svg11.dtd">
<svg version="1.1" id="Слой_1" xmlns="http://www.w3.org/2000/svg" xmlns:xlink="http://www.w3.org/1999/xlink" x="0px" y="0px"
	 width="30px" height="47px" viewBox="0 0 30 47" enable-background="new 0 0 30 47" xml:space="preserve">
<g>
	<ellipse fill="#ffffff" cx="15" cy="45" rx="8" ry="2"/>
	<path fill="#C58F5E" d="M14.8,0C3.6,0,0,9.4,0,15.4c0,4.2,4,11.3,6.6,15.7c2.7,4.8,5.6,9.4,8.4,14.1c1.7-3,7.5-12.8,7.8-13.3
		c2.7-5.1,7.2-11.5,7.2-16.5C30,9,26,0,14.8,0z M15,21.6c-3.3,0-5.9-2.7-5.9-6.1s2.6-6.1,5.9-6.1s5.9,2.7,5.9,6.1S18.3,21.6,15,21.6
		z"/>
</g>
</svg>
