<svg id="Layer_1" data-name="Layer 1" xmlns="http://www.w3.org/2000/svg" viewBox="0 0 496.17 376.87"><title>butt</title><path style="fill:#fff" d="M442.33,443.17h-1.68a8.71,8.71,0,0,1-6.71-10.07l25.18-132.62.84-1.68c2.52-4.2,62.11-92.33,2.52-180.46-16.79-1.68-92.33-8.39-145.21,29.38-27.7,20.14-45.32,50.36-51.2,89V434.78c0,5-3.36,8.39-8.39,8.39s-8.39-3.36-8.39-8.39V235C256,191.37,276.14,157.8,308,134.3c64.63-47,157-32.73,161.15-31.9l3.36.84,1.68,2.52c64.63,91.49,8.39,187.17,0,200.6L449.89,435.62C449,440.66,445.69,443.17,442.33,443.17Z" transform="translate(-8.74 -67.15)"/><path style="fill:#fff" d="M71.34,443.17A8.17,8.17,0,0,1,63,436.46L38.61,306.36c-8.39-13.43-63.79-109.11,1.68-200.6L42,103.24l3.36-.84c4.2-.84,95.69-15.11,161.15,31.9,31.9,22.66,51.2,57.08,58.75,100.72v200.6c0,5-3.36,8.39-8.39,8.39s-8.39-3.36-8.39-8.39V236.7c-5.88-38.61-23.5-68.83-51.2-89C144.37,110,68.83,116.67,51.2,118.35-8.39,206.48,52.88,298,53.72,298.81l.84,1.68L79.74,433.94c.84,4.2-2.52,9.23-6.71,10.07C72.18,443.17,72.18,443.17,71.34,443.17Z" transform="translate(-8.74 -67.15)"/><path style="fill:#fff" d="M265.23,237.53H248.45c-5.88-39.45-23.5-68.83-51.2-89.81C144.37,110,68.83,116.67,52,118.35l-15.95,23.5V115A47.3,47.3,0,0,1,83.93,67.15H430.58A47.3,47.3,0,0,1,478.43,115v29.38L462.48,120c0-.84-.84-.84-.84-1.68-16.79-1.68-92.33-8.39-145.21,29.38C288.73,167.87,271.11,198.09,265.23,237.53ZM83.93,99.88c33.57,0,83.1,5.88,122.54,34.41,23.5,16.79,40.29,39.45,50.36,67.15,10.07-27.7,26.86-50.36,50.36-67.15C360.92,94.85,433.1,99,459.12,101.56c-5-10.07-15.95-17.63-27.7-17.63H83.93c-12.59,0-22.66,7.55-27.7,17.63A210,210,0,0,1,83.93,99.88Z" transform="translate(-8.74 -67.15)"/><path style="fill:#fff" d="M317.27,345.81a7.57,7.57,0,0,1-4.2-.84c-39.45-20.14-64.63-63-64.63-108.28,0-5,2.52-8.39,7.55-8.39h0c5,0,8.39,3.36,8.39,8.39,0,39.45,21.82,76.38,56.24,94,4.2,2.52,5.88,7.55,3.36,10.91C323.15,344.13,320.63,345.81,317.27,345.81Z" transform="translate(-8.74 -67.15)"/><path style="fill:#fff" d="M196.41,345.81a8.81,8.81,0,0,1-7.55-4.2,7.41,7.41,0,0,1,3.36-10.91c34.41-17.63,56.24-54.56,56.24-94,0-5,3.36-8.39,8.39-8.39s8.39,3.36,8.39,8.39c0,45.32-26,88.13-65.47,108.28C198.92,345,198.09,345.81,196.41,345.81Z" transform="translate(-8.74 -67.15)"/></svg>