<?xml version="1.0" encoding="iso-8859-1"?>
<!-- Generator: Adobe Illustrator 19.0.0, SVG Export Plug-In . SVG Version: 6.00 Build 0)  -->
<svg version="1.1" id="Layer_1" xmlns="http://www.w3.org/2000/svg" xmlns:xlink="http://www.w3.org/1999/xlink" x="0px" y="0px"
	 viewBox="0 0 229.387 229.387" style="enable-background:new 0 0 229.387 229.387;" xml:space="preserve">
<g>
	<g>
		<g>
			<path style="fill:#fff" d="M207.351,109.673c-2.259-4.147-7.047-6.171-13.094-5.52c-8.58,0.9-31.976,18.249-43.148,26.878
				c-1.525-6.72-3.784-17.073-4.222-21.259c-0.257-2.423-0.631-9.892-1.065-18.541c-0.74-14.718-1.754-34.872-2.979-46.536
				c-1.002-9.529-3.417-15.404-7.601-18.49c-4.021-2.967-8.554-2.498-11.973-2.127c-6.009,0.631-6.747,8.002-7.546,42.069
				c-0.154,6.605-0.337,14.421-0.679,20.995c-1.801-11.277-4.117-31.116-7.015-65.211c-0.308-3.611-0.529-6.195-0.645-7.315
				c-0.631-6.005-4.96-11.663-10.525-13.759c-4.508-1.709-9.073-0.836-12.545,2.375c-5.108,4.715-5.228,19.476-0.474,58.507
				c0.341,2.809,0.627,5.157,0.803,6.826c0.868,8.258,1.227,16.947,1.057,22.98c-3.107-8.61-7.149-23.019-9.653-31.944
				c-2.371-8.452-4.419-15.751-5.838-19.709c-2.328-6.483-5.194-12.634-10.371-13.731c-4.957-1.034-8.946,3.168-10.268,4.553
				c-4.112,4.309-2.902,16.339,1.071,44.823c0.965,6.925,2.143,15.373,2.726,21.705c-0.481-1.535-0.963-3.156-1.424-4.715
				c-1.699-5.717-3.812-12.836-7.049-20.897c-6.673-16.608-13.809-17.583-17.459-16.656c-4.259,1.057-7.08,5.587-6.56,10.539
				c0.754,7.185,9.74,57.434,21.328,97.049c10.265,35.081,24.605,66.828,58.444,66.825c4.096,0,8.483-0.465,13.177-1.448
				c40.497-8.46,49.177-39.13,52.886-52.225l0.42-1.48c2.685-9.328,23.893-34.111,32.949-44.693
				c2.288-2.675,4.066-4.755,5.025-5.946C208.72,119.096,209.581,113.761,207.351,109.673z M198.805,118.532
				c-0.929,1.156-2.65,3.164-4.865,5.753c-16.312,19.062-31.789,38.033-34.574,47.716l-0.43,1.511
				c-3.591,12.678-11.058,39.059-46.764,46.52c-25.29,5.267-45.565-2.841-62.21-59.742c-12.011-41.047-20.518-90.562-21.048-95.62
				c-0.107-1.006,0.335-1.756,0.436-1.846c0.004,0,0.006,0,0.01,0c0.71,0,4.084,1.981,8.038,11.825
				c3.095,7.706,5.149,14.627,6.798,20.182c3.166,10.665,5.473,18.442,12.577,17.621c1.322-0.138,2.516-0.809,3.364-1.894
				c2.764-3.535,1.843-12.22-1.493-36.135c-1.811-12.997-4.845-34.75-3.227-38.127c1.829-1.914,2.71-2.182,2.712-2.233
				c0.251,0.126,1.827,1.18,4.474,8.562c1.322,3.685,3.431,11.202,5.664,19.16c8.199,29.23,11.782,40.104,15.552,42.914
				c1.813,1.349,3.987,1.547,5.81,0.505c4.38-2.49,5.406-15.1,3.052-37.48c-0.179-1.705-0.469-4.096-0.819-6.956
				C88.08,29.723,87.411,12.334,89.795,9.17c0.448-0.406,1.803-1.653,4.214-0.749c2.731,1.03,5.025,4.056,5.339,7.043
				c0.116,1.097,0.329,3.622,0.631,7.158c6.181,72.7,9.598,81.12,12.834,83.795c1.044,0.86,2.342,1.278,3.604,1.124
				c5.883-0.619,6.605-7.836,7.386-41.201c0.278-11.845,0.686-29.269,2.074-34.391c2.024-0.154,3.453-0.059,4.571,0.766
				c1.49,1.097,3.455,4.214,4.36,12.827c1.204,11.446,2.21,31.471,2.945,46.094c0.46,9.131,0.821,16.343,1.099,18.983
				c0.726,6.909,5.611,27.565,5.818,28.441l1.466,6.187l4.979-3.954c14.745-11.715,38.141-28.488,43.989-29.103
				c2.567-0.268,4.552,0.253,5.155,1.357C200.772,114.487,200.523,116.393,198.805,118.532z"/>
			<path style="fill:#fff" d="M133.265,148.854c-8.499,0.801-25.103,7.572-27.109,27.494c-0.223,2.221,1.395,4.202,3.616,4.427
				c0.138,0.012,0.274,0.02,0.408,0.02c2.05,0,3.806-1.555,4.017-3.634c1.833-18.206,19.105-20.186,19.839-20.261
				c2.214-0.217,3.837-2.182,3.628-4.4C137.455,150.279,135.468,148.633,133.265,148.854z"/>
		</g>
	</g>
</g>
<g>
</g>
<g>
</g>
<g>
</g>
<g>
</g>
<g>
</g>
<g>
</g>
<g>
</g>
<g>
</g>
<g>
</g>
<g>
</g>
<g>
</g>
<g>
</g>
<g>
</g>
<g>
</g>
<g>
</g>
</svg>
