<svg id="Layer_1" data-name="Layer 1" xmlns="http://www.w3.org/2000/svg" viewBox="0 0 512 435.88"><title>thyroid</title><path style="fill:#fff" d="M382.82,373.27V229.21A302.76,302.76,0,0,0,471.44,61.05L473.29,50l-17.87-3-1.84,11.09a284.86,284.86,0,0,1-87.86,162.51h-1v.91a284.53,284.53,0,0,1-70.78,47.43l-12.78,6H230.62a283,283,0,0,1-83.34-54v-.3h-.34C100.48,177.22,68.71,118.86,59.07,54.53L56.59,38.06,38.67,40.74l2.47,16.47a303.89,303.89,0,0,0,88,171.56V373.26a63.52,63.52,0,0,1-47.07,61.29L0,456.43l4.67,17.5L86.77,452a81.65,81.65,0,0,0,60.52-78.78V245a300.37,300.37,0,0,0,78.08,47.33,8.89,8.89,0,0,0,3.45.69h54.36a9.05,9.05,0,0,0,3.86-.86l14.6-6.88a302.83,302.83,0,0,0,63.07-39.87V373.27A81.65,81.65,0,0,0,425.23,452l82.09,21.89,4.67-17.5-82.09-21.89A63.5,63.5,0,0,1,382.82,373.27Z" transform="translate(0 -38.06)"/><path style="fill:#fff" d="M301.78,155.41a34,34,0,0,0,24-9.95L313,132.65a15.9,15.9,0,0,1-13.79,4.42l-37.63-6.27a33.93,33.93,0,0,0-11.16,0l-37.62,6.27a15.92,15.92,0,0,1-13.8-4.42l-12.82,12.81a34,34,0,0,0,29.6,9.49l37.63-6.27a16.15,16.15,0,0,1,5.2,0l37.63,6.27A33.67,33.67,0,0,0,301.78,155.41Z" transform="translate(0 -38.06)"/><path style="fill:#fff" d="M233.83,162.4l8.1,16.21a31.62,31.62,0,0,1,28.14,0l8.1-16.21A49.87,49.87,0,0,0,233.83,162.4Z" transform="translate(0 -38.06)"/></svg>