<?xml version="1.0" encoding="iso-8859-1"?>
<!-- Generator: Adobe Illustrator 19.0.0, SVG Export Plug-In . SVG Version: 6.00 Build 0)  -->
<svg version="1.1" id="Layer_1" xmlns="http://www.w3.org/2000/svg" xmlns:xlink="http://www.w3.org/1999/xlink" x="0px" y="0px"
	 viewBox="0 0 512.08 512.08" style="enable-background:new 0 0 512.08 512.08;" xml:space="preserve">
<g transform="translate(-1 -1)">
	<g>
		<path style="fill:#fff" d="M498.41,379.291c-27.21-68.031-34.928-140.39-36.603-189.114c-1.871-54.7-25.107-105.109-63.73-138.296
			C336.879-0.725,264.268,0.811,257.044,1.072c-7.28-0.307-79.863-1.787-141.042,50.809c-38.623,33.187-61.85,83.596-63.721,138.296
			c-1.685,48.724-9.402,121.083-36.613,189.114c-0.94,2.346-0.884,4.952,0.149,7.261c1.253,2.814,31.439,67.346,148.386,70.54
			v46.678c0,5.139,4.161,9.309,9.309,9.309c5.148,0,9.309-4.17,9.309-9.309v-46.544h0.888c0.758,0.508,1.518,1.017,2.267,1.525
			l8.667,5.818c3.519,2.383,6.963,4.934,10.389,7.466c14.904,11.022,30.329,22.426,52.01,22.426
			c21.681,0,37.097-11.404,52.01-22.426c3.426-2.532,6.861-5.083,10.38-7.466l8.657-5.818c0.762-0.508,1.522-1.017,2.281-1.525
			h1.396v46.544c0,5.139,4.161,9.309,9.309,9.309s9.309-4.17,9.309-9.309V457.08c116.525-3.364,146.625-67.717,147.885-70.527
			C499.294,384.244,499.35,381.637,498.41,379.291z M308.988,449.154c-3.733,2.532-7.373,5.222-11.013,7.913
			c-13.051,9.663-25.386,18.776-40.932,18.776s-27.881-9.114-40.941-18.776c-3.631-2.69-7.28-5.381-11.013-7.913l-8.76-5.883
			c-5.686-3.803-11.378-7.619-16.98-11.551c-8.987-6.317-17.62-12.898-25.506-20.387c-41.1-39.024-45.279-130.122-45.708-173.94
			c17.724,4.375,46.313,7.252,72.257,5.641c38.493-2.392,89.721-14.662,123.234-58.154c13.629,16.728,45.14,45.494,102.344,48.649
			c-0.242,42.096-3.379,137.598-45.726,177.804c-7.925,7.519-16.593,14.123-25.62,20.463c-1.014,0.713-2.029,1.425-3.049,2.131
			c-0.933,0.644-1.871,1.286-2.811,1.926c-0.549,0.375-1.097,0.752-1.647,1.126c-1.577,1.069-3.161,2.136-4.752,3.203
			c-0.005,0.003-0.01,0.007-0.015,0.011c-1.533,1.028-3.068,2.053-4.604,3.078L308.988,449.154z M357.405,438.162
			c5.39-4.18,10.659-8.592,15.649-13.331c34.686-32.926,51.554-98.453,51.554-200.332c0-5.12-4.143-9.281-9.263-9.309
			c-74.882-0.428-102.447-48.938-103.573-50.967c-1.564-2.923-4.58-4.776-7.894-4.887c-3.23-0.168-6.442,1.564-8.192,4.385
			c-52.317,83.847-179.051,58.591-191.386,53.276c-2.439-1.797-5.679-2.318-8.62-1.275c-3.724,1.322-6.2,4.831-6.2,8.778
			c0,101.879,16.859,167.405,51.544,200.332c4.99,4.738,10.259,9.16,15.658,13.331c-85.029-4.608-115.051-44.255-122.126-56.013
			c26.913-69.315,34.63-142.085,36.324-191.33c1.704-49.515,22.565-95.009,57.251-124.826
			c57.297-49.236,127.795-46.331,128.428-46.313c0.326,0.019,0.642,0.019,0.968,0c0.708-0.047,70.907-3.119,128.419,46.313
			c34.686,29.817,55.547,75.311,57.26,124.826c1.685,49.236,9.393,121.986,36.305,191.302
			C472.4,393.73,442.016,433.498,357.405,438.162z"/>
	</g>
</g>
<g>
</g>
<g>
</g>
<g>
</g>
<g>
</g>
<g>
</g>
<g>
</g>
<g>
</g>
<g>
</g>
<g>
</g>
<g>
</g>
<g>
</g>
<g>
</g>
<g>
</g>
<g>
</g>
<g>
</g>
</svg>
