<?xml version="1.0" encoding="iso-8859-1"?>
<!-- Generator: Adobe Illustrator 18.0.0, SVG Export Plug-In . SVG Version: 6.00 Build 0)  -->
<!DOCTYPE svg PUBLIC "-//W3C//DTD SVG 1.1//EN" "http://www.w3.org/Graphics/SVG/1.1/DTD/svg11.dtd">
<svg version="1.1" id="Capa_1" xmlns="http://www.w3.org/2000/svg" xmlns:xlink="http://www.w3.org/1999/xlink" x="0px" y="0px"
	 viewBox="0 0 333.705 333.705" style="enable-background:new 0 0 333.705 333.705;" xml:space="preserve">
<g>
	<path style="fill:#fff" d="M311.073,170.475c-4.061-5.917-13.445-18.351-24.008-23.886l24.49-127.606c0.781-4.068-1.885-7.998-5.951-8.779
		c-4.08-0.779-8,1.884-8.779,5.952l-24.445,127.368c-20.48,0.144-44.746,13.657-64.99,36.22
		c-16.309,18.178-27.23,38.889-30.654,57.499h-19.764c-3.424-18.611-14.346-39.322-30.654-57.499
		c-20.244-22.563-44.51-36.077-64.992-36.22L36.881,16.155c-0.781-4.068-4.721-6.731-8.779-5.952
		c-4.068,0.781-6.732,4.711-5.951,8.779l24.488,127.606c-10.56,5.535-19.945,17.967-24.006,23.884
		C8.291,191.379-4.744,223.998,1.686,252.848c4.336,19.451,15.326,32.883,33.268,40.509c0.277,0.496,10.584,25.659,10.584,25.659
		c1.162,2.798,3.895,4.622,6.926,4.622h228.777c3.029,0,5.762-1.823,6.926-4.621l10.729-25.718
		c17.857-7.637,28.799-21.051,33.123-40.451C338.45,224,325.414,191.381,311.073,170.475z M272.711,158.516
		c0.063,0,18.477,56.274-4.986,98.486c-9.34,16.801-22.283,25.501-26.824,28.359c-31.359-2.807-50.32-16.108-50.32-36.124
		C190.58,211.084,238.17,158.516,272.711,158.516z M158.02,252.243h17.674c0.42,6.306,2.184,12.644,5.551,18.571h-28.83
		C155.662,265.156,157.579,258.895,158.02,252.243z M60.995,158.516c34.539,0,82.129,52.568,82.129,90.722
		c0,20.021-18.969,33.323-50.342,36.125c-4.449-2.771-16.922-11.197-26.396-27.679C38.856,209.79,60.93,158.516,60.995,158.516z
		 M16.327,249.584c-5.389-24.18,6.693-53.158,18.676-70.626c2.541-3.703,5.004-6.811,7.318-9.412
		c-10.369,45.569-0.17,76.871,11.195,95.847c5.016,8.373,10.611,15.037,15.799,20.187C29.172,282.953,19.811,265.208,16.327,249.584
		z M276.235,308.638H57.467l-4.119-9.91c7.949,1.463,16.797,2.196,26.566,2.196c38.064,0,58.303-14.797,58.734-15.109h56.23
		c12.416,9.045,31.445,15.109,58.91,15.109c9.77,0,18.615-0.732,26.564-2.196L276.235,308.638z M317.377,249.584
		c-3.482,15.625-12.846,33.37-52.988,35.995c5.188-5.15,10.783-11.814,15.799-20.187c11.367-18.975,21.564-50.277,11.195-95.847
		c2.316,2.602,4.779,5.71,7.32,9.415C310.686,196.428,322.768,225.405,317.377,249.584z"/>
</g>
<g>
</g>
<g>
</g>
<g>
</g>
<g>
</g>
<g>
</g>
<g>
</g>
<g>
</g>
<g>
</g>
<g>
</g>
<g>
</g>
<g>
</g>
<g>
</g>
<g>
</g>
<g>
</g>
<g>
</g>
</svg>
