<?xml version="1.0" encoding="iso-8859-1"?>
<!-- Generator: Adobe Illustrator 18.0.0, SVG Export Plug-In . SVG Version: 6.00 Build 0)  -->
<!DOCTYPE svg PUBLIC "-//W3C//DTD SVG 1.1//EN" "http://www.w3.org/Graphics/SVG/1.1/DTD/svg11.dtd">
<svg version="1.1" id="Capa_1" xmlns="http://www.w3.org/2000/svg" xmlns:xlink="http://www.w3.org/1999/xlink" x="0px" y="0px"
	 viewBox="0 0 429.313 429.313" style="enable-background:new 0 0 429.313 429.313;" xml:space="preserve">
<g>
	<path style="fill:#fff" d="M333.72,262.011c-0.058-0.096-0.117-0.191-0.178-0.286c-15.953-24.641-24.385-53.192-24.385-82.565
		c0-20.48,4.053-40.427,12.048-59.289C336.01,84.923,343.517,47.958,343.517,10c0-5.523-4.478-10-10-10s-10,4.477-10,10
		c0,27.144-4.149,53.738-12.325,79.354c-62.635-20.641-130.434-20.642-193.069-0.004C109.946,63.734,105.797,37.142,105.797,10
		c0-5.523-4.478-10-10-10s-10,4.477-10,10c0,37.956,7.507,74.922,22.313,109.873c7.994,18.86,12.047,38.808,12.047,59.288
		c0,29.372-8.433,57.923-24.385,82.566c-0.061,0.094-0.12,0.188-0.177,0.284c-17.934,27.827-27.409,60.029-27.409,93.15v8.99v55.164
		c0,5.523,4.478,10,10,10s10-4.477,10-10v-50.707c14.566-11.383,41.009-10.916,64.851,1.607c13.03,6.841,24.128,16.602,31.53,27.672
		v21.428c0,5.523,4.478,10,10,10s10-4.477,10-10v-13.983c6.716,0.161,13.454,0.161,20.17,0v13.983c0,5.523,4.478,10,10,10
		s10-4.477,10-10v-21.427c7.398-11.066,18.5-20.826,31.539-27.673c23.844-12.522,50.285-12.989,64.851-1.606v50.707
		c0,5.523,4.478,10,10,10s10-4.477,10-10V364.15v-8.99C361.127,322.04,351.65,289.836,333.72,262.011z M140.157,179.16
		c0-23.176-4.587-45.75-13.632-67.091c-0.549-1.297-1.07-2.602-1.597-3.905c58.239-19.06,121.218-19.06,179.457,0.004
		c-0.527,1.301-1.047,2.604-1.595,3.899c-9.046,21.343-13.633,43.916-13.633,67.092c0,33.129,9.481,65.337,27.419,93.161
		c0.001,0.002,0.003,0.005,0.004,0.007c-32.64,12.351-66.871,18.628-101.925,18.628c-35.053,0-69.282-6.276-101.922-18.627
		c0.001-0.002,0.003-0.005,0.004-0.007C130.678,244.496,140.157,212.29,140.157,179.16z M266.978,352.506
		c-15.336,8.053-28.573,19.535-37.784,32.683c-9.67,0.353-19.412,0.353-29.082,0c-9.213-13.152-22.449-24.635-37.774-32.682
		c-25.473-13.379-53.161-15.532-73.831-6.948c1.216-19.335,6.099-38.156,14.379-55.574c35.736,13.914,73.292,20.971,111.77,20.971
		c38.48,0,76.036-7.058,111.773-20.972c8.28,17.418,13.163,36.239,14.379,55.575C320.137,336.975,292.45,339.127,266.978,352.506z"
		/>
	<circle style="fill:#fff" cx="214.655" cy="224.323" r="9.75"/>
</g>
<g>
</g>
<g>
</g>
<g>
</g>
<g>
</g>
<g>
</g>
<g>
</g>
<g>
</g>
<g>
</g>
<g>
</g>
<g>
</g>
<g>
</g>
<g>
</g>
<g>
</g>
<g>
</g>
<g>
</g>
</svg>
