<svg xmlns="http://www.w3.org/2000/svg" width="49.59" height="51.66" viewBox="0 0 49.59 51.66">
  <defs>
    <style>
      .cls-1 {
        fill: #d29e24;
        fill-rule: evenodd;
      }
    </style>
  </defs>
  <path class="cls-1" d="M1404.81,2466.98h-1.42v20.94h1.42v-20.94Zm8.72,12.7a3.2,3.2,0,1,0-4.52,0A3.211,3.211,0,0,0,1413.53,2479.68Zm-3.51-3.5a1.787,1.787,0,0,1,2.5,0A1.764,1.764,0,1,1,1410.02,2476.18Zm-10.83,3.5a3.19,3.19,0,1,0-4.52,0A3.211,3.211,0,0,0,1399.19,2479.68Zm-3.51-3.5a1.787,1.787,0,0,1,2.5,0,1.756,1.756,0,0,1,0,2.49,1.724,1.724,0,0,1-1.25.52A1.765,1.765,0,0,1,1395.68,2476.18Zm30.23-21.54h-21.32l-22.63,23.16,21.31,21.19,22.64-23.16v-21.19Zm-1.64,20.53-21.01,21.5-18.99-18.89,21.02-21.51h18.98v18.9Zm-9.26-14.37a4.37,4.37,0,1,0,4.39,4.37A4.385,4.385,0,0,0,1415.01,2460.8Zm0,7.3a2.935,2.935,0,1,1,2.95-2.93A2.938,2.938,0,0,1,1415.01,2468.1Zm16.27-13.85a5.431,5.431,0,0,0-1.66-5.98,5.554,5.554,0,0,0-6.26.02c-3.39,2.05-7.3,9.99-9.05,16.34l1.58,0.42c1.85-6.66,5.69-13.78,8.32-15.36a3.907,3.907,0,0,1,4.42-.12,3.813,3.813,0,0,1,1.07,4.25c-0.97,3.49-4.06,5.94-5.01,6.63l0.89,1.38C1426.62,2461.09,1430.14,2458.34,1431.28,2454.25Z" transform="translate(-1381.97 -2447.34)"/>
</svg>
