<svg xmlns="http://www.w3.org/2000/svg" width="38.562" height="42" viewBox="0 0 38.562 42">
  <metadata><?xpacket begin="﻿" id="W5M0MpCehiHzreSzNTczkc9d"?>
<x:xmpmeta xmlns:x="adobe:ns:meta/" x:xmptk="Adobe XMP Core 5.6-c138 79.159824, 2016/09/14-01:09:01        ">
   <rdf:RDF xmlns:rdf="http://www.w3.org/1999/02/22-rdf-syntax-ns#">
      <rdf:Description rdf:about=""/>
   </rdf:RDF>
</x:xmpmeta>
                                                                                                    
                                                                                                    
                                                                                                    
                                                                                                    
                                                                                                    
                                                                                                    
                                                                                                    
                                                                                                    
                                                                                                    
                                                                                                    
                                                                                                    
                                                                                                    
                                                                                                    
                                                                                                    
                                                                                                    
                                                                                                    
                                                                                                    
                                                                                                    
                                                                                                    
                                                                                                    
                           
<?xpacket end="w"?></metadata>
<defs>
    <style>
      .cls-1 {
        fill: #d29e24;
        fill-rule: evenodd;
      }
    </style>
  </defs>
  <path id="Shape_29_copy" data-name="Shape 29 copy" class="cls-1" d="M247.308,493.371a2.9,2.9,0,0,0,0,3.984,2.639,2.639,0,0,0,3.829,0,2.9,2.9,0,0,0,0-3.984A2.637,2.637,0,0,0,247.308,493.371Zm2.687,2.8a1.062,1.062,0,0,1-1.546,0,1.173,1.173,0,0,1,0-1.609,1.067,1.067,0,0,1,1.546,0A1.173,1.173,0,0,1,250,496.167Zm-9.83,1.188a2.9,2.9,0,0,0,0-3.982,2.634,2.634,0,0,0-3.826,0,2.9,2.9,0,0,0,0,3.98A2.634,2.634,0,0,0,240.165,497.355Zm-2.686-2.8a1.067,1.067,0,0,1,1.546,0,1.175,1.175,0,0,1,0,1.609,1.064,1.064,0,0,1-1.545,0A1.172,1.172,0,0,1,237.479,494.558Zm5.451-7.823v17.3h1.613v-17.3H242.93Zm9.155,2.588a3.773,3.773,0,1,1,3.622-3.77A3.7,3.7,0,0,1,252.085,489.323Zm0-5.69a1.921,1.921,0,1,0,1.845,1.92A1.885,1.885,0,0,0,252.085,483.633Zm0.859,2.158-1.718-.477c1.321-5.169,4.418-11.8,7.114-13.5a4.328,4.328,0,0,1,5.08,0,4.752,4.752,0,0,1,1.367,5.074,12.439,12.439,0,0,1-4.689,6.371l-0.965-1.553a10.731,10.731,0,0,0,3.94-5.313,2.872,2.872,0,0,0-.728-3.105,2.62,2.62,0,0,0-3.086.111C257.261,474.658,254.311,480.447,252.944,485.791Zm-9.837,27.219-16.672-17.35L244,476.856h16.68V494.2Zm-14.176-17.367,14.157,14.73L258.9,493.446v-14.74h-14.15Z" transform="translate(-226.438 -471)"/>
</svg>
