<svg xmlns="http://www.w3.org/2000/svg" width="35" height="35" viewBox="0 0 35 35">
  <metadata><?xpacket begin="﻿" id="W5M0MpCehiHzreSzNTczkc9d"?>
<x:xmpmeta xmlns:x="adobe:ns:meta/" x:xmptk="Adobe XMP Core 5.6-c138 79.159824, 2016/09/14-01:09:01        ">
   <rdf:RDF xmlns:rdf="http://www.w3.org/1999/02/22-rdf-syntax-ns#">
      <rdf:Description rdf:about=""/>
   </rdf:RDF>
</x:xmpmeta>
                                                                                                    
                                                                                                    
                                                                                                    
                                                                                                    
                                                                                                    
                                                                                                    
                                                                                                    
                                                                                                    
                                                                                                    
                                                                                                    
                                                                                                    
                                                                                                    
                                                                                                    
                                                                                                    
                                                                                                    
                                                                                                    
                                                                                                    
                                                                                                    
                                                                                                    
                                                                                                    
                           
<?xpacket end="w"?></metadata>
<defs>
    <style>
      .cls-1 {
        fill: #d29e24;
        fill-rule: evenodd;
      }
    </style>
  </defs>
  <path class="cls-1" d="M93.347,65.15c-5.072-4.078-6.891-2.236-9-.1l-0.369.371c-0.519.523-2.129-.461-2.609-0.775a32.31,32.31,0,0,1-4.858-4.167c-6.032-6.028-5.078-7.336-4.95-7.465l0.373-.366c2.136-2.105,3.98-3.924-.093-8.992-1.389-1.724-2.752-2.588-4.168-2.641l-0.161,0c-1.981,0-3.517,1.617-4.751,2.916l-0.065.067c-0.191.2-.377,0.4-0.568,0.582-1.494,1.5-1.51,4.715-.042,8.6a38.4,38.4,0,0,0,8.829,12.9,38.386,38.386,0,0,0,12.895,8.82,15.178,15.178,0,0,0,5.163,1.1,4.772,4.772,0,0,0,3.447-1.139c0.116-.115.236-0.232,0.358-0.347,0.095-.091.19-0.182,0.284-0.275,1.41-1.337,3.009-2.855,2.925-4.912C95.928,67.89,95.064,66.526,93.347,65.15ZM70.774,51.478l-0.368.363c-0.861.861-.86,2.089,0.009,3.749a27.807,27.807,0,0,0,4.932,6.047,34.505,34.505,0,0,0,5.124,4.387c2.106,1.365,3.678,1.552,4.673.556l0.381-.381c1.916-1.938,2.88-2.909,6.79.23,1.31,1.048,1.993,2.04,2.03,2.947,0.052,1.322-1.257,2.562-2.413,3.656-0.236.223-.463,0.441-0.673,0.65-1,1-3.694.87-6.869-.328a36.7,36.7,0,0,1-12.311-8.449,36.571,36.571,0,0,1-8.45-12.31c-1.2-3.175-1.329-5.866-.334-6.859,0.136-.136.276-0.281,0.425-0.435l0.237-.245c1.068-1.128,2.28-2.406,3.571-2.406h0.081c0.9,0.036,1.9.718,2.95,2.029C73.7,48.595,72.724,49.559,70.774,51.478Zm17.639,3.753a0.84,0.84,0,0,0,.459.461,0.877,0.877,0,0,0,.306.054,0.818,0.818,0,0,0,.757-0.508,6.282,6.282,0,0,0-8.405-8.084,0.822,0.822,0,1,0,.674,1.5,4.637,4.637,0,0,1,6.214,5.963A0.8,0.8,0,0,0,88.413,55.231ZM79.9,43.563l0,0A10.228,10.228,0,0,1,93.6,56.719a0.808,0.808,0,0,0,0,.627,0.818,0.818,0,0,0,.452.446,0.842,0.842,0,0,0,1.073-.452,11.876,11.876,0,0,0-15.9-15.281A0.825,0.825,0,0,0,79.9,43.563Z" transform="translate(-61 -41)"/>
</svg>
