<svg xmlns="http://www.w3.org/2000/svg" width="23.031" height="22" viewBox="0 0 23.031 22">
  <defs>
    <style>
      .cls-1 {
        fill: #d29e24;
        fill-rule: evenodd;
      }
    </style>
  </defs>
  <path class="cls-1" d="M627.609,3098.3H612.091v-4.86h15.745l2.268-6.54h-17.64l-3.456-3.98,1-.93,3.056,3.51H632.02Zm-14.171-1.4h13.218l0.7-2.07H613.438v2.07Zm0-2.76h-1.347v-7.94h1.347v7.94Zm2.469,7.88a1.909,1.909,0,1,1-1.908-1.98A1.947,1.947,0,0,1,615.907,3102.02Zm10.713,0a1.91,1.91,0,1,1-1.909-1.98A1.948,1.948,0,0,1,626.62,3102.02Z" transform="translate(-609 -3082)"/>
</svg>
