<svg xmlns="http://www.w3.org/2000/svg" width="17" height="16" viewBox="0 0 17 16">
<defs>
    <style>
      .cls-1 {
        fill: #afb1b5;
        fill-rule: evenodd;
      }
    </style>
  </defs>
  <path d="M11.51,15.562L6.872,12.05H3.483a2.59,2.59,0,0,1-1.833-.758,2.948,2.948,0,0,1-.535-0.8A2.428,2.428,0,0,1,.895,9.471v-6.4A2.429,2.429,0,0,1,1.115,2.05a2.907,2.907,0,0,1,.515-0.778A2.583,2.583,0,0,1,3.483.493H14.4a2.589,2.589,0,0,1,1.833.758,2.952,2.952,0,0,1,.535.8,2.431,2.431,0,0,1,.221,1.022v6.4a2.429,2.429,0,0,1-.221,1.022,2.907,2.907,0,0,1-.515.778,2.585,2.585,0,0,1-1.853.778H11.51v3.512ZM3.483,2.014a1.086,1.086,0,0,0-.761.312,1.445,1.445,0,0,0-.23.36,0.913,0.913,0,0,0-.081.386v6.4a0.912,0.912,0,0,0,.081.386,1.465,1.465,0,0,0,.249.381,1.1,1.1,0,0,0,.742.291h3.9l2.613,1.979V10.529h4.4a1.086,1.086,0,0,0,.761-0.312,1.451,1.451,0,0,0,.23-0.36,0.912,0.912,0,0,0,.081-0.386v-6.4a0.913,0.913,0,0,0-.081-0.386,1.475,1.475,0,0,0-.249-0.38A1.1,1.1,0,0,0,14.4,2.014H3.483Z"/>
</svg>
