<svg xmlns="http://www.w3.org/2000/svg" width="13.719" height="12" viewBox="0 0 13.719 12">
  <metadata><?xpacket begin="﻿" id="W5M0MpCehiHzreSzNTczkc9d"?>
<x:xmpmeta xmlns:x="adobe:ns:meta/" x:xmptk="Adobe XMP Core 5.6-c138 79.159824, 2016/09/14-01:09:01        ">
   <rdf:RDF xmlns:rdf="http://www.w3.org/1999/02/22-rdf-syntax-ns#">
      <rdf:Description rdf:about=""/>
   </rdf:RDF>
</x:xmpmeta>
                                                                                                    
                                                                                                    
                                                                                                    
                                                                                                    
                                                                                                    
                                                                                                    
                                                                                                    
                                                                                                    
                                                                                                    
                                                                                                    
                                                                                                    
                                                                                                    
                                                                                                    
                                                                                                    
                                                                                                    
                                                                                                    
                                                                                                    
                                                                                                    
                                                                                                    
                                                                                                    
                           
<?xpacket end="w"?></metadata>
<defs>
    <style>
      .cls-1 {
        fill: #b7b7b7;
        fill-rule: evenodd;
      }
    </style>
  </defs>
  <path class="cls-1" d="M874.3,535.992l-3.948-2.793h-2.883a2.336,2.336,0,0,1-.856-0.16,2.218,2.218,0,0,1-.7-0.442,2.333,2.333,0,0,1-.455-0.636,1.816,1.816,0,0,1-.188-0.812v-5.088a1.823,1.823,0,0,1,.188-0.813,2.329,2.329,0,0,1,.438-0.619,2.23,2.23,0,0,1,.721-0.458,2.337,2.337,0,0,1,.856-0.161h9.286a2.341,2.341,0,0,1,.856.161,2.2,2.2,0,0,1,.7.442,2.343,2.343,0,0,1,.455.635,1.823,1.823,0,0,1,.188.813v5.088a1.816,1.816,0,0,1-.188.812,2.3,2.3,0,0,1-.438.619,2.233,2.233,0,0,1-.721.459,2.34,2.34,0,0,1-.856.16H874.3v2.793Zm-6.831-10.772a0.932,0.932,0,0,0-.354.066,0.891,0.891,0,0,0-.294.182,1.132,1.132,0,0,0-.2.286,0.678,0.678,0,0,0-.07.307v5.088a0.681,0.681,0,0,0,.07.307,1.144,1.144,0,0,0,.212.3,0.872,0.872,0,0,0,.277.166,0.932,0.932,0,0,0,.354.066h3.317l2.223,1.573V531.99h3.746a0.932,0.932,0,0,0,.354-0.066,0.891,0.891,0,0,0,.294-0.182,1.15,1.15,0,0,0,.2-0.286,0.681,0.681,0,0,0,.069-0.307v-5.088a0.678,0.678,0,0,0-.069-0.307,1.15,1.15,0,0,0-.212-0.3,0.89,0.89,0,0,0-.277-0.165,0.932,0.932,0,0,0-.354-0.066h-9.286Z" transform="translate(-865.25 -524)"/>
</svg>
