<svg xmlns="http://www.w3.org/2000/svg" width="95.563" height="26.94" viewBox="0 0 95.563 26.94">
  <metadata><?xpacket begin="﻿" id="W5M0MpCehiHzreSzNTczkc9d"?>
<x:xmpmeta xmlns:x="adobe:ns:meta/" x:xmptk="Adobe XMP Core 5.6-c138 79.159824, 2016/09/14-01:09:01        ">
   <rdf:RDF xmlns:rdf="http://www.w3.org/1999/02/22-rdf-syntax-ns#">
      <rdf:Description rdf:about=""/>
   </rdf:RDF>
</x:xmpmeta>
                                                                                                    
                                                                                                    
                                                                                                    
                                                                                                    
                                                                                                    
                                                                                                    
                                                                                                    
                                                                                                    
                                                                                                    
                                                                                                    
                                                                                                    
                                                                                                    
                                                                                                    
                                                                                                    
                                                                                                    
                                                                                                    
                                                                                                    
                                                                                                    
                                                                                                    
                                                                                                    
                           
<?xpacket end="w"?></metadata>
<defs>
    <style>
      .cls-1 {
        fill: #8f8f8f;
        fill-rule: evenodd;
      }
    </style>
  </defs>
  <path id="_2" data-name="2" class="cls-1" d="M663.574,4016.2a5.174,5.174,0,0,1,.356-1.84,4.715,4.715,0,0,1,1.123-1.68,6.064,6.064,0,0,1,1.945-1.22,7.532,7.532,0,0,1,2.842-.48h6v1.39a1.639,1.639,0,0,1-.583,1.42,3.272,3.272,0,0,1-1.88.42H669.83a2.282,2.282,0,0,0-1.792.6,2.041,2.041,0,0,0-.525,1.39,2.182,2.182,0,0,0,.377,1.23,2.224,2.224,0,0,0,1.295.84l3.142,1.05a6.47,6.47,0,0,1,3.375,2.06,5.125,5.125,0,0,1,.97,3.16,4.836,4.836,0,0,1-1.752,4,7.454,7.454,0,0,1-4.806,1.4h-6.441v-1.26c0-1.31.772-1.97,2.316-1.97h4.125a3.092,3.092,0,0,0,1.893-.54,1.9,1.9,0,0,0,.726-1.63,2.3,2.3,0,0,0-.358-1.3,2.183,2.183,0,0,0-1.239-.81l-2.991-.99a8.682,8.682,0,0,1-3.425-1.98A4.53,4.53,0,0,1,663.574,4016.2Zm-19.117,6.16v-4.8c0-2.61.666-4.53,2-5.74a9.87,9.87,0,0,1,11.408-.01q1.972,1.815,1.973,5.75v4.8q0,3.93-1.94,5.76a8.124,8.124,0,0,1-5.739,1.82,8.225,8.225,0,0,1-5.7-1.79C645.123,4026.95,644.457,4025.03,644.457,4022.36Zm3.94-.02a4.909,4.909,0,0,0,.939,3.34,3.649,3.649,0,0,0,2.818,1.03,3.713,3.713,0,0,0,2.809-.98,4.91,4.91,0,0,0,.931-3.39v-4.8a10.671,10.671,0,0,0-.133-1.81,2.8,2.8,0,0,0-.6-1.31,3.049,3.049,0,0,0-1.147-.87,4.511,4.511,0,0,0-1.862-.32,3.813,3.813,0,0,0-2.818.95,4.463,4.463,0,0,0-.939,3.19v4.97Zm64.179-5.86c-0.017-.07-0.907-1.78-4.313-3.31l-1.557-.85c-4.164-2.11-2.217-6.34-2.217-6.34s3.847,2,4.78,2.48C712.993,4010.37,712.576,4016.48,712.576,4016.48Zm-81.2,5.15c-0.016-.07-0.907-1.77-4.312-3.3l-1.558-.85c-4.163-2.11-2.216-6.34-2.216-6.34s3.847,2,4.78,2.48C631.795,4015.53,631.378,4021.63,631.378,4021.63Zm68.465-3.68a6.878,6.878,0,0,1,4.339-1.25h2.477c0.619,0,1.977.13,1.977,0.13,0-.85-0.009-1.77,0-2.18,2.215,0.35,3.94,1.98,3.94,2.87v11.94h-8.119a7.411,7.411,0,0,1-4.608-1.29,4.569,4.569,0,0,1-1.685-3.87v-2.1A5.058,5.058,0,0,1,699.843,4017.95Zm2.261,6.2a2.164,2.164,0,0,0,.224,1.04,1.809,1.809,0,0,0,.582.64,2.375,2.375,0,0,0,.781.31,4.669,4.669,0,0,0,.807.08h4.138v-5.93c-0.8-.09-1.54-0.15-2.227-0.19s-1.324-.06-1.911-0.06a2.648,2.648,0,0,0-1.813.52,2.3,2.3,0,0,0-.581,1.77v1.82Zm-17.574-11.59a2.226,2.226,0,0,0-.486-1.61,2.434,2.434,0,0,0-1.688-.46h-1.762v16.9h0a2.21,2.21,0,0,0,.487,1.6,2.427,2.427,0,0,0,1.687.47h1.762v-16.9h0Zm-44.639,0a2.222,2.222,0,0,0-.487-1.61,2.43,2.43,0,0,0-1.687-.46h-1.762v16.9h0a2.215,2.215,0,0,0,.486,1.6,2.431,2.431,0,0,0,1.688.47H639.9v-16.9h0Zm53.681-7.24a2.226,2.226,0,0,0-.486-1.61,2.486,2.486,0,0,0-1.688-.46h-1.761v24.14h0a2.215,2.215,0,0,0,.486,1.6,2.431,2.431,0,0,0,1.688.47h1.761v-24.14h0Zm-66.152,14.24v3.42a3.165,3.165,0,0,1-.864,2.45,3.255,3.255,0,0,1-2.3.79h-3.307v-21.64h-0.036a1.789,1.789,0,0,0-.455-1.12,2.427,2.427,0,0,0-1.687-.47h-1.762v26.47h7.256a8.033,8.033,0,0,0,5.284-1.52,5.731,5.731,0,0,0,1.805-4.65v-0.62C631.359,4021,629.263,4019.97,627.42,4019.56Z" transform="translate(-617 -4003)"/>
</svg>
