<svg xmlns="http://www.w3.org/2000/svg" width="95" height="22" viewBox="0 0 95 22">
  <metadata><?xpacket begin="﻿" id="W5M0MpCehiHzreSzNTczkc9d"?>
<x:xmpmeta xmlns:x="adobe:ns:meta/" x:xmptk="Adobe XMP Core 5.6-c138 79.159824, 2016/09/14-01:09:01        ">
   <rdf:RDF xmlns:rdf="http://www.w3.org/1999/02/22-rdf-syntax-ns#">
      <rdf:Description rdf:about=""/>
   </rdf:RDF>
</x:xmpmeta>
                                                                                                    
                                                                                                    
                                                                                                    
                                                                                                    
                                                                                                    
                                                                                                    
                                                                                                    
                                                                                                    
                                                                                                    
                                                                                                    
                                                                                                    
                                                                                                    
                                                                                                    
                                                                                                    
                                                                                                    
                                                                                                    
                                                                                                    
                                                                                                    
                                                                                                    
                                                                                                    
                           
<?xpacket end="w"?></metadata>
<defs>
    <style>
      .cls-1 {
        fill: #8f8f8f;
        fill-rule: evenodd;
      }
    </style>
  </defs>
  <path id="_5" data-name="5" class="cls-1" d="M1204,4016.77a11.164,11.164,0,0,1,.37-1.25,4.535,4.535,0,0,1,2.57-2.28,8.1,8.1,0,0,1,3.04-.59c1.9-.01,3.8-0.02,5.71,0a7.724,7.724,0,0,1,3.81.98,4.088,4.088,0,0,1,2.14,3.77c0.01,1.82-.03,3.65.02,5.47a4.412,4.412,0,0,1-3.41,4.69,9.288,9.288,0,0,1-2.87.43h-1.68c-0.16.01-.23-0.03-0.22-0.21a5.341,5.341,0,0,0,0-.8c-0.01-.18.07-0.21,0.22-0.21,0.57,0.01,1.14,0,1.71,0a2.358,2.358,0,0,0,2.51-1.96,6.069,6.069,0,0,0,.18-1.64q0.015-2.865,0-5.73a5.289,5.289,0,0,0-.34-2.08,2.331,2.331,0,0,0-2.22-1.51h-5.36a2.31,2.31,0,0,0-2.37,1.69,6.147,6.147,0,0,0,.04,3.93,2.269,2.269,0,0,0,2.25,1.58c0.8,0.01,1.61-.01,2.41-0.01a7.105,7.105,0,0,0,1.13,0,1.408,1.408,0,0,0,.41,0,0.968,0.968,0,0,1,.41.08v0.81c0.05,0.29-.09.34-0.34,0.33-1.42-.01-2.84.02-4.25-0.01a7.2,7.2,0,0,1-4.25-1.32,3.816,3.816,0,0,1-1.53-2.42,0.3,0.3,0,0,0-.09-0.25v-1.49Zm82.8,0.78q-3.45,0-6.91-.01c-0.25,0-.3.08-0.28,0.31a5.59,5.59,0,0,0,.37,1.85,2.294,2.294,0,0,0,2.23,1.5c1.58,0.01,3.17.01,4.76,0,0.22,0,.28.06,0.27,0.28-0.02.26-.01,0.51-0.01,0.77,0.01,0.15-.04.2-0.18,0.19-1.86-.02-3.72.08-5.57-0.04a6.887,6.887,0,0,1-3.84-1.34,4.046,4.046,0,0,1-1.62-3.14,4.575,4.575,0,0,1,.8-3.07,5.014,5.014,0,0,1,2.37-1.67,8.706,8.706,0,0,1,3.02-.54c1.78-.02,3.56-0.02,5.34-0.01a8.482,8.482,0,0,1,4.19.98,4.255,4.255,0,0,1,2.27,3.74c0.01,0.23-.12.2-0.25,0.2h-6.96Zm-1.81-1.23h5.04c0.23,0.01.28-.06,0.2-0.27s-0.12-.43-0.2-0.63a2.272,2.272,0,0,0-2.25-1.53h-5.63a1.947,1.947,0,0,0-.48.04,2.608,2.608,0,0,0-1.91,2.14c-0.06.22-.01,0.26,0.2,0.25h5.03Zm-39.2-3.67c1.28,0.02,2.87-.06,4.46.04a7.438,7.438,0,0,1,4.04,1.31,4.05,4.05,0,0,1,1.74,3.44c0.02,1.59,0,3.18.01,4.78,0,0.21-.06.25-0.26,0.25-1.04-.01-2.09-0.01-3.14,0-0.19.01-.23-0.06-0.23-0.25,0.01-1.61.01-3.22,0.01-4.83a5.228,5.228,0,0,0-.31-1.79,2.532,2.532,0,0,0-2.39-1.71c-1.83-.01-3.65,0-5.47-0.01-0.22,0-.22.1-0.22,0.27q0,4.005.01,8.02c0,0.26-.08.31-0.32,0.3q-1.515-.015-3.03,0c-0.2,0-.27-0.03-0.27-0.26,0.01-3.1,0-6.19,0-9.29,0-.23.07-0.27,0.27-0.27C1242.29,4012.66,1243.89,4012.65,1245.79,4012.65Zm-10.32,2.93c0-.9.01-1.79,0-2.68,0-.2.06-0.25,0.24-0.25q1.545,0.015,3.09,0c0.2,0,.23.07,0.23,0.25,0,1.63.01,3.25,0,4.87a4.3,4.3,0,0,1-3.01,4.15,8.167,8.167,0,0,1-2.93.57c-1.5.01-3.01,0.06-4.52-.03a6.848,6.848,0,0,1-4-1.39,3.815,3.815,0,0,1-1.5-2.91c-0.08-1.77-.02-3.54-0.03-5.31-0.01-.16.05-0.2,0.2-0.2,1.05,0.01,2.11.01,3.17,0,0.22,0,.18.13,0.18,0.27,0,1.66-.01,3.31.01,4.97a4.765,4.765,0,0,0,.35,1.91,2.282,2.282,0,0,0,2.21,1.48c1.18,0.01,2.35-.02,3.52.01a2.506,2.506,0,0,0,2.68-2.27,11.241,11.241,0,0,0,.11-2.17v-1.27Zm28.77,2.57q-3.27,0-6.53.01c-0.25,0-.29-0.07-0.29-0.31a4.329,4.329,0,0,1,1.18-3.27,5.746,5.746,0,0,1,2.78-1.45,9.244,9.244,0,0,1,2.28-.28q1.8,0.015,3.6,0c0.27-.01.34,0.08,0.32,0.34a3.315,3.315,0,0,0,0,.63c0.01,0.2-.05.25-0.24,0.25-1.17-.01-2.33.02-3.5-0.02a2.58,2.58,0,0,0-2.76,2.32c-0.11.57-.11,0.57,0.46,0.57h12.7c0.37,0,.37,0,0.37.4a6.167,6.167,0,0,1-.12,1.48,3.954,3.954,0,0,1-1.82,2.54,7.487,7.487,0,0,1-3.21,1.06,13.648,13.648,0,0,1-1.57.06c-3.39,0-6.78-.01-10.18,0-0.24,0-.31-0.06-0.29-0.3a6.256,6.256,0,0,0,0-.75,0.143,0.143,0,0,1,.18-0.17,1.2,1.2,0,0,0,.19,0c3.51,0,7.02-.02,10.53.01a2.466,2.466,0,0,0,2.53-1.93,7.579,7.579,0,0,0,.18-0.95c0.04-.2-0.03-0.24-0.21-0.24C1268.62,4018.16,1266.43,4018.15,1264.24,4018.15Zm34.75-3.65q0,3.84.01,7.66c0,0.25-.07.28-0.29,0.26a3.763,3.763,0,0,1-3.12-3.04,6.935,6.935,0,0,1-.2-1.7c0-3.61.01-7.22,0-10.83,0-.25.04-0.33,0.3-0.33,1,0.02,2.01.02,3.01,0,0.26,0,.3.09,0.3,0.32Q1298.985,4010.68,1298.99,4014.5Zm-86.01-8.51a2.875,2.875,0,1,1-2.85,2.87A2.832,2.832,0,0,1,1212.98,4005.99Zm17.18,4.45a1.79,1.79,0,1,1-1.78-1.83A1.8,1.8,0,0,1,1230.16,4010.44Zm3.51,1.83a1.83,1.83,0,1,1,1.82-1.83A1.808,1.808,0,0,1,1233.67,4012.27Zm-21.03,6.76h-0.35c-0.41,0-.41,0-0.32-0.39a2.828,2.828,0,0,1,.97-1.55,0.84,0.84,0,0,1,.78.14,0.139,0.139,0,0,1-.02.15,7.133,7.133,0,0,0-.32,1.44c-0.02.17-.07,0.23-0.23,0.22A4.341,4.341,0,0,0,1212.64,4019.03Zm3.94-.01c-0.16,0-.33-0.01-0.49,0a0.216,0.216,0,0,1-.28-0.25,4.377,4.377,0,0,0-.27-1.34c-0.05-.15-0.02-0.2.13-0.25,0.58-.19.58-0.2,0.99,0.28a2.746,2.746,0,0,1,.63,1.37c0.04,0.18-.02.21-0.17,0.2h-0.54v-0.01Zm0.04,0.4h0.29c0.48,0.01.45-.09,0.35,0.44a2.674,2.674,0,0,1-.85,1.5,0.229,0.229,0,0,1-.33.04,1.328,1.328,0,0,1-.52-0.25,1.6,1.6,0,0,1,.13-0.55,8.33,8.33,0,0,0,.16-1c0.02-.15.07-0.19,0.2-0.18h0.57Zm-2.16,1.7a0.968,0.968,0,0,0-.41-0.08,5.1,5.1,0,0,1-.26-1.4c0-.17.04-0.22,0.21-0.22,0.41,0.02.83,0.01,1.24,0.01,0.17,0,.25.04,0.22,0.23a7,7,0,0,1-.24,1.21,0.282,0.282,0,0,1-.36.26A1.77,1.77,0,0,0,1214.46,4021.12Zm0.23-2.09c-0.26-.01-0.52-0.03-0.78-0.04-0.12,0-.15-0.05-0.14-0.17a5.383,5.383,0,0,1,.32-1.36,0.2,0.2,0,0,1,.26-0.16,1.734,1.734,0,0,0,.51.02,0.269,0.269,0,0,1,.33.22,5.75,5.75,0,0,1,.24,1.29,0.164,0.164,0,0,1-.2.21A4.866,4.866,0,0,0,1214.69,4019.03Zm-1.05,2.01a7.105,7.105,0,0,1-1.13,0,3.041,3.041,0,0,1-.59-1.38c-0.03-.17,0-0.25.2-0.24,0.34,0.02.68,0.02,1.02,0.01a0.225,0.225,0,0,1,.27.25A5.694,5.694,0,0,0,1213.64,4021.04Zm0.82,0.89v-0.42a0.109,0.109,0,0,1,.05-0.01,0.41,0.41,0,0,1,.4.06,0.516,0.516,0,0,1-.17.37C1214.65,4022.1,1214.56,4022.06,1214.46,4021.93Zm0.17-4.98c-0.08-.06-0.27.06-0.25-0.12a0.3,0.3,0,0,1,.25-0.31,0.371,0.371,0,0,1,.23.36C1214.87,4016.99,1214.71,4016.91,1214.63,4016.95Zm0.56,5.05c0.18-.47.18-0.47,0.64-0.28A1.88,1.88,0,0,1,1215.19,4022Zm0.01-5.41a1.231,1.231,0,0,1,.46.14C1215.35,4016.9,1215.31,4016.89,1215.2,4016.59Zm-1.58.14a0.543,0.543,0,0,1,.39-0.13C1213.95,4016.9,1213.81,4016.83,1213.62,4016.73Z" transform="translate(-1204 -4006)"/>
</svg>
