<svg xmlns="http://www.w3.org/2000/svg" width="114" height="44.72" viewBox="0 0 114 44.72">
  <defs>
    <style>
      .cls-1 {
        fill: #8f8f8f;
        fill-rule: evenodd;
      }
    </style>
  </defs>
  <path id="_3" data-name="3" class="cls-1" d="M830.56,3993.91s-8.7.76-14.458,11.94,0.352,25.85,10.461,26.67c-4.584-2.74-7.288-4.08-9.521-11.01s-0.059-13.39,2-17.35A22.967,22.967,0,0,1,830.56,3993.91Zm-1.469-.93s9.227,0.99,14.458,11.12,4.525,18.11,2.233,23.35-6.053,7.98-11.637,10.25c6.877-1.74,11.814-5.12,14.635-11.88s0.94-15.37-2.057-21.25S836.79,3993.16,829.091,3992.98Zm16.1,32.09s-4.761,9.37-14.635,8.96-19.337-5.59-26.566-.52c6.28-2.15,13.4,1.05,16.281,1.8s10.579,2.68,16.162.41S844.548,4027.98,845.2,4025.07Zm-3.644-16.31c-1.705-1.22-3.938.64-3.938,0.64a3.709,3.709,0,0,0-3-.93c-1.88.23-2.409,1.34-4.349,2.68s-4.643,3.2-5.672,2.79-0.969-2.85.735-5.88,3.644-6.4,4.055-8.03-1.645-1.81-1.645-1.81a0.876,0.876,0,0,1-.705.47,2.046,2.046,0,0,0-1.293.7,1.394,1.394,0,0,1-1.147.4,3.356,3.356,0,0,0-.969.24c0.117,0.41,1.763.35,1.763,0.35a6.65,6.65,0,0,1,1.352.64c1.058,0.58-.294,2.56-0.941,3.78s-4.819,6.12-3.58,10.18,8.752,4.5,8.752,4.5a6.741,6.741,0,0,0,.706,2.15c0.587,1.11,3.35,1.17,3.35,1.17l0.7,1.63a5.66,5.66,0,0,1-2.116.64c-1.528.23-1.234,0.93-2.233,2.33a4.894,4.894,0,0,0-.47,3.53s0.293-.56.529-1.03a2.181,2.181,0,0,1,.529-0.7,7.235,7.235,0,0,0,.705-0.35c0.411-.23.117-0.87,0.059-1.45s0.058-.41.591-0.59,2.347-.87,2.347-0.87a11.943,11.943,0,0,1,.412,1.92,15.547,15.547,0,0,1-.235,3.07,4.417,4.417,0,0,0-1.529,0,2.932,2.932,0,0,1-1,.37,1.321,1.321,0,0,0-.944.43,9.353,9.353,0,0,0,.944,0c0.3-.03,1.877-0.08,2.759-0.03a6.882,6.882,0,0,0,1.293,0,12.962,12.962,0,0,1-.529-3.08,35.245,35.245,0,0,1,.294-3.55s2.409-.35,3.115-1.11,0.235-2.27-.177-2.85-0.058-.99.471-1.98a1.344,1.344,0,0,0-.529-1.69,2.407,2.407,0,0,0,1.292-1.63,5.993,5.993,0,0,0-.587-3.09s1.646,0.23,2.057-.52S843.255,4009.98,841.551,4008.76Zm-3.391,14.33a7.021,7.021,0,0,1-.9.52,2.193,2.193,0,0,0-.117-1.15c-0.235-.48-1-0.54-0.882-1.06a1.024,1.024,0,0,1,.647-0.7,6.144,6.144,0,0,1,1.252,1.4C838.612,4022.74,838.355,4022.91,838.16,4023.09Zm0.57-4.2c-0.353,0,0-.58,0-1.34s-1.4-1.51-1.4-1.51a6.87,6.87,0,0,1,.83,1.57,2.048,2.048,0,0,1-.43,2.22c-0.176.17-.352-0.35-0.646-1.49a2.227,2.227,0,0,0-1.352-1.48,3.113,3.113,0,0,1,.517,1.51,1.267,1.267,0,0,1-.576,1.46,12.824,12.824,0,0,1-.881-1.81,1.562,1.562,0,0,0-1.587-.58,1.6,1.6,0,0,1-.47-0.61,1.669,1.669,0,0,1,.881-0.32s0.118-.59.235-1.17,0.412,0.12.647,0.41,0.47,0.17.529-.41-0.118-1.1.411-1.45,0.811,0.58.811,0.58l0.541-.58a7.878,7.878,0,0,1,1.622.75c0.857,0.53.9,0.88,1.217,2.04A1.9,1.9,0,0,1,838.73,4018.89Zm3.408-6.93c-0.293.12-.705-0.4-1.057-0.81a1.07,1.07,0,0,0-1.452-.06s-0.841.87-1.311,0a1.474,1.474,0,0,1,1.058-2.04,2.672,2.672,0,0,1,2.762,1.22C842.609,4011.15,842.432,4011.85,842.138,4011.96Zm18.695-7.47h4.63v7.56h0.994v2.29h-0.745v-1.64h-5.765v1.64H859.2v-2.29a1.307,1.307,0,0,0,1.238-.89,5.976,5.976,0,0,0,.395-2.37v-4.3Zm0.806,0.66v3.64a12.275,12.275,0,0,1-.066,1.4,3.388,3.388,0,0,1-.28,1.04,2.321,2.321,0,0,1-.613.82h3.977v-6.9h-3.018Zm5.645,3.45a4.485,4.485,0,0,1,.313-1.67,4.135,4.135,0,0,1,2.327-2.33,5.095,5.095,0,0,1,3.66,0,4.191,4.191,0,0,1,1.424.94,4.142,4.142,0,0,1,.912,1.39,4.486,4.486,0,0,1,.314,1.67,4.434,4.434,0,0,1-.316,1.66,4.214,4.214,0,0,1-2.338,2.34,5.079,5.079,0,0,1-3.654,0,4.227,4.227,0,0,1-1.423-.94,4.173,4.173,0,0,1-.905-1.4A4.452,4.452,0,0,1,867.284,4008.6Zm0.852,0a3.933,3.933,0,0,0,.251,1.39,3.63,3.63,0,0,0,.735,1.18,3.458,3.458,0,0,0,1.154.82,3.95,3.95,0,0,0,2.971,0,3.506,3.506,0,0,0,1.152-.81,3.735,3.735,0,0,0,.729-1.18,3.923,3.923,0,0,0,.253-1.4,3.883,3.883,0,0,0-.253-1.4,3.522,3.522,0,0,0-.728-1.18,3.213,3.213,0,0,0-1.153-.81,3.955,3.955,0,0,0-2.973,0,3.515,3.515,0,0,0-1.154.81,3.725,3.725,0,0,0-.732,1.18A3.966,3.966,0,0,0,868.136,4008.6Zm10.7-4.11h4.606v8.21h-0.806v-7.55h-2.994v4.42a9.262,9.262,0,0,1-.083,1.33,3.126,3.126,0,0,1-.3.98,1.609,1.609,0,0,1-.614.66,1.953,1.953,0,0,1-1.018.23,3.822,3.822,0,0,1-.652-0.07v-0.65a3.814,3.814,0,0,0,.448.06,1.181,1.181,0,0,0,.923-0.35,1.757,1.757,0,0,0,.4-0.88,7.949,7.949,0,0,0,.089-1.27v-5.12Zm6.688,0h0.807v6.5l5.658-6.82v8.53h-0.806v-6.49l-5.659,6.82v-8.54Zm8.546,8.21v-8.21h0.808v3.37h4.767v-3.37h0.807v8.21h-0.807v-4.19h-4.767v4.19H894.07Zm7.554,0,3.717-8.44,3.705,8.44H908.22l-1.151-2.67H903.6l-1.147,2.67h-0.83Zm2.261-3.33h2.9l-1.445-3.36Zm-37.066,17.68v0.92a4.911,4.911,0,0,1-3.019.96,4.483,4.483,0,0,1-1.629-.3,4.174,4.174,0,0,1-1.374-.88,3.988,3.988,0,0,1-.934-1.38,4.571,4.571,0,0,1-.337-1.78,4.5,4.5,0,0,1,.305-1.65,4.2,4.2,0,0,1,.872-1.4,4.135,4.135,0,0,1,1.36-.95,4.476,4.476,0,0,1,1.737-.34,5.263,5.263,0,0,1,1.546.22,4.526,4.526,0,0,1,1.473.77v0.92a4.2,4.2,0,0,0-3-1.25,3.2,3.2,0,0,0-1.373.3,3.357,3.357,0,0,0-1.1.82,3.8,3.8,0,0,0-.718,1.18,3.919,3.919,0,0,0-.251,1.38,3.8,3.8,0,0,0,.472,1.9,3.421,3.421,0,0,0,1.262,1.31,3.213,3.213,0,0,0,1.7.47,4.174,4.174,0,0,0,1.58-.31A4.667,4.667,0,0,0,866.819,4027.05Zm2.673,1.65v-7.56h-2.214v-0.65h5.231v0.65H870.3v7.56h-0.806Zm4.19,0v-8.21h2.3a3.639,3.639,0,0,1,1.711.41,2.387,2.387,0,0,1,0,3.52,3.538,3.538,0,0,1-1.71.42h-1.491v3.86h-0.807Zm0.807-7.56v3.04h1.455a1.425,1.425,0,0,0,1.691-1.52,1.289,1.289,0,0,0-.529-1.23,2.415,2.415,0,0,0-1.162-.29h-1.455Zm4.653,7.56,3.716-8.45,3.705,8.45h-0.825l-1.151-2.68h-3.469l-1.147,2.68h-0.829Zm2.26-3.34h2.9l-1.446-3.36Zm7.325,3.34,1.147-2.49-3.02-5.72h0.914l2.508,4.89,2.237-4.89h0.818l-3.788,8.21h-0.816Zm12.562-1.65v0.92a4.915,4.915,0,0,1-3.019.96,4.483,4.483,0,0,1-1.629-.3,4.164,4.164,0,0,1-1.374-.88,4,4,0,0,1-.935-1.38,4.589,4.589,0,0,1-.336-1.78,4.476,4.476,0,0,1,.305-1.65,4.2,4.2,0,0,1,.872-1.4,4.131,4.131,0,0,1,1.359-.95,4.485,4.485,0,0,1,1.738-.34,5.268,5.268,0,0,1,1.546.22,4.536,4.536,0,0,1,1.473.77v0.92a4.2,4.2,0,0,0-3-1.25,3.2,3.2,0,0,0-1.373.3,3.378,3.378,0,0,0-1.1.82,3.812,3.812,0,0,0-.717,1.18,3.9,3.9,0,0,0-.251,1.38,3.808,3.808,0,0,0,.471,1.9,3.428,3.428,0,0,0,1.262,1.31,3.218,3.218,0,0,0,1.7.47,4.183,4.183,0,0,0,1.581-.31A4.667,4.667,0,0,0,901.289,4027.05Zm0.992-2.46a4.506,4.506,0,0,1,.313-1.67,4.216,4.216,0,0,1,.9-1.39,4.116,4.116,0,0,1,1.422-.94,4.744,4.744,0,0,1,1.837-.34,4.687,4.687,0,0,1,1.823.34,4.2,4.2,0,0,1,1.425.94,4.257,4.257,0,0,1,.911,1.39,4.487,4.487,0,0,1,.315,1.67,4.416,4.416,0,0,1-.316,1.66,4.214,4.214,0,0,1-.912,1.4,4.3,4.3,0,0,1-1.427.94,5.076,5.076,0,0,1-3.653,0,4.133,4.133,0,0,1-2.328-2.33A4.5,4.5,0,0,1,902.281,4024.59Zm0.853,0a3.871,3.871,0,0,0,.251,1.39,3.627,3.627,0,0,0,.734,1.18,3.452,3.452,0,0,0,1.155.82,3.947,3.947,0,0,0,2.97,0,3.226,3.226,0,0,0,1.152-.81,3.629,3.629,0,0,0,.73-1.18,3.922,3.922,0,0,0,.252-1.4,3.883,3.883,0,0,0-.252-1.4,3.522,3.522,0,0,0-.728-1.18,3.484,3.484,0,0,0-1.154-.81,3.955,3.955,0,0,0-2.973,0,3.394,3.394,0,0,0-1.153.82,3.485,3.485,0,0,0-.732,1.18A3.85,3.85,0,0,0,903.134,4024.59Zm9.8-4.1h1.706a6.479,6.479,0,0,1,1.18.1,2.056,2.056,0,0,1,1.037.54,1.683,1.683,0,0,1,.47,1.3,1.85,1.85,0,0,1-.171.81,1.832,1.832,0,0,1-.454.61,2.192,2.192,0,0,1-.618.38v0.02a2.184,2.184,0,0,1,.939.28,1.932,1.932,0,0,1,.7.72,2.2,2.2,0,0,1-1.212,3.23,4.505,4.505,0,0,1-1.4.22h-2.18v-8.21Zm0.807,3.5h1.055a1.666,1.666,0,0,0,1.293-.44,1.515,1.515,0,0,0,.409-1.08,1.069,1.069,0,0,0-.543-1.08,2.825,2.825,0,0,0-1.147-.25h-1.067v2.85Zm0,4.05h1.372a2.215,2.215,0,0,0,1.542-.47,1.6,1.6,0,0,0,.5-1.22,1.547,1.547,0,0,0-.541-1.26,2.4,2.4,0,0,0-1.542-.44h-1.336v3.39Z" transform="translate(-804 -3992.97)"/>
</svg>
