<svg xmlns="http://www.w3.org/2000/svg" width="93.031" height="33.969" viewBox="0 0 93.031 33.969">
  <defs>
    <style>
      .cls-1 {
        fill: #ed1b2f;
        fill-rule: evenodd;
      }
    </style>
  </defs>
  <path id="Shape_881_copy_5" data-name="Shape 881 copy 5" class="cls-1" d="M170.954,61a1.4,1.4,0,0,1,.621.424q3.006,3.043,6.017,6.081a1.134,1.134,0,0,1,.193.25,0.226,0.226,0,0,1-.154.358,1.018,1.018,0,0,1-.27.033c-0.811,0-1.623.018-2.433,0a0.892,0.892,0,0,0-.945.964c0.01,1.018,0,2.036,0,3.055,0,0.495,0,.989,0,1.484a0.822,0.822,0,0,1-.845.853q-2.262,0-4.523,0a0.833,0.833,0,0,1-.851-0.867q0-2.284,0-4.568a0.845,0.845,0,0,0-.636-0.888,1.128,1.128,0,0,0-.271-0.025c-0.869,0-1.738,0-2.607,0a0.98,0.98,0,0,1-.31-0.049,0.208,0.208,0,0,1-.129-0.314,0.811,0.811,0,0,1,.155-0.224q3.114-3.15,6.236-6.293A2.113,2.113,0,0,1,170.637,61h0.317Zm-16.97,16.819a1.587,1.587,0,0,1,.439-0.632q2.973-2.993,5.942-5.99a1.039,1.039,0,0,1,.238-0.184,0.221,0.221,0,0,1,.346.151,1,1,0,0,1,.034.272q0,6.552,0,13.1a0.975,0.975,0,0,1-.045.3,0.205,0.205,0,0,1-.309.134,0.972,0.972,0,0,1-.255-0.184q-3.063-3.087-6.117-6.183a2.173,2.173,0,0,1-.273-0.467v-0.32Zm13.782,6.842V82.231a0.832,0.832,0,0,1,.886-0.888h4.45a0.822,0.822,0,0,1,.883.885q0,2.386,0,4.771a0.871,0.871,0,0,0,.372.817,1,1,0,0,0,.483.151c0.782,0.015,1.565.006,2.348,0.008a1.2,1.2,0,0,1,.3.033,0.23,0.23,0,0,1,.152.361,0.814,0.814,0,0,1-.145.2q-3.043,3.077-6.09,6.152a0.822,0.822,0,0,1-1.146.047c-0.044-.037-0.085-0.078-0.126-0.119l-5-5.05q-0.514-.519-1.024-1.044a0.374,0.374,0,0,1-.159-0.392,0.349,0.349,0,0,1,.39-0.182c0.845,0,1.69,0,2.535,0a0.84,0.84,0,0,0,.893-0.9C167.768,86.27,167.766,85.465,167.766,84.66Zm53.548-4.852h2.163V87.75c0,0.187,0,.188.189,0.188,0.754,0,1.508,0,2.262,0,0.147,0,.185-0.045.185-0.191q-0.007-3.39,0-6.779a2.124,2.124,0,0,1,.032-0.39,0.888,0.888,0,0,1,.967-0.772c0.672-.018,1.344,0,2.028,0v1.912c-0.227,0-.452.008-0.676,0-0.148-.008-0.186.046-0.186,0.191q0.006,3.4,0,6.794a1.954,1.954,0,0,1-.039.4,0.847,0.847,0,0,1-.814.731c-0.133.013-.268,0.02-0.4,0.021q-4.674,0-9.349,0a2.065,2.065,0,0,1-.387-0.031,0.909,0.909,0,0,1-.771-0.945c-0.006-.072-0.006-0.145-0.006-0.218q0-3.368,0-6.736c0-.206,0-0.206-0.206-0.206H215.65v-1.9a0.091,0.091,0,0,1,.029-0.016c0.724,0.006,1.45-.009,2.173.028a0.843,0.843,0,0,1,.81.849c0.009,0.092.01,0.184,0.01,0.276q0,3.332,0,6.663c0,0.372-.013.314,0.306,0.315,0.715,0,1.43,0,2.146,0h0.19V79.809Zm-5.984-7.991a5.136,5.136,0,1,1-10.269-.006A5.135,5.135,0,0,1,215.33,71.818Zm-2.222.032a3.362,3.362,0,0,0-.2-1.165,2.8,2.8,0,0,0-2.325-1.9,2.718,2.718,0,0,0-2.649,1.1,3.347,3.347,0,0,0,.209,4.191,2.735,2.735,0,0,0,3.587.454A3.2,3.2,0,0,0,213.108,71.85Zm-3.069,7.795a5.061,5.061,0,0,1,5.135,5.12,5.14,5.14,0,1,1-10.276-.035A5.066,5.066,0,0,1,210.039,79.645Zm-2.907,5.118a3.44,3.44,0,0,0,.434,1.7,2.78,2.78,0,0,0,4.419.685,3.393,3.393,0,0,0,.618-3.83,2.854,2.854,0,0,0-3.509-1.451A3.019,3.019,0,0,0,207.132,84.763Zm9.547-15.994h-0.872V66.857c0.043,0,.081-0.008.118-0.008,1.512,0,3.024-.011,4.536.009a3.172,3.172,0,0,1,2.1.737,2.675,2.675,0,0,1-.047,3.942,0.05,0.05,0,1,0,0,.008,6.683,6.683,0,0,1,.683.622,2.661,2.661,0,0,1,.58,1.981,2.837,2.837,0,0,1-2.454,2.645,5.373,5.373,0,0,1-.971.1c-0.854.013-1.709,0.005-2.563,0a1.764,1.764,0,0,1-.316-0.021,0.9,0.9,0,0,1-.791-0.91c0-.063,0-0.126,0-0.189v-7Zm2.131,3.846v0.146c0,0.679,0,1.358,0,2.037a0.158,0.158,0,0,0,.191.193c0.456,0,.912,0,1.368,0a1.23,1.23,0,0,0,.883-0.283,1.382,1.382,0,0,0,.261-1.421,1.041,1.041,0,0,0-1.028-.676c-0.524-.006-1.047,0-1.57,0C218.883,72.606,218.855,72.611,218.81,72.615Zm0.009-1.841a0.5,0.5,0,0,0,.076.012c0.494,0,.987,0,1.481-0.01a0.912,0.912,0,0,0,.395-0.113,0.977,0.977,0,0,0,.469-0.987,0.875,0.875,0,0,0-.915-0.91c-0.474-.007-0.949,0-1.423,0a0.577,0.577,0,0,0-.083.012v2Zm-14.4,17.164v1.917h-0.159c-0.586,0-1.171,0-1.757,0a1.9,1.9,0,0,1-.344-0.03,0.923,0.923,0,0,1-.773-1.044q0-1.8,0-3.608V81.912c0-.194,0-0.2-0.191-0.2h-3.3c-0.046,0-.093,0-0.16.008v0.191q0,3.848,0,7.7c0,0.281.038,0.242-.247,0.243-0.586,0-1.172,0-1.758,0h-0.166V81.723h-0.862V79.8h0.153q3.774,0,7.548,0a1.972,1.972,0,0,1,.4.038,0.868,0.868,0,0,1,.729.808,3.412,3.412,0,0,1,.023.391q0,3.346,0,6.692c0,0.206,0,.206.206,0.206h0.658Zm0.15-19.174c-0.24,0-.465.007-0.69,0a0.141,0.141,0,0,0-.173.175c0,0.771,0,1.542,0,2.313v5.634h-2.157V72.86h-3.81v4.024h-2.163v-7.9c0-.223,0-0.223-0.221-0.223h-0.644V66.849h0.147c0.576,0,1.153,0,1.729,0a2.028,2.028,0,0,1,.442.044,0.921,0.921,0,0,1,.709,1.01q0,1.418,0,2.837v0.181h3.808v-0.18c0-.916,0-1.833,0-2.749a1.95,1.95,0,0,1,.042-0.418,0.88,0.88,0,0,1,.9-0.717c0.681-.02,1.363-0.006,2.045-0.006a0.133,0.133,0,0,1,.035.015v1.9Zm-23.8,9.214q0-3.15,0-6.3a1.437,1.437,0,0,1,.035-0.359,0.226,0.226,0,0,1,.367-0.152,0.966,0.966,0,0,1,.2.161q3,3.023,5.99,6.049a0.846,0.846,0,0,1,.03,1.191c-0.029.032-.06,0.063-0.091,0.094q-2.965,2.992-5.932,5.983a0.9,0.9,0,0,1-.241.178,0.21,0.21,0,0,1-.318-0.143,1.41,1.41,0,0,1-.042-0.373Q180.771,81.143,180.772,77.978Zm66.235,9.96v1.9a0.136,0.136,0,0,1-.041.017c-0.49,0-.979,0-1.468-0.015a0.987,0.987,0,0,1-.954-0.692c-0.2-.539-0.394-1.081-0.586-1.624a0.173,0.173,0,0,0-.191-0.143q-1.326.008-2.65,0a0.164,0.164,0,0,0-.188.127c-0.165.48-.354,0.952-0.508,1.435a1.124,1.124,0,0,1-1.134.906c-0.469,0-.939,0-1.42,0v-1.91c0.127,0,.255-0.007.382,0a0.218,0.218,0,0,0,.25-0.178q0.972-2.7,1.953-5.4c0.3-.814.592-1.626,0.883-2.441a0.152,0.152,0,0,1,.172-0.123q0.928,0.008,1.858,0a0.173,0.173,0,0,1,.192.139q1.389,3.869,2.785,7.736c0.1,0.265.1,0.265,0.379,0.265h0.286Zm-3.64-2.439c-0.313-.938-0.621-1.86-0.926-2.775L241.528,85.5h1.839Zm-9.814-10.522v1.917H233.2c-0.37,0-.739,0-1.109-0.007a1.033,1.033,0,0,1-1.025-.742c-0.188-.518-0.378-1.035-0.556-1.557a0.214,0.214,0,0,0-.246-0.17q-1.29.009-2.578,0a0.2,0.2,0,0,0-.224.161c-0.168.494-.351,0.983-0.526,1.474a1.049,1.049,0,0,1-1.106.835c-0.47.017-.94,0-1.421,0V74.977c0.126,0,.255-0.008.381,0a0.215,0.215,0,0,0,.252-0.173q0.984-2.736,1.978-5.468l0.843-2.332c0.018-.05.039-0.1,0.062-0.157h1.093c0.293,0,.586.006,0.878,0a0.178,0.178,0,0,1,.205.144q0.933,2.608,1.874,5.212l0.92,2.55c0.081,0.225.082,0.225,0.319,0.225h0.336Zm-3.64-2.432c-0.314-.938-0.621-1.86-0.928-2.777-0.3.917-.6,1.84-0.912,2.777h1.84Zm5.41,9.172v8.127h-2.164V81.717h-0.324c-0.293,0-.586,0-0.879,0a0.126,0.126,0,0,0-.158.156c0.008,0.236,0,.472,0,0.717h-1.951V82.16c0-.446,0-0.892,0-1.338a1.847,1.847,0,0,1,.032-0.332,0.765,0.765,0,0,1,.7-0.66,2.824,2.824,0,0,1,.373-0.027q3.283,0,6.568,0a2.279,2.279,0,0,1,.456.049,0.729,0.729,0,0,1,.612.68,7.867,7.867,0,0,1,.031.856c0,0.4,0,.793,0,1.2h-1.962V81.921c0-.2,0-0.2-0.2-0.2h-1.148Z" transform="translate(-153.969 -61)"/>
</svg>
