<svg xmlns="http://www.w3.org/2000/svg" width="18" height="11" viewBox="0 0 18 11">
  <metadata><?xpacket begin="﻿" id="W5M0MpCehiHzreSzNTczkc9d"?>
<x:xmpmeta xmlns:x="adobe:ns:meta/" x:xmptk="Adobe XMP Core 5.6-c138 79.159824, 2016/09/14-01:09:01        ">
   <rdf:RDF xmlns:rdf="http://www.w3.org/1999/02/22-rdf-syntax-ns#">
      <rdf:Description rdf:about=""/>
   </rdf:RDF>
</x:xmpmeta>
                                                                                                    
                                                                                                    
                                                                                                    
                                                                                                    
                                                                                                    
                                                                                                    
                                                                                                    
                                                                                                    
                                                                                                    
                                                                                                    
                                                                                                    
                                                                                                    
                                                                                                    
                                                                                                    
                                                                                                    
                                                                                                    
                                                                                                    
                                                                                                    
                                                                                                    
                                                                                                    
                           
<?xpacket end="w"?></metadata>
<defs>
    <style>
      .cls-1 {
        fill: #b7b7b7;
        fill-rule: evenodd;
      }
    </style>
  </defs>
  <path class="cls-1" d="M17.362,5.266c-0.5-.587-1.05-1.183-1.628-1.774a13.858,13.858,0,0,0-1.965-1.663A10.906,10.906,0,0,0,11.458.6,7.627,7.627,0,0,0,6.494.477,9.265,9.265,0,0,0,4.376,1.5a15.4,15.4,0,0,0-2.07,1.608c-0.674.615-1.391,1.322-2.13,2.1L0.012,5.38,0.177,5.553q0.954,1,1.857,1.9A13.923,13.923,0,0,0,3.956,9.076a9.065,9.065,0,0,0,2.177,1.143,7.794,7.794,0,0,0,2.63.422,7.156,7.156,0,0,0,2.723-.517A11.576,11.576,0,0,0,13.8,8.849a14.4,14.4,0,0,0,1.955-1.636Q16.627,6.34,17.35,5.6l0.162-.163ZM16.073,5.4c-0.414.425-.865,0.87-1.344,1.328A14,14,0,0,1,12.99,8.142a10.3,10.3,0,0,1-2,1.033,6.7,6.7,0,0,1-4.419.064,8.273,8.273,0,0,1-1.87-.934,12.883,12.883,0,0,1-1.7-1.4Q2.262,6.181,1.484,5.382C2.1,4.753,2.7,4.18,3.27,3.675a13.132,13.132,0,0,1,1.8-1.36,8.1,8.1,0,0,1,1.808-.847,6.448,6.448,0,0,1,4.094.093,9.5,9.5,0,0,1,1.983,1.009A12.682,12.682,0,0,1,14.7,3.979C15.191,4.45,15.651,4.929,16.073,5.4Zm-4.752-2.57a3.88,3.88,0,0,0-1.15-.759,3.548,3.548,0,0,0-2.812,0A3.916,3.916,0,0,0,6.2,2.841,3.853,3.853,0,0,0,5.44,3.983a3.483,3.483,0,0,0,0,2.795,3.878,3.878,0,0,0,.769,1.149,3.88,3.88,0,0,0,1.15.759,3.55,3.55,0,0,0,2.812,0,3.916,3.916,0,0,0,1.156-.766,3.874,3.874,0,0,0,.763-1.143,3.491,3.491,0,0,0,0-2.795A3.889,3.889,0,0,0,11.321,2.835Zm0,2.546a2.38,2.38,0,0,1-.2.977,2.786,2.786,0,0,1-.542.816,2.836,2.836,0,0,1-.827.546,2.524,2.524,0,0,1-1.966,0,2.821,2.821,0,0,1-.821-0.539,2.808,2.808,0,0,1-.549-0.824,2.482,2.482,0,0,1,0-1.953,2.751,2.751,0,0,1,.542-0.816,2.788,2.788,0,0,1,.829-0.546,2.511,2.511,0,0,1,1.965,0,2.779,2.779,0,0,1,.821.539,2.761,2.761,0,0,1,.549.824A2.4,2.4,0,0,1,11.318,5.38Z"/>
</svg>
