<svg xmlns="http://www.w3.org/2000/svg" width="52" height="44" viewBox="0 0 52 44">
  <metadata><?xpacket begin="﻿" id="W5M0MpCehiHzreSzNTczkc9d"?>
<x:xmpmeta xmlns:x="adobe:ns:meta/" x:xmptk="Adobe XMP Core 5.6-c138 79.159824, 2016/09/14-01:09:01        ">
   <rdf:RDF xmlns:rdf="http://www.w3.org/1999/02/22-rdf-syntax-ns#">
      <rdf:Description rdf:about=""/>
   </rdf:RDF>
</x:xmpmeta>
                                                                                                    
                                                                                                    
                                                                                                    
                                                                                                    
                                                                                                    
                                                                                                    
                                                                                                    
                                                                                                    
                                                                                                    
                                                                                                    
                                                                                                    
                                                                                                    
                                                                                                    
                                                                                                    
                                                                                                    
                                                                                                    
                                                                                                    
                                                                                                    
                                                                                                    
                                                                                                    
                           
<?xpacket end="w"?></metadata>
<defs>
    <style>
      .cls-1 {
        fill: #d29e24;
        fill-rule: evenodd;
      }
    </style>
  </defs>
  <path class="cls-1" d="M100.827,39.015H85.04v1.591h15.787V39.015ZM94.267,44h11.226V42.408H94.267V44Zm-7.018,34.02H74.913V79.6H87.249V78.015Zm-3.111,4.98h16.689v-1.59H84.138v1.59ZM109.5,72.5v0l-0.754-1.41h0l-5.692-10.668-0.537-1.059H98.561V50.844h0V50.167l-2.005-.419L82.668,46.665a0.793,0.793,0,0,0-.559.081L59.88,59.087,58,60.1v0.232l1.183,0.511,0,0L59.2,60.851l0.026,0.012,0.031,0.016,0.028,0.012h0s0,0,0,0l40.72,16.954a0.374,0.374,0,0,0,.059.012l0.762,0.3,0.28-.247v-6.2l5.626,1.453h0l0,0,1.858,0.48a0.743,0.743,0,0,0,.2.024h0l0.794,0.2,0.4-.443ZM96.971,51.843v7.52H66.193ZM82.618,48.281l11.648,2.587-29.12,7.113Zm16.9,27.64L70.239,63.731,99.516,71.3v4.625Zm0.994-6.01-34.669-8.96H101.53l5.71,10.7Z" transform="translate(-58 -39)"/>
</svg>
