<svg xmlns="http://www.w3.org/2000/svg" width="16" height="13" viewBox="0 0 16 13">
<defs>
    <style>
      .cls-1 {
        fill: #afb1b5;
        fill-rule: evenodd;
      }
    </style>
  </defs>
  <path class="cls-1" d="M8,12.987a1.27,1.27,0,0,1-.889-0.345L2.069,8.108A2.716,2.716,0,0,1,1.833,7.9c-0.108-.1-0.274-0.284-0.5-0.548A7.272,7.272,0,0,1,.723,6.534a5.091,5.091,0,0,1-.5-1.053A3.807,3.807,0,0,1-.006,4.222a3.993,3.993,0,0,1,1.254-3.1A4.84,4.84,0,0,1,4.615-.01a4.255,4.255,0,0,1,1.262.2A5.09,5.09,0,0,1,7.021.705c0.321,0.2.6,0.382,0.829,0.554C7.9,1.3,7.953,1.336,8,1.375c0.05-.039.1-0.078,0.15-0.114,0.235-.174.51-0.36,0.831-0.556A5.057,5.057,0,0,1,10.131.189a4.223,4.223,0,0,1,1.26-.2,4.841,4.841,0,0,1,3.366,1.133,4,4,0,0,1,1.255,3.1,5.482,5.482,0,0,1-2.074,3.891l-5.06,4.542A1.259,1.259,0,0,1,8,12.987ZM7.836,11.66l-0.009.007Zm0.322-.011,0,0ZM4.615,1.382a3.311,3.311,0,0,0-2.325.739,2.673,2.673,0,0,0-.8,2.1,2.448,2.448,0,0,0,.153.826A3.7,3.7,0,0,0,2,5.821a5.877,5.877,0,0,0,.494.66Q2.774,6.8,2.9,6.926c0.065,0.061.116,0.11,0.154,0.139L8,11.509,12.891,7.12a4.212,4.212,0,0,0,1.627-2.9,2.673,2.673,0,0,0-.8-2.1,3.31,3.31,0,0,0-2.323-.738,2.609,2.609,0,0,0-.787.128,3.525,3.525,0,0,0-.8.359c-0.28.171-.52,0.333-0.722,0.481a7.04,7.04,0,0,0-.552.462L8,3.3,7.476,2.811a7.03,7.03,0,0,0-.554-0.463C6.722,2.2,6.482,2.04,6.2,1.868A3.559,3.559,0,0,0,5.4,1.51,2.64,2.64,0,0,0,4.615,1.382Z"/>
</svg>
