<svg xmlns="http://www.w3.org/2000/svg" width="60" height="39" viewBox="0 0 60 39">
  <metadata><?xpacket begin="﻿" id="W5M0MpCehiHzreSzNTczkc9d"?>
<x:xmpmeta xmlns:x="adobe:ns:meta/" x:xmptk="Adobe XMP Core 5.6-c138 79.159824, 2016/09/14-01:09:01        ">
   <rdf:RDF xmlns:rdf="http://www.w3.org/1999/02/22-rdf-syntax-ns#">
      <rdf:Description rdf:about=""/>
   </rdf:RDF>
</x:xmpmeta>
                                                                                                    
                                                                                                    
                                                                                                    
                                                                                                    
                                                                                                    
                                                                                                    
                                                                                                    
                                                                                                    
                                                                                                    
                                                                                                    
                                                                                                    
                                                                                                    
                                                                                                    
                                                                                                    
                                                                                                    
                                                                                                    
                                                                                                    
                                                                                                    
                                                                                                    
                                                                                                    
                           
<?xpacket end="w"?></metadata>
<defs>
    <style>
      .cls-1 {
        fill: #d29e24;
        fill-rule: evenodd;
      }
    </style>
  </defs>
  <path class="cls-1" d="M3.642,34.417l0.082,0.364a5.262,5.262,0,0,0,10.28,0l0.084-.366H44.407l0.084,0.364a5.261,5.261,0,0,0,10.279,0l0.084-.366h5.142V21.124L49.933,9.807h-8.7V0.928H-0.009V34.417H3.642Zm5.222,2.9a3.7,3.7,0,1,1,3.68-3.7A3.7,3.7,0,0,1,8.864,37.32Zm40.767,0a3.7,3.7,0,1,1,3.678-3.7A3.7,3.7,0,0,1,49.631,37.32Zm0.917-24.672,0.816,0.928,6.154,7.069h-6.97v-8Zm-9.319-1.241H48.96L48.946,22.245H58.4V32.818h-3.55l-0.082-.364a5.262,5.262,0,0,0-10.28,0l-0.084.366H41.229V11.407ZM1.582,2.529H39.637v22.16H1.582V2.529Zm0,23.759H39.637v6.53H14.088L14,32.454a5.261,5.261,0,0,0-10.279,0l-0.084.366H1.582v-6.53Zm17.2-6.177v1.6H21v-1.6H18.786Zm5.411,0v1.6H36.141v-1.6H24.2Z"/>
</svg>
