<svg xmlns="http://www.w3.org/2000/svg" width="52.188" height="31.5" viewBox="0 0 52.188 31.5">
  <metadata><?xpacket begin="﻿" id="W5M0MpCehiHzreSzNTczkc9d"?>
<x:xmpmeta xmlns:x="adobe:ns:meta/" x:xmptk="Adobe XMP Core 5.6-c138 79.159824, 2016/09/14-01:09:01        ">
   <rdf:RDF xmlns:rdf="http://www.w3.org/1999/02/22-rdf-syntax-ns#">
      <rdf:Description rdf:about=""/>
   </rdf:RDF>
</x:xmpmeta>
                                                                                                    
                                                                                                    
                                                                                                    
                                                                                                    
                                                                                                    
                                                                                                    
                                                                                                    
                                                                                                    
                                                                                                    
                                                                                                    
                                                                                                    
                                                                                                    
                                                                                                    
                                                                                                    
                                                                                                    
                                                                                                    
                                                                                                    
                                                                                                    
                                                                                                    
                                                                                                    
                           
<?xpacket end="w"?></metadata>
<defs>
    <style>
      .cls-1 {
        fill: #d29e24;
        fill-rule: evenodd;
      }
    </style>
  </defs>
  <path id="Shape_30_copy_2" data-name="Shape 30 copy 2" class="cls-1" d="M60.039,499.646l0.02,0.079a4.651,4.651,0,0,0,9.056,0l0.019-.079H93.781l0.02,0.079a4.651,4.651,0,0,0,9.057,0l0.018-.079h4.313V488.833c-0.544-.673-8.109-9.05-8.8-9.8h-6.73V471.8H56.96v23.7H55.006v1.864l1.953,0.036v2.24h3.079Zm4.548,1.806a2.737,2.737,0,1,1,2.764-2.738A2.755,2.755,0,0,1,64.586,501.452Zm33.742,0a2.737,2.737,0,1,1,2.762-2.738A2.755,2.755,0,0,1,98.329,501.452Zm1.041-19.085,0.183,0.2,4.684,5.3H99.37v-5.5ZM91.656,480.9h5.837l-0.011,8.83h7.827v8.057h-2.434l-0.018-.08a4.651,4.651,0,0,0-9.057,0l-0.02.08H91.656V480.9Zm-32.816-7.233H89.777v17.5H58.839v-17.5Zm0,19.356H89.777v4.764H69.133l-0.019-.08a4.651,4.651,0,0,0-9.056,0l-0.02.08h-1.2v-4.764Zm14.367-4.939v1.86H75.6v-1.86H73.207Zm4.478,0v1.86H88.133v-1.86H77.684Z" transform="translate(-55 -471.813)"/>
</svg>
