<svg xmlns="http://www.w3.org/2000/svg" width="17" height="17.031" viewBox="0 0 17 17.031">
  <metadata><?xpacket begin="﻿" id="W5M0MpCehiHzreSzNTczkc9d"?>
<x:xmpmeta xmlns:x="adobe:ns:meta/" x:xmptk="Adobe XMP Core 5.6-c138 79.159824, 2016/09/14-01:09:01        ">
   <rdf:RDF xmlns:rdf="http://www.w3.org/1999/02/22-rdf-syntax-ns#">
      <rdf:Description rdf:about=""/>
   </rdf:RDF>
</x:xmpmeta>
                    
<?xpacket end="w"?></metadata>
<defs>
    <style>
      .cls-1 {
        fill: #afb1b5;
        fill-rule: evenodd;
      }
    </style>
  </defs>
  <path class="cls-1" d="M933.425,631.294h-0.007a0.672,0.672,0,0,0-.668.672v8.713H920.344V628.231h8.692a0.66,0.66,0,0,0,.46-0.187,0.668,0.668,0,0,0-.469-1.149h-9.349l-0.064,0a0.664,0.664,0,0,0-.6.665v13.784a0.669,0.669,0,0,0,.665.668h13.738a0.669,0.669,0,0,0,.665-0.668v-9.378A0.668,0.668,0,0,0,933.425,631.294Zm-13.782-4.113h0Zm16.235,0.262,0-.187H935.71l-2.074-2.083a0.669,0.669,0,0,0-.539-0.19h-0.012a0.7,0.7,0,0,0-.39.19l-8.628,8.659a0.661,0.661,0,0,0-.2.407l-0.268,2.433a0.672,0.672,0,0,0,.6.744l0.061,0c0.025,0,.052,0,0.08,0l2.425-.276a0.684,0.684,0,0,0,.4-0.19l8.63-8.661A0.67,0.67,0,0,0,935.878,627.443Zm-1.493.372-7.993,8.02-1.378.152,0.153-1.369,8-8.028Z" transform="translate(-919 -624.969)"/>
</svg>
