<svg xmlns="http://www.w3.org/2000/svg" width="14" height="16.031" viewBox="0 0 14 16.031">
  <metadata><?xpacket begin="﻿" id="W5M0MpCehiHzreSzNTczkc9d"?>
<x:xmpmeta xmlns:x="adobe:ns:meta/" x:xmptk="Adobe XMP Core 5.6-c138 79.159824, 2016/09/14-01:09:01        ">
   <rdf:RDF xmlns:rdf="http://www.w3.org/1999/02/22-rdf-syntax-ns#">
      <rdf:Description rdf:about=""/>
   </rdf:RDF>
</x:xmpmeta>
                                                                                                    
                                                                                                    
                                                                                                    
                                                                                                    
                                                                                                    
                                                                                                    
                                                                                                    
                                                                                                    
                                                                                                    
                                                                                                    
                                                                                                    
                                                                                                    
                                                                                                    
                                                                                                    
                                                                                                    
                                                                                                    
                                                                                                    
                                                                                                    
                                                                                                    
                                                                                                    
                           
<?xpacket end="w"?></metadata>
<defs>
    <style>
      .cls-1 {
        fill: #313131;
        fill-rule: evenodd;
      }
    </style>
  </defs>
  <path class="cls-1" d="M998.651,59.169l-2.344,1.2A1.125,1.125,0,0,0,996,61.3a14.126,14.126,0,0,0,3.271,9.118,11.549,11.549,0,0,0,8.3,4.566,0.979,0.979,0,0,0,.92-0.215l1.27-2.263a0.913,0.913,0,0,0-.16-1.348l-3.14-1.185a0.8,0.8,0,0,0-.94.028l-1.37,1.623a0.821,0.821,0,0,1-1.02-.023,15.694,15.694,0,0,1-2.69-2.59,12.983,12.983,0,0,1-1.787-3.227,0.913,0.913,0,0,1,.184-0.989l1.673-1.2a0.908,0.908,0,0,0,.13-1.082l-0.753-3.083A0.822,0.822,0,0,0,998.651,59.169Z" transform="translate(-996 -58.969)"/>
</svg>
