<svg xmlns="http://www.w3.org/2000/svg" width="39" height="29" viewBox="0 0 39 29">
  <metadata><?xpacket begin="﻿" id="W5M0MpCehiHzreSzNTczkc9d"?>
<x:xmpmeta xmlns:x="adobe:ns:meta/" x:xmptk="Adobe XMP Core 5.6-c138 79.159824, 2016/09/14-01:09:01        ">
   <rdf:RDF xmlns:rdf="http://www.w3.org/1999/02/22-rdf-syntax-ns#">
      <rdf:Description rdf:about=""/>
   </rdf:RDF>
</x:xmpmeta>
                                                                                                    
                                                                                                    
                                                                                                    
                                                                                                    
                                                                                                    
                                                                                                    
                                                                                                    
                                                                                                    
                                                                                                    
                                                                                                    
                                                                                                    
                                                                                                    
                                                                                                    
                                                                                                    
                                                                                                    
                                                                                                    
                                                                                                    
                                                                                                    
                                                                                                    
                                                                                                    
                           
<?xpacket end="w"?></metadata>
<defs>
    <style>
      .cls-1 {
        fill: #d29e24;
        fill-rule: evenodd;
      }
    </style>
  </defs>
  <path class="cls-1" d="M426.772,504.014H393.015V480.351h33.757v23.663Zm-32.214-1.563h30.67V481.914h-30.67v20.537Zm33.73-3.8H426v-1.564h2.288a2.194,2.194,0,0,0,2.177-2.2V478.761a2.194,2.194,0,0,0-2.177-2.205H401.971a2.194,2.194,0,0,0-2.176,2.205v2.371h-1.544v-2.371a3.749,3.749,0,0,1,3.72-3.768h26.317a3.749,3.749,0,0,1,3.721,3.768v16.126A3.751,3.751,0,0,1,428.288,498.656ZM426,491.07h5.237v-5.3H426v5.3Zm-15.5,7.768a6.361,6.361,0,1,1,6.279-6.361A6.327,6.327,0,0,1,410.5,498.838Zm0-11.157a4.8,4.8,0,1,0,4.735,4.8A4.773,4.773,0,0,0,410.5,487.681Zm12.793-1.724h-3.688v-1.563H423.3v1.563Zm0,14.42h-3.688v-1.563H423.3v1.563Zm-22.429,0h-3.687v-1.563h3.687v1.563Zm0-14.42h-3.687v-1.563h3.687v1.563Z" transform="translate(-393 -475)"/>
</svg>
