<svg xmlns="http://www.w3.org/2000/svg" width="58" height="43" viewBox="0 0 58 43">
  <defs>
    <style>
      .cls-1 {
        fill: #d29e24;
        fill-rule: evenodd;
      }
    </style>
  </defs>
  <path class="cls-1" d="M1075.91,2456.89v34.92h50.12v-34.92h-50.12Zm48.49,33.27h-46.87v-31.62h46.87v31.62Zm9.52-11.74v-24.28a5.3,5.3,0,0,0-5.26-5.32h-39.62a5.3,5.3,0,0,0-5.25,5.32v3.22h1.63v-3.22a3.649,3.649,0,0,1,3.62-3.67h39.62a3.658,3.658,0,0,1,3.63,3.67v24.28a3.658,3.658,0,0,1-3.63,3.67h-3.09v1.65h3.09A5.3,5.3,0,0,0,1133.92,2478.42Zm-32.03-12.85a9.226,9.226,0,1,0,9.1,9.22A9.181,9.181,0,0,0,1101.89,2465.57Zm0,16.8a7.576,7.576,0,1,1,7.47-7.58A7.535,7.535,0,0,1,1101.89,2482.37Zm14.05-19.4v1.65h4.86v-1.65h-4.86Zm10.09,10.17v1.65h6.26v-1.65h-6.26Zm0-5.56v1.65h6.26v-1.65h-6.26Zm-10.09,17.1v1.65h4.86v-1.65h-4.86Zm-33.76,0v1.65h4.85v-1.65h-4.85Zm0-21.71v1.65h4.85v-1.65h-4.85Z" transform="translate(-1075.91 -2448.81)"/>
</svg>
