<svg xmlns="http://www.w3.org/2000/svg" width="20" height="17" viewBox="0 0 20 17">
  <metadata><?xpacket begin="﻿" id="W5M0MpCehiHzreSzNTczkc9d"?>
<x:xmpmeta xmlns:x="adobe:ns:meta/" x:xmptk="Adobe XMP Core 5.6-c138 79.159824, 2016/09/14-01:09:01        ">
   <rdf:RDF xmlns:rdf="http://www.w3.org/1999/02/22-rdf-syntax-ns#">
      <rdf:Description rdf:about=""/>
   </rdf:RDF>
</x:xmpmeta>                        
<?xpacket end="w"?></metadata>
<defs>
    <style>
      .cls-1 {
        fill: #b8b8b8;
        fill-rule: evenodd;
      }
    </style>
  </defs>
  <path class="cls-1" d="M585,2019.93c0-.88.02-1.72-0.009-2.55a0.926,0.926,0,0,1,.4-0.85c0.512-.39,1-0.82,1.567-1.28,0.018,0.24.037,0.39,0.038,0.54,0,1.65,0,3.3,0,4.96a1.038,1.038,0,0,1-1.238,1.24q-7.281.015-14.561,0a1.01,1.01,0,0,1-1.2-1.22c0-3.72,0-7.43,0-11.15a1,1,0,0,1,1.164-1.2h5.447c0.117,0,.234.01,0.365,0.02-0.668.66-1.3,1.29-1.963,1.91a0.7,0.7,0,0,1-.443.09c-0.835.01-1.671,0-2.545,0v9.49H585Zm-1.687-11.75V2005c2.274,1.74,4.449,3.41,6.688,5.12-2.226,1.7-4.4,3.35-6.654,5.06v-3.3c-3.875-.36-6.451,1.51-8.266,4.79a9.84,9.84,0,0,1,2.373-6.08A7.515,7.515,0,0,1,583.31,2008.18Z" transform="translate(-570 -2005)"/>
</svg>
