<svg xmlns="http://www.w3.org/2000/svg" width="16.031" height="19" viewBox="0 0 16.031 19">
  <metadata><?xpacket begin="﻿" id="W5M0MpCehiHzreSzNTczkc9d"?>
<x:xmpmeta xmlns:x="adobe:ns:meta/" x:xmptk="Adobe XMP Core 5.6-c138 79.159824, 2016/09/14-01:09:01        ">
   <rdf:RDF xmlns:rdf="http://www.w3.org/1999/02/22-rdf-syntax-ns#">
      <rdf:Description rdf:about=""/>
   </rdf:RDF>
</x:xmpmeta>                     
<?xpacket end="w"?></metadata>
<defs>
    <style>
      .cls-1 {
        fill: #b8b8b8;
        fill-rule: evenodd;
      }
    </style>
  </defs>
  <path class="cls-1" d="M544.1,2019.88a5.633,5.633,0,0,0-.168-3.12,4.57,4.57,0,0,0-2.106-2.36,8.94,8.94,0,0,0-4.7-.86v4.71l-7.127-7.13,7.127-7.12v4.6a9.8,9.8,0,0,1,5.837,1.35,6.689,6.689,0,0,1,2.756,3.64,8.332,8.332,0,0,1-.083,4.74,11.572,11.572,0,0,1-2.683,4.67A10.956,10.956,0,0,0,544.1,2019.88Z" transform="translate(-530 -2004)"/>
</svg>
