<svg xmlns="http://www.w3.org/2000/svg" width="9" height="9" viewBox="0 0 9 9">
  <metadata><?xpacket begin="﻿" id="W5M0MpCehiHzreSzNTczkc9d"?>
<x:xmpmeta xmlns:x="adobe:ns:meta/" x:xmptk="Adobe XMP Core 5.6-c138 79.159824, 2016/09/14-01:09:01        ">
   <rdf:RDF xmlns:rdf="http://www.w3.org/1999/02/22-rdf-syntax-ns#">
      <rdf:Description rdf:about=""/>
   </rdf:RDF>
</x:xmpmeta>
                                                                                                    
                                                                                                    
                                                                                                    
                                                                                                    
                                                                                                    
                                                                                                    
                                                                                                    
                                                                                                    
                                                                                                    
                                                                                                    
                                                                                                    
                                                                                                    
                                                                                                    
                                                                                                    
                                                                                                    
                                                                                                    
                                                                                                    
                                                                                                    
                                                                                                    
                                                                                                    
                           
<?xpacket end="w"?></metadata>
<defs>
    <style>
      .cls-1 {
        fill: #b7b7b7;
        fill-rule: evenodd;
      }
    </style>
  </defs>
  <path class="cls-1" d="M7.308,6a1.837,1.837,0,0,1,.659.117,1.731,1.731,0,0,1,.538.322,1.681,1.681,0,0,1,.357.478A1.261,1.261,0,0,1,9,7.487a1.28,1.28,0,0,1-.137.585,1.681,1.681,0,0,1-.357.478,1.731,1.731,0,0,1-.538.322,1.913,1.913,0,0,1-1.318,0A1.733,1.733,0,0,1,6.11,8.55a1.683,1.683,0,0,1-.357-0.478,1.279,1.279,0,0,1-.137-0.585,0.752,0.752,0,0,1,.011-0.122c0.007-.043.015-0.083,0.022-0.122L2.7,5.683a1.694,1.694,0,0,1-.472.224,2.454,2.454,0,0,1-.269.063A1.616,1.616,0,0,1,1.683,6a1.837,1.837,0,0,1-.659-0.117A1.729,1.729,0,0,1,.485,5.557,1.685,1.685,0,0,1,.128,5.079a1.315,1.315,0,0,1,0-1.17A1.559,1.559,0,0,1,.485,3.44a1.732,1.732,0,0,1,.538-0.322A1.834,1.834,0,0,1,1.683,3a1.93,1.93,0,0,1,.549.078A1.693,1.693,0,0,1,2.7,3.3l2.945-1.56C5.642,1.7,5.634,1.664,5.627,1.622A0.752,0.752,0,0,1,5.616,1.5,1.279,1.279,0,0,1,5.753.915,1.683,1.683,0,0,1,6.11.437,1.931,1.931,0,0,1,6.649.12a1.841,1.841,0,0,1,1.318,0,1.929,1.929,0,0,1,.538.317,1.681,1.681,0,0,1,.357.478A1.28,1.28,0,0,1,9,1.5a1.28,1.28,0,0,1-.137.585,1.681,1.681,0,0,1-.357.478,1.926,1.926,0,0,1-.538.317A1.767,1.767,0,0,1,7.308,3a1.614,1.614,0,0,1-.28-0.024,2.465,2.465,0,0,1-.269-0.063,1.639,1.639,0,0,1-.253-0.1,1.671,1.671,0,0,1-.22-0.127L3.342,4.25c0.007,0.039.015,0.079,0.022,0.122a0.73,0.73,0,0,1,.011.122,0.7,0.7,0,0,1-.011.127C3.357,4.659,3.349,4.7,3.342,4.737l2.945,1.57a1.177,1.177,0,0,1,.22-0.136,1.639,1.639,0,0,1,.253-0.1,1.947,1.947,0,0,1,.269-0.059A1.974,1.974,0,0,1,7.308,6Z"/>
</svg>
