<svg xmlns="http://www.w3.org/2000/svg" width="16" height="15" viewBox="0 0 16 15">
  <metadata><?xpacket begin="﻿" id="W5M0MpCehiHzreSzNTczkc9d"?>
<x:xmpmeta xmlns:x="adobe:ns:meta/" x:xmptk="Adobe XMP Core 5.6-c138 79.159824, 2016/09/14-01:09:01        ">
   <rdf:RDF xmlns:rdf="http://www.w3.org/1999/02/22-rdf-syntax-ns#">
      <rdf:Description rdf:about=""/>
   </rdf:RDF>
</x:xmpmeta>
                                                                                                    
                                                                                                    
                                                                                                    
                                                                                                    
                                                                                                    
                                                                                                    
                                                                                                    
                                                                                                    
                                                                                                    
                                                                                                    
                                                                                                    
                                                                                                    
                                                                                                    
                                                                                                    
                                                                                                    
                                                                                                    
                                                                                                    
                                                                                                    
                                                                                                    
                                                                                                    
                           
<?xpacket end="w"?></metadata>
<defs>
    <style>
      .cls-1 {
        fill: #afb1b5;
        fill-rule: evenodd;
      }
    </style>
  </defs>
  <path class="cls-1" d="M3.85,15.017a1.28,1.28,0,0,1-.743-0.239,1.233,1.233,0,0,1-.505-1.22L3.288,9.625,0.4,6.883A1.224,1.224,0,0,1,.073,5.608,1.259,1.259,0,0,1,1.1,4.756l4.02-.574L6.874,0.63a1.326,1.326,0,0,1,2.273,0l1.8,3.581,3.98,0.545a1.257,1.257,0,0,1,1.024.852,1.222,1.222,0,0,1-.322,1.275L12.719,9.67l0.7,3.887a1.234,1.234,0,0,1-.505,1.22,1.271,1.271,0,0,1-1.334.094L7.987,13.014,4.44,14.872A1.268,1.268,0,0,1,3.85,15.017ZM7.995,1.267L6.261,4.787a1.265,1.265,0,0,1-.957.681l-4.016.574,2.937,2.7a1.236,1.236,0,0,1,.365,1.1L3.9,13.777l3.517-1.911a1.292,1.292,0,0,1,1.18,0L12.2,13.724l-0.763-3.88a1.237,1.237,0,0,1,.366-1.1l2.907-2.787-3.99-.486a1.269,1.269,0,0,1-.954-0.679Z"/>
</svg>
