<svg xmlns="http://www.w3.org/2000/svg" width="40" height="50.03" viewBox="0 0 40 50.03">
  <defs>
    <style>
      .cls-1 {
        fill: #d29e24;
        fill-rule: evenodd;
      }
    </style>
  </defs>
  <path class="cls-1" d="M786.018,2444.89L786,2494.9h40v-50.01H786.018Zm38.3,48.44H787.674v-46.88h36.648v46.88Zm-22.22-40.5v1.83h8.22v-1.83H802.1Zm-7.348,5.61v1.83h22.914v-1.83H794.754Zm0,5.62v1.83h18.434v-1.83H794.754Zm4.925,20.95a6.38,6.38,0,1,1,6.42-6.38A6.406,6.406,0,0,1,799.679,2485.01Zm0-11.13a4.755,4.755,0,1,0,4.785,4.75A4.772,4.772,0,0,0,799.679,2473.88Zm-4.314,15.55v-6.45H797v4.15l2.564-.9,2.627,0.91v-3.9h1.635v6.19l-4.256-1.48Z" transform="translate(-786 -2444.88)"/>
</svg>
