<?xml version="1.0" encoding="iso-8859-1"?>
<!-- Generator: Adobe Illustrator 19.0.0, SVG Export Plug-In . SVG Version: 6.00 Build 0)  -->
<svg version="1.1" id="Capa_1" xmlns="http://www.w3.org/2000/svg" xmlns:xlink="http://www.w3.org/1999/xlink" x="0px" y="0px"
	 viewBox="0 0 508 508" style="enable-background:new 0 0 508 508;" xml:space="preserve">
<g>
	<g>
		<path d="M254,57.4c-72.3,0-131.2,58.9-131.2,131.2S181.6,319.9,254,319.9S385.2,261,385.2,188.6S326.3,57.4,254,57.4z M254,303.5
			c-63.3,0-114.8-51.5-114.8-114.8S190.7,73.8,254,73.8s114.8,51.5,114.8,114.8S317.3,303.5,254,303.5z" style="fill:#D07DB1"/>
	</g>
</g>
<g>
	<g>
		<path d="M339.9,159.2h-65.6L254,96.8l-20.3,62.4h-65.6l53.1,38.6l-20.3,62.4l53.1-38.6l53.1,38.6l-20.3-62.4L339.9,159.2z
			 M254,201.4l-21.9,15.9l8.4-25.7l-21.9-15.9h27L254,150l8.4,25.7h27l-21.9,15.9l8.4,25.6L254,201.4z" style="fill:#D07DB1"/>
	</g>
</g>
<g>
	<g>
		<path d="M386.4,325.7c13.5-12.2,22-29.8,22-49.3v-5c0-13.4,5.2-26.1,14.7-35.6c26-26,26-68.3,0-94.3c-9.5-9.5-14.7-22.1-14.7-35.5
			v-5c0-36.8-29.9-66.7-66.7-66.7h-5c-13.4,0-26.1-5.2-35.6-14.7C288.6,6.9,271.8,0,254,0s-34.6,6.9-47.1,19.5
			c-9.5,9.5-22.1,14.7-35.6,14.7h-5c-36.8,0-66.7,29.9-66.7,66.7v5c0,13.4-5.2,26.1-14.7,35.5c-26,26-26,68.3,0,94.3
			c9.5,9.5,14.7,22.1,14.7,35.6v5c0,19.6,8.5,37.1,22,49.3l-72.1,125l73.6-12.7l25.8,70.1l78.7-136.2c8.4,3.6,17.4,5.5,26.4,5.5
			s18-1.9,26.4-5.5L359.1,508l25.8-70.1l73.6,12.7L386.4,325.7z M152.2,469.5l-18.4-50.1l-52.6,9.1l53.8-93.2c9.3,5,20,7.8,31.2,7.8
			h5c13.4,0,26.1,5.2,35.5,14.7c2.1,2.1,4.3,3.9,6.6,5.7L152.2,469.5z M218.5,346.2c-12.6-12.6-29.3-19.5-47.1-19.5h-5
			c-27.7,0-50.3-22.6-50.3-50.3v-5c0-17.8-6.9-34.6-19.5-47.1c-19.6-19.6-19.6-51.5,0-71.1c12.6-12.6,19.5-29.3,19.5-47.1v-5
			c0-27.7,22.5-50.3,50.3-50.3h5c17.8,0,34.6-6.9,47.2-19.5c19.6-19.6,51.5-19.6,71.1,0c12.6,12.6,29.3,19.5,47.1,19.5h5
			c27.7,0,50.3,22.6,50.3,50.3v5c0,17.8,6.9,34.6,19.5,47.1c19.6,19.6,19.6,51.5,0,71.1c-12.6,12.6-19.5,29.3-19.5,47.1v5
			c0,27.7-22.6,50.3-50.3,50.3h-5c-17.8,0-34.6,6.9-47.2,19.5C269.9,365.8,238.1,365.8,218.5,346.2z M374.2,419.4l-18.4,50.1
			l-61.2-106c2.3-1.8,4.5-3.6,6.6-5.7c9.5-9.5,22.1-14.7,35.6-14.7h5c11.3,0,21.9-2.8,31.2-7.8l53.8,93.2L374.2,419.4z" style="fill:#D07DB1"/>
	</g>
</g>
<g>
</g>
<g>
</g>
<g>
</g>
<g>
</g>
<g>
</g>
<g>
</g>
<g>
</g>
<g>
</g>
<g>
</g>
<g>
</g>
<g>
</g>
<g>
</g>
<g>
</g>
<g>
</g>
<g>
</g>
</svg>
