<?xml version="1.0" encoding="iso-8859-1"?>
<!-- Generator: Adobe Illustrator 19.0.0, SVG Export Plug-In . SVG Version: 6.00 Build 0)  -->
<svg version="1.1" id="Capa_1" xmlns="http://www.w3.org/2000/svg" xmlns:xlink="http://www.w3.org/1999/xlink" x="0px" y="0px"
	 viewBox="0 0 463 463" style="enable-background:new 0 0 463 463;" xml:space="preserve">
<g>
	<path d="M415.5,312c-2.991,0-5.85,0.568-8.483,1.591L356.773,231.5l50.244-82.091c2.633,1.023,5.492,1.591,8.483,1.591
		c12.958,0,23.5-10.542,23.5-23.5S428.458,104,415.5,104c-10.511,0-19.432,6.937-22.426,16.473l-98.937,2.537L248.719,39.47
		C252.613,35.274,255,29.662,255,23.5C255,10.542,244.458,0,231.5,0S208,10.542,208,23.5c0,6.162,2.387,11.774,6.281,15.97
		l-45.418,83.54l-98.937-2.537C66.932,110.937,58.011,104,47.5,104C34.542,104,24,114.542,24,127.5S34.542,151,47.5,151
		c2.991,0,5.85-0.568,8.483-1.591l50.244,82.091l-50.244,82.091C53.35,312.568,50.491,312,47.5,312C34.542,312,24,322.542,24,335.5
		S34.542,359,47.5,359c10.511,0,19.432-6.937,22.426-16.473l98.937-2.537l45.418,83.541c-3.894,4.195-6.281,9.808-6.281,15.97
		c0,12.958,10.542,23.5,23.5,23.5s23.5-10.542,23.5-23.5c0-6.162-2.387-11.774-6.281-15.969l45.417-83.541l98.937,2.537
		C396.068,352.063,404.989,359,415.5,359c12.958,0,23.5-10.542,23.5-23.5S428.458,312,415.5,312z M415.5,119
		c4.687,0,8.5,3.813,8.5,8.5s-3.813,8.5-8.5,8.5s-8.5-3.813-8.5-8.5S410.813,119,415.5,119z M231.5,15c4.687,0,8.5,3.813,8.5,8.5
		s-3.813,8.5-8.5,8.5s-8.5-3.813-8.5-8.5S226.813,15,231.5,15z M39,127.5c0-4.687,3.813-8.5,8.5-8.5s8.5,3.813,8.5,8.5
		s-3.813,8.5-8.5,8.5S39,132.187,39,127.5z M47.5,344c-4.687,0-8.5-3.813-8.5-8.5s3.813-8.5,8.5-8.5s8.5,3.813,8.5,8.5
		S52.187,344,47.5,344z M231.5,448c-4.687,0-8.5-3.813-8.5-8.5s3.813-8.5,8.5-8.5s8.5,3.813,8.5,8.5S236.187,448,231.5,448z
		 M289.933,324.877c-2.822-0.071-5.436,1.44-6.782,3.915l-47.605,87.564C234.23,416.126,232.88,416,231.5,416
		c-1.38,0-2.73,0.126-4.046,0.356l-47.605-87.564c-1.346-2.475-3.96-3.969-6.782-3.915L69.606,327.53
		c-0.531-1.47-1.204-2.873-2.004-4.19l53.815-87.925c1.471-2.403,1.471-5.427,0-7.83L67.602,139.66c0.8-1.318,1.472-2.72,2.004-4.19
		l103.461,2.653c0.065,0.001,0.129,0.002,0.193,0.002c2.742,0,5.273-1.5,6.588-3.917l47.605-87.564
		C228.77,46.874,230.12,47,231.5,47c1.38,0,2.73-0.126,4.046-0.356l47.605,87.564c1.315,2.418,3.846,3.917,6.588,3.917
		c0.064,0,0.129-0.001,0.193-0.002l103.461-2.653c0.531,1.47,1.204,2.873,2.004,4.19l-53.815,87.925
		c-1.471,2.403-1.471,5.427,0,7.83l53.814,87.925c-0.8,1.318-1.472,2.72-2.004,4.19L289.933,324.877z M415.5,344
		c-4.687,0-8.5-3.813-8.5-8.5s3.813-8.5,8.5-8.5s8.5,3.813,8.5,8.5S420.187,344,415.5,344z" style="fill:#D07DB1"/>
	<path d="M231.5,144c-48.248,0-87.5,39.252-87.5,87.5s39.252,87.5,87.5,87.5s87.5-39.252,87.5-87.5S279.748,144,231.5,144z
		 M231.5,304c-39.977,0-72.5-32.523-72.5-72.5s32.523-72.5,72.5-72.5s72.5,32.523,72.5,72.5S271.477,304,231.5,304z" style="fill:#D07DB1"/>
	<path d="M274.244,210.125l-22.881-3.325l-10.233-20.735c-1.823-3.692-5.513-5.985-9.63-5.985s-7.807,2.293-9.63,5.986
		L211.637,206.8l-22.882,3.325c-4.075,0.592-7.396,3.393-8.669,7.309c-1.272,3.916-0.231,8.134,2.718,11.008l16.557,16.139
		l-3.909,22.788c-0.696,4.058,0.94,8.083,4.271,10.503c3.332,2.421,7.665,2.734,11.311,0.818l20.465-10.76l20.466,10.76
		c1.585,0.833,3.3,1.245,5.007,1.245c2.217,0,4.42-0.695,6.303-2.063c3.331-2.42,4.967-6.445,4.271-10.503l-3.909-22.789
		l16.558-16.139c2.948-2.875,3.989-7.092,2.717-11.008C281.641,213.518,278.319,210.717,274.244,210.125z M250.345,236.593
		c-1.768,1.723-2.575,4.206-2.157,6.639l3.116,18.165l-16.313-8.577c-1.093-0.574-2.292-0.861-3.49-0.861s-2.397,0.287-3.49,0.861
		l-16.313,8.577l3.116-18.165c0.417-2.433-0.389-4.916-2.157-6.639l-13.198-12.865l18.24-2.65c2.443-0.355,4.555-1.889,5.647-4.103
		l8.157-16.528l8.157,16.528c1.092,2.213,3.204,3.748,5.647,4.103l18.24,2.65L250.345,236.593z" style="fill:#D07DB1"/>
</g>
<g>
</g>
<g>
</g>
<g>
</g>
<g>
</g>
<g>
</g>
<g>
</g>
<g>
</g>
<g>
</g>
<g>
</g>
<g>
</g>
<g>
</g>
<g>
</g>
<g>
</g>
<g>
</g>
<g>
</g>
</svg>
