<?xml version="1.0" encoding="iso-8859-1"?>
<!-- Generator: Adobe Illustrator 19.0.0, SVG Export Plug-In . SVG Version: 6.00 Build 0)  -->
<svg version="1.1" id="Layer_1" xmlns="http://www.w3.org/2000/svg" xmlns:xlink="http://www.w3.org/1999/xlink" x="0px" y="0px"
	 viewBox="0 0 503.97 503.97" style="enable-background:new 0 0 503.97 503.97;" xml:space="preserve">
<g>
	<g>
		<path d="M395.253,53.615c-82.768-71.512-205.992-71.487-286.628,0.076c-51.175,45.409-76.364,109.409-74.87,189.902
			c-0.168,7.949-3.257,195.374,87.972,250.763c2.686,1.628,6.043,1.62,8.729-0.008c2.669-1.628,4.214-4.625,3.995-7.747
			c-0.571-8.393,0.21-32.609,10.618-43.763c3.777-4.046,8.544-6.018,14.588-6.018c0.701,0,1.377-0.095,2.028-0.256
			c2.177,1.681,4.38,3.315,6.596,4.922v54.093c0,4.633,3.752,8.393,8.393,8.393c4.642,0,8.393-3.76,8.393-8.393V453.08
			c0.869,0.582,1.74,1.167,2.605,1.746l8.049,5.405c3.181,2.149,6.278,4.448,9.367,6.732c13.446,9.938,27.346,20.22,46.894,20.22
			c19.548,0,33.456-10.282,46.894-20.22c3.089-2.283,6.194-4.583,9.367-6.732l7.353-4.952c1.251-0.839,2.508-1.684,3.765-2.529
			v42.826c0,4.633,3.752,8.393,8.393,8.393c4.642,0,8.393-3.76,8.393-8.393v-54.484c2.037-1.486,4.059-3.003,6.063-4.549
			c0.672,0.173,1.373,0.275,2.1,0.275c6.043,0,10.811,1.972,14.588,6.018c10.416,11.155,11.188,35.37,10.618,43.763
			c-0.218,3.122,1.326,6.119,4.004,7.747c1.343,0.814,2.854,1.225,4.373,1.225c1.511,0,3.005-0.403,4.348-1.217
			c91.228-55.388,88.148-242.814,87.972-250.427C471.709,163.074,445.79,97.261,395.253,53.615z M306.256,441.338l-7.437,4.994
			c-3.357,2.283-6.648,4.709-9.921,7.134c-11.776,8.704-22.897,16.93-36.914,16.93c-14.017,0-25.138-8.226-36.906-16.93
			c-3.282-2.426-6.564-4.851-9.929-7.134l-8.142-5.464c-13.119-8.771-26.691-17.844-38.073-28.638
			c-38.056-36.134-41.245-92.412-41.245-142.328c0-35.236,7.185-63.362,11.994-78.244c12.783,10.861,37.552,26.935,72.117,26.935
			c3.576,0,6.748-2.266,7.923-5.632c1.175-3.374,0.084-7.126-2.719-9.342c-13.018-10.316-31.828-30.132-30.854-39.902
			c0.067-0.672,0.21-2.065,2.392-3.66c16.099,1.847,110.114,16.963,203.994,124.248c2.56,2.921,3.945,6.673,3.903,10.576
			c-0.235,23.846-4.751,83.003-41.363,117.307C333.4,423.132,319.593,432.382,306.256,441.338z M385.911,471.013
			c-1.15-12.355-4.667-28.806-14.705-39.6c-3.712-3.982-7.99-6.92-12.786-8.817c39.606-38.911,44.549-101.947,44.806-127.547
			c0.076-8.033-2.778-15.771-8.049-21.789v-0.008C287.975,150.74,181.58,143.32,177.089,143.06
			c-1.486-0.067-2.954,0.235-4.272,0.906c-10.081,5.12-12.834,12.666-13.371,18.096c-1.209,12.095,7.823,25.575,17.408,36.243
			c-27.849-7.974-43.94-26.809-44.133-27.035c-1.847-2.233-4.717-3.366-7.596-2.963c-2.879,0.395-5.347,2.241-6.53,4.893
			c-0.722,1.612-17.693,40.205-17.693,96.701c0,56.451,5.487,113.93,44.652,152.693c-4.798,1.897-9.077,4.835-12.789,8.818
			c-10.039,10.794-13.555,27.245-14.705,39.6c-70.261-60.189-67.559-225.322-67.517-227.395
			c-1.402-75.692,21.89-135.369,69.229-177.37C194.121,0.25,307.836,0.275,384.291,66.314
			c47.289,40.859,70.555,100.511,69.137,177.639C453.47,245.708,456.248,410.807,385.911,471.013z" style="fill:#D07DB1"/>
	</g>
</g>
<g>
</g>
<g>
</g>
<g>
</g>
<g>
</g>
<g>
</g>
<g>
</g>
<g>
</g>
<g>
</g>
<g>
</g>
<g>
</g>
<g>
</g>
<g>
</g>
<g>
</g>
<g>
</g>
<g>
</g>
</svg>
