<svg xmlns="http://www.w3.org/2000/svg" height="94.333" width="371.147"><defs><clipPath id="a"><path d="M0 0h2783.58v707H0z"/></clipPath></defs><g clip-path="url(#a)" transform="matrix(.13333 0 0 -.13333 0 94.333)"><path d="M1072.12 77.637c-.21-6.117-.63-12.426-1.43-19.125l24.9 45.136-2.74 14.719 25 3.824 9.09-62.535 11.5 39.207c.91 3.828 1.38 6.688 1.49 9.559.09 2.871-.18 5.93-1.18 10.137l26.18 4.972c.95-5.351 1.56-9.945 1.4-14.722-.23-6.313-1.81-13.196-6.19-23.52l-21.08-56.61h-31.17l-6.56 42.262-24.41-42.261h-30.22c1.19 39.394-.24 64.062-2.97 89.879l25.95 4.015c1.98-14.344 3.01-28.683 2.44-44.937m162.31 21.605c-12.08-6.5-16.56-8.988-27.5-15.68l-11.67-54.882h-26.95l19.03 90.836 23.85 4.015-1.02-12.617c9.18 5.352 16.58 9.18 24.73 12.617l-.47-24.289m24.71 61.582l27.86 3.821-6.17-28.684-27.67-3.828zm-8.71-41.117l27.87 3.824-20.14-94.851h-26.95l19.22 91.027m77.51-19.508l-9.84-46.465c-.22-.957-.45-1.914-.47-2.488-.04-1.34.7-1.914 2.62-1.914 4.59 0 9.8 1.914 14.66 3.828l4.69-18.742c-7.79-4.203-19-7.652-29.9-7.652-13.57 0-20.61 6.504-20.22 17.593.04 1.344.29 2.68.52 4.02l10.99 51.82h-13.76l4.57 21.606h13.77l4.6 22.379 27.85 3.824-5.5-26.203h22.18l-6.11-21.606h-20.65m81.17-2.676c.11 3.254-2.68 5.36-7.65 5.36-9.76 0-12.82-5.547-14.42-13.2l-1.37-6.503c4.63 1.152 6.74 1.53 12.34 3.254 7.35 2.105 10.9 5.543 11.1 11.09zm-49.07-8.984c4.56 21.418 14.61 35.18 44.06 35.18 17.58 0 30.7-7.645 30.15-23.328-.63-18.168-10.29-26.582-33.47-33.461-11.41-3.446-11.6-3.446-19.7-5.547l-1.38-6.5c-.69-3.45-.42-6.504 4.55-6.504 9.76 0 24.08 4.781 36.89 10.32l4.49-19.113c-11.53-7.078-29.51-12.82-45.95-12.82-19.31 0-27.24 8.414-26.69 24.289.12 3.441.65 7.265 1.55 11.285l5.5 26.2m143.77 71.327l27.86 3.821-28.42-135.008h-26.96l27.52 131.187m80.41-62.344c.12 3.254-2.67 5.36-7.64 5.36-9.76 0-12.83-5.547-14.43-13.2l-1.36-6.503c4.63 1.152 6.73 1.53 12.34 3.254 7.34 2.105 10.9 5.543 11.09 11.09zm-49.06-8.984c4.56 21.418 14.61 35.18 44.05 35.18 17.59 0 30.71-7.645 30.16-23.328-.63-18.168-10.29-26.582-33.48-33.461-11.4-3.446-11.59-3.446-19.69-5.547l-1.38-6.5c-.69-3.45-.42-6.504 4.55-6.504 9.76 0 24.07 4.781 36.88 10.32l4.5-19.113c-11.54-7.078-29.51-12.82-45.95-12.82-19.32 0-27.25 8.414-26.69 24.289.12 3.441.64 7.265 1.54 11.285l5.51 26.2m76.44-55.65l5.86 19.887c6.98-2.488 14.93-4.78 25.06-4.78 8.99 0 9.65 2.675 10.57 7.077.91 4.203-1.69 6.496-12.01 12.043-19.13 10.328-19.66 17.215-16.68 31.168 4.33 20.082 10.45 25.434 36.26 25.434 8.79 0 20-1.914 27.57-4.395l-5.12-20.273c-6.82 1.914-16.88 3.445-23.39 3.445-8.03 0-9.22-.957-10.35-5.926-.91-4.402.01-5.36 8.83-10.136 21.01-11.477 24.13-15.493 20.94-30.215-4.56-21.04-10.97-29.453-38.89-29.453-8.6 0-20.56 2.492-28.65 6.125m77.24-.001l5.86 19.887c6.98-2.488 14.93-4.78 25.07-4.78 8.98 0 9.65 2.675 10.57 7.077.91 4.203-1.69 6.496-12.01 12.043-19.14 10.328-19.66 17.215-16.68 31.168 4.32 20.082 10.44 25.434 36.26 25.434 8.78 0 20-1.914 27.56-4.395l-5.11-20.273c-6.82 1.914-16.89 3.445-23.39 3.445-8.03 0-9.22-.957-10.35-5.926-.91-4.402.01-5.36 8.82-10.136 21.02-11.477 24.14-15.493 20.94-30.215-4.56-21.04-10.96-29.453-38.88-29.453-8.61 0-20.56 2.492-28.66 6.125m73.87-25.051l15.46 20.84h-10.14l6.65 31.746h26.96l-7.3-34.04L1772.18 0l-9.47 7.84m122.73 48.762c-1.13-4.977.13-7.27 4.91-7.27 9.56 0 16.61 4.973 21.93 9.563l8.71 41.496c-3.04.574-6.66.765-10.48.765-13.96 0-17.09-7.457-19.12-16.445zm24.64-27.922l-.49 8.035c-6.88-5.547-16.59-9.95-29.98-9.95-20.26 0-24.8 12.243-20.44 33.087l5.27 25.05c4.6 22.184 10.92 38.817 50.11 38.817 2.87 0 8.78-.379 11.25-.957l7.79 37.105 27.66 3.821-28.41-135.008h-22.76m111.13 61.96c.24 6.883-3.83 10.516-12.63 10.516-10.14 0-16.25-5.16-18.09-14.34l-4.82-23.14c-.25-1.336-.48-2.676-.52-3.824-.23-6.692 3.84-10.52 12.64-10.52 10.32 0 16.23 5.164 18.08 14.344l4.83 23.14c.23 1.336.47 2.676.51 3.825zm-63.29-32.702c.08 2.105.36 4.402.82 6.503l4.58 21.61c5.02 23.906 17.18 37.668 49.68 37.668 25.05 0 35.82-14.34 35.25-30.977a42.786 42.786 0 0 0-.81-6.691l-4.57-21.61c-4.81-22.375-16.05-37.675-49.89-37.675-23.71 0-35.64 14.156-35.06 31.172m254.91 34.039c.23 1.148.46 2.105.48 2.87.06 1.915-.86 2.676-3.54 2.676-4.97 0-16.81-4.968-24.59-8.984l-12.61-59.86h-26.76l13.3 63.298c.22 1.148.46 2.105.47 2.87.07 1.915-.85 2.676-3.53 2.676-4.97 0-17-4.968-24.4-8.792l-12.61-60.051h-26.96l19.05 90.836 23.84 4.015-.55-10.324c14.77 6.887 26.37 10.512 37.08 10.512 9.17 0 13.81-4.012 15.67-10.899 14.44 8.231 27.35 10.899 38.05 10.899 12.43 0 16.77-7.074 16.36-18.922-.12-3.258-.44-6.89-1.33-10.715l-13.76-65.402h-26.96l13.3 63.297m101.07-1.337c.25 6.883-3.83 10.516-12.63 10.516-10.13 0-16.25-5.16-18.08-14.34l-4.83-23.14c-.24-1.336-.47-2.676-.51-3.824-.24-6.692 3.83-10.52 12.63-10.52 10.33 0 16.23 5.164 18.09 14.344l4.82 23.14c.24 1.336.47 2.676.51 3.825zm-63.28-32.702c.08 2.105.35 4.402.81 6.503l4.58 21.61c5.03 23.906 17.19 37.668 49.69 37.668 25.05 0 35.82-14.34 35.24-30.977a42.786 42.786 0 0 0-.81-6.691l-4.57-21.61c-4.8-22.375-16.04-37.675-49.88-37.675-23.71 0-35.65 14.156-35.06 31.172m161.86 41.304c-12.08-6.5-16.57-8.988-27.5-15.68l-11.67-54.882h-26.96l19.05 90.836 23.83 4.015-1.01-12.617c9.18 5.352 16.58 9.18 24.72 12.617l-.46-24.289m55.19-1.719c.12 3.254-2.67 5.36-7.65 5.36-9.75 0-12.82-5.547-14.42-13.2l-1.37-6.503c4.63 1.152 6.74 1.53 12.35 3.254 7.34 2.105 10.9 5.543 11.09 11.09zm-49.06-8.984c4.56 21.418 14.61 35.18 44.05 35.18 17.59 0 30.7-7.645 30.16-23.328-.64-18.168-10.3-26.582-33.49-33.461-11.4-3.446-11.58-3.446-19.69-5.547l-1.37-6.5c-.7-3.45-.42-6.504 4.55-6.504 9.75 0 24.07 4.781 36.88 10.32l4.49-19.113c-11.53-7.078-29.51-12.82-45.94-12.82-19.32 0-27.25 8.414-26.69 24.289.11 3.441.64 7.265 1.54 11.285l5.51 26.2m85.23-28.114h26.96l-6.65-31.746h-26.96l6.65 31.746" fill="#fff"/><path d="M32.7 573.051c-45.571-65.469-39.938-150.645-5.071-220.215.777-1.699 1.676-3.305 2.531-4.945a40.078 40.078 0 0 1 1.645-3.176c.261-.574.672-1.207 1.008-1.77.562-1.14 1.156-2.183 1.753-3.269 1.122-1.883 2.239-3.801 3.36-5.672.633-1.043 1.234-2.09 1.941-3.137 1.192-2.015 2.574-4.008 3.809-6.023.558-.86 1.082-1.699 1.68-2.539 1.789-2.727 3.585-5.414 5.562-8.063 0-.078.074-.152.148-.183.297-.45.633-.879.93-1.289 1.68-2.297 3.36-4.54 5.117-6.758.598-.821 1.266-1.641 1.868-2.442 1.601-1.945 3.171-3.882 4.734-5.808.601-.688 1.195-1.418 1.832-2.129 2.09-2.52 4.293-5.02 6.535-7.485 0-.035.07-.086.11-.144.074-.094.148-.188.296-.281 2.164-2.371 4.367-4.7 6.61-7.016a106.38 106.38 0 0 1 2.199-2.148c1.715-1.739 3.433-3.493 5.265-5.204.747-.714 1.489-1.402 2.204-2.089 2.386-2.243 4.773-4.485 7.273-6.629.04-.039.078-.059.113-.09.41-.359.86-.715 1.235-1.067a509.728 509.728 0 0 1 6.64-5.597c.899-.75 1.793-1.457 2.692-2.184 1.867-1.476 3.73-2.89 5.593-4.312.973-.727 1.946-1.477 2.954-2.242 2.015-1.508 4.105-2.985 6.156-4.438.746-.543 1.492-1.086 2.277-1.586.188-.168.41-.32.598-.469 2.051-1.343 3.992-2.648 6.012-3.976a197.86 197.86 0 0 0 2.613-1.711c3.133-2 6.266-3.922 9.367-5.789a69.444 69.444 0 0 0 2.649-1.473 213.271 213.271 0 0 1 7.054-3.941c1.305-.727 2.613-1.364 3.953-2.032 1.61-.878 3.289-1.773 5.008-2.652.41-.164.82-.316 1.192-.523.707-.317 1.378-.672 2.05-1.004 2.617-1.289 5.301-2.504 8.067-3.735.519-.246 1.078-.464 1.64-.75a305.785 305.785 0 0 1 9.368-3.878c.75-.282 1.492-.618 2.277-.876a354.862 354.862 0 0 1 8.808-3.285c.375-.152.707-.265 1.083-.39a353.054 353.054 0 0 1 9.855-3.215c.781-.223 1.566-.5 2.387-.707 3.398-1.027 6.679-2.223 10.152-2.875 220.328-40.164 284.34 132.41 284.34 132.41-53.781-70-149.223-88.496-239.621-67.93-3.363.762-6.684 1.828-10.078 2.836-.789.227-1.684.485-2.469.766a281.659 281.659 0 0 0-9.699 3.137c-.45.148-.934.312-1.383.503-2.871.985-5.707 2.071-8.547 3.168-.785.336-1.605.622-2.391.918-3.136 1.231-6.23 2.555-9.254 3.883-.671.239-1.234.524-1.871.781a541.565 541.565 0 0 0-7.761 3.641c-.782.332-1.493.711-2.278 1.102-2.015.953-4.027 2.015-6.004 3.058-1.382.711-2.73 1.364-4.035 2.09-2.426 1.305-4.851 2.688-7.277 4.031-.75.508-1.57.938-2.43 1.399-3.133 1.867-6.308 3.789-9.402 5.769a56.563 56.563 0 0 0-2.539 1.7c-2.278 1.433-4.52 2.949-6.719 4.441-.711.504-1.418 1.027-2.164 1.547a411.45 411.45 0 0 0-6.344 4.558 97.817 97.817 0 0 1-2.801 2.122c-1.906 1.476-3.808 2.929-5.71 4.464-.825.688-1.676 1.364-2.504 2.032-2.461 1.976-4.774 3.961-7.129 6.011-.223.243-.555.45-.821.653-2.5 2.238-5 4.531-7.464 6.812-.747.707-1.375 1.363-2.125 2.035-1.79 1.754-3.582 3.469-5.336 5.246-.746.743-1.422 1.434-2.129 2.141a211.683 211.683 0 0 0-6.606 6.981 3.134 3.134 0 0 0-.34.335c-2.273 2.5-4.476 5.04-6.675 7.618-.602.687-1.161 1.394-1.754 2.07-1.61 1.977-3.215 3.973-4.856 5.953-.519.766-1.121 1.492-1.718 2.238a280.716 280.716 0 0 0-5.56 7.411c-50.167 68.437-68.269 162.882-28.14 240.39" fill="#88d6f6"/><path d="M174.164 628.238c-33.035-47.402-31.203-110.875-5.488-161.035 4.254-8.398 9.105-16.558 14.554-24.305 4.93-7.089 10.379-15.488 16.985-21.179 2.312-2.614 4.812-5.153 7.39-7.707.637-.633 1.274-1.254 1.942-1.922a247.208 247.208 0 0 1 7.539-6.977c.078-.097.223-.191.301-.285.035-.019.074-.055.074-.055a179.969 179.969 0 0 1 8.809-7.296c.707-.504 1.343-1.067 2.05-1.571 2.989-2.332 6.051-4.566 9.145-6.769.113-.039.187-.114.34-.172 1.34-.969 2.757-1.867 4.215-2.797.632-.41 1.304-.895 1.941-1.289a188.26 188.26 0 0 1 6.828-4.219c.34-.168.672-.351 1.008-.519a94.122 94.122 0 0 1 6.051-3.379c.707-.43 1.414-.766 2.125-1.157 1.418-.707 2.836-1.457 4.215-2.183.187-.098.453-.203.675-.301 2.91-1.437 5.86-2.762 8.77-4.09a78.571 78.571 0 0 0 1.976-.801c2.395-1.023 4.817-2.035 7.207-2.949 1.079-.355 2.09-.777 3.098-1.136a306.449 306.449 0 0 1 6.645-2.274c1.078-.359 2.05-.656 3.023-.973 3.133-.992 6.309-2.261 9.629-2.777 170.055-28.203 209.394 102.793 209.394 102.793-35.421-51.027-103.992-75.324-177.144-56.328-3.285.84-6.492 1.777-9.633 2.801-1.008.258-1.898.578-2.871.914a154.047 154.047 0 0 0-6.758 2.312c-1.008.371-2.051.75-3.058 1.141-2.426.949-4.852 1.883-7.207 2.93-.707.281-1.379.519-1.938.82-3.023 1.308-6.012 2.711-8.922 4.105-1.492.766-2.949 1.512-4.441 2.293-.895.45-1.754.879-2.539 1.289-1.981 1.028-3.809 2.11-5.676 3.211-.441.243-.895.469-1.344.731-2.273 1.379-4.629 2.758-6.789 4.199-.75.426-1.383.914-2.09 1.359-1.496.95-2.949 1.903-4.484 2.93-3.094 2.149-6.117 4.422-9.141 6.703-.711.574-1.382 1.098-2.054 1.66-32.102 25.27-57.481 59.828-69.496 98.965-12.692 40.649-9.895 86.278 11.98 123.285" fill="#88d6f6"/><path d="M293.082 669.461c-19.484-28.586-21.352-64.106-7.918-95.645 14.262-33.519 43.41-59.812 77.379-72.257 1.379-.543 2.762-.993 4.18-1.477.636-.184 1.23-.391 1.906-.594 1.976-.617 3.953-1.363 6.004-1.758 93.945-18.14 119.406 48.208 126.234 57.969-22.355-32.14-59.867-39.844-105.89-28.668-3.622.879-7.579 2.184-11.086 3.453a145.702 145.702 0 0 0-13.25 5.469c-8.098 3.934-15.938 8.676-23.18 14.164-41.207 31.238-66.734 90.828-39.863 139.371" fill="#88d6f6"/><path d="M2469.95 535.531l3.69-15.566c1.04-4.457-1.79-8.063-6.35-8.063m-293.71 50.356c-.93-4.313-2.05-9.762-2.79-13.367l-32.51-152.153 34.19 160.293 1.11 5.227m-973.95-101.824l-17.96-63.582 17.96 63.562v.02" fill="#fff"/><path d="M2473.64 519.965l-9.37 39.621c-7.39 28.668-28.33 42.215-75.39 42.215h-197.94c-4.56 0-9.11-2.055-10.04-6.512l-75.09-356.144c-.98-4.5-1.27-7.704-.76-9.93.53-2.297 9.34-1.867 13.85-1.867h68.57c4.59 0 12.92-.34 15.34.636 2.54 1.043 3.66 7.832 4.59 12.325l24.23 124.871 29.6 138.511c.96 4.442 5.44 8.082 10 8.082l196.06.129c4.52 0 7.39 3.621 6.35 8.063" fill="#fff"/><path d="M2752.55 664.34c-4.59-.055-86.95 0-86.95 0-4.55 0-10.41-4.891-12.95-8.66l-152.63-224.547c-2.6-3.77-5.55-3.637-6.56.801l-11.28 49.214c-.96 4.461-5.51 8.098-10.14 8.098h-98.1c-4.51 0-7.24-3.769-6.04-8.172l43.97-154.164c1.27-4.414 1.38-11.621.25-16.035l-20.5-78.086c-1.09-4.426 1.71-5.762 6.34-5.762h96.86c4.55 0 9.26 1.317 10.37 5.762l20.52 79.18c1.12 4.414 4.29 10.418 7.01 14.101l249.09 330.34c2.8 3.617 2.4 7.953-2.15 7.953l-27.11-.023M1731.21 601.5h-88.54c-4.51 0-9.14-1.59-10.04-6.066l-29.26-136.918-29.15-131.098c-.93-4.445-5.45-4.141-10.01-4.141h-58.18c-57.56 0-50.92 36.368-39.08 90.879.14.539 36.91 181.278 36.91 181.278.82 4.457-2.17 6.066-6.68 6.066h-84.35c-4.55 0-9.08-1.609-9.96-6.066l-33.94-181.149c-16.92-97.941-17.43-184.125 96.15-186.965 1.87-.07 179.35 0 179.35 0 4.59 0 9.1 1.504 10.08 5.918l38.51 181.664 38.37 182.418s1.36 4.18-.18 4.18m-881.839.301h-94.918c-4.555 0-9.144-1.082-10.152-5.563l-17.133-74.109c-.973-4.387 1.941-7.891 6.531-7.891h90.887c4.594 0 9.144 4.141 10.117 8.563l16.496 74.668s1.317 4.332-1.828 4.332M727.543 489.246c-4.516 0-9.145-3.601-10.117-8.058l-12.801-56.532-28.555-130.539s-15.191-69.394-16.644-73.742c0 0-12.793-50.105-43.356-48.094-14.218.938-30.472 4.199-30.472 4.199h-.039c-8.547 2.579-9.149-6.289-10.192-10.722L556.52 84.43c-1.086-4.453 1.832-8.457 6.347-8.516 0 0 40.867-5.762 69.723-5.762h4.738c71.289 0 108.949 41.914 133.024 155.731l28.218 131.738 26.465 122.574c.973 4.461-1.719 8.602-6.269 8.602M1997.32 445.66c0-4.945-15.63-4.004-15.63-4.004l-124.47.903c-4.3 0-5.53 6.031-5.83 10.339-.01.149.31 5.172.68 6.418 9.62 33.375 38.33 52.442 83.83 52.442 51.2 0 62.14-25.403 62.14-53.559m-42.81 144.149c-159.67 0-197.78-98.688-218.98-196.5-21.21-99.731-19.4-178.559 145.81-178.559h151.14c4.47.078 8.95 4.18 9.85 8.606l16.24 63.261c.94 4.481-2.09 5.801-6.6 5.801H1904.1c-53.82 0-73.09 16.582-71.21 53.809-.04 4.238 4.81 15.019 9.36 15.019h228.88c10.05.059 10.37 5.938 10.37 5.938 23.3 105.16 24.82 222.625-126.27 222.625m-774.41-205.496l-18.4-62.891c-1.27-4.414-6.46-7.356-11.02-7.356h-94.92c-72.031 0-89.539 55.668-72.031 138.735 17.581 84.914 52.411 137.449 123.251 142.769 96.86 7.297 116.68-61.101 93.2-139.726zm84.35-66.641s44.72 108.629 54.86 171.41c13.89 84.02-28.14 205.863-190.65 205.863-161.536 0-231.638-116.324-258.474-242.796-26.722-127.387 8.266-238.297 168.914-237.399l245.2.149c4.52.019 9.23 3.671 10.39 8.027l20.67 78.711c1.12 4.441-1.68 8.047-6.27 8.066l-19.75.145-19.74.09c-3.88.039-6.12 2.558-5.6 5.898.07.605.15 1.211.45 1.836" fill="#fff"/></g></svg>